<svg id="Layer_1" data-name="Layer 1" xmlns="http://www.w3.org/2000/svg" viewBox="0 0 298.8 79.99"><defs><style>.cls-1{fill:#fab631;}.cls-2{fill:#00566e;}</style></defs><path class="cls-1" d="M53.33,57.22a19.06,19.06,0,1,1,0-34.42A3.78,3.78,0,0,0,57.59,22L66,13.6a3.81,3.81,0,0,0,0-5.38,3.45,3.45,0,0,0-.67-.54,38.1,38.1,0,1,0,0,64.63,3.79,3.79,0,0,0,1.18-5.25A3.74,3.74,0,0,0,66,66.4L57.61,58a3.79,3.79,0,0,0-4.28-.77"/><path class="cls-2" d="M65.52,24.87l-3.47,3.51a2,2,0,0,0-.28,2.21,19.08,19.08,0,0,1,0,18.82,2,2,0,0,0,.33,2.24l3.46,3.47a1.85,1.85,0,0,0,2.6.13,1.66,1.66,0,0,0,.36-.44,27.58,27.58,0,0,0,0-29.57A1.85,1.85,0,0,0,66,24.57a2.17,2.17,0,0,0-.44.36"/><path class="cls-2" d="M73.06,17.33l-3.37,3.39a2,2,0,0,0-.26,2.46,29.56,29.56,0,0,1,0,33.61,2,2,0,0,0,.26,2.51l3.37,3.39a1.86,1.86,0,0,0,2.63.09,2.22,2.22,0,0,0,.28-.33,38.12,38.12,0,0,0,0-44.86,1.85,1.85,0,0,0-2.91-.24"/><path class="cls-1" d="M54.69,40a9.53,9.53,0,1,1-9.53-9.53h0A9.52,9.52,0,0,1,54.69,40h0"/><path class="cls-2" d="M102.47,20.31h6.47c7,0,11.57,3.47,11.57,11.31S116,43.14,109.23,43.14h-6.81ZM108.67,39c3.91,0,6.55-1.9,6.55-7.36s-2.67-7.15-6.55-7.15h-1V39Z"/><path class="cls-2" d="M121.69,34.45c0-5.77,4.09-9.11,8.53-9.11s8.54,3.34,8.54,9.11-4.11,9-8.54,9-8.53-3.34-8.53-9.11m11.75,0c0-3-1.07-4.95-3.22-4.95S127,31.39,127,34.39s1.07,5,3.22,5,3.22-1.94,3.22-5"/><path class="cls-2" d="M139.88,34.45a8.79,8.79,0,0,1,8.46-9.11c.21,0,.43,0,.65,0a7.68,7.68,0,0,1,5.13,1.87l-2.46,3.31a3.6,3.6,0,0,0-2.38-1c-2.49,0-4.11,2-4.11,5s1.68,4.95,4,4.95a5.26,5.26,0,0,0,3.16-1.34l2,3.42a8.83,8.83,0,0,1-5.78,2c-4.9,0-8.67-3.34-8.67-9.11"/><path class="cls-2" d="M157.23,36.82v-7h-2.39V26l2.67-.2.61-4.61h4.29v4.61h4.2v4h-4.2v7.06c0,2,.91,2.77,2.27,2.77a5.34,5.34,0,0,0,1.67-.34l.82,3.74a12.24,12.24,0,0,1-3.89.63c-4.34,0-6.07-2.67-6.07-6.68"/><path class="cls-2" d="M167.52,34.45c0-5.77,4.1-9.11,8.55-9.11s8.53,3.34,8.53,9.11-4.1,9-8.53,9-8.55-3.34-8.55-9.11m11.75,0c0-3-1.07-4.95-3.2-4.95s-3.22,1.95-3.22,4.95,1.07,5,3.22,5,3.2-1.94,3.2-5"/><path class="cls-2" d="M185.87,25.75h4.23l.37,3.05h.14a5.91,5.91,0,0,1,5-3.46,4.78,4.78,0,0,1,2.08.35l-.86,4.46a6.7,6.7,0,0,0-1.89-.28c-1.34,0-2.93.84-3.86,3.2V43.15h-5.19Z"/><path class="cls-2" d="M205.07,31.86c0-7.59,5-12,10.86-12a9.77,9.77,0,0,1,6.93,3l-2.73,3.34a5.84,5.84,0,0,0-4.08-1.81c-3.16,0-5.64,2.76-5.64,7.34s2.2,7.41,5.56,7.41a6.12,6.12,0,0,0,4.5-2.12l2.75,3.23a9.5,9.5,0,0,1-7.47,3.31c-5.85,0-10.68-4-10.68-11.7"/><path class="cls-2" d="M225.09,18.6h5.21v6l-.24,3.14a8,8,0,0,1,5.42-2.39c3.8,0,5.43,2.67,5.43,7V43.14h-5.19V33c0-2.49-.68-3.28-2.18-3.28a4.44,4.44,0,0,0-3.28,1.76V43.2h-5.17Z"/><path class="cls-2" d="M242.24,34.45c0-5.64,4-9.11,8.26-9.11,5,0,7.48,3.59,7.48,8.33a11.05,11.05,0,0,1-.23,2.29H247.27a4.2,4.2,0,0,0,4.52,3.67,7.41,7.41,0,0,0,3.8-1.14l1.72,3.11a11.54,11.54,0,0,1-6.21,1.9c-5,0-8.86-3.35-8.86-9.11m11.29-1.89c0-1.91-.84-3.29-2.91-3.29a3.47,3.47,0,0,0-3.42,3.29Z"/><path class="cls-2" d="M259.12,34.45a8.8,8.8,0,0,1,8.48-9.11q.33,0,.66,0a7.63,7.63,0,0,1,5.12,1.87l-2.45,3.31a3.57,3.57,0,0,0-2.38-1c-2.5,0-4.1,2-4.1,5s1.67,4.95,3.93,4.95a5.24,5.24,0,0,0,3.16-1.34l2,3.37a8.78,8.78,0,0,1-5.75,2.07c-4.89,0-8.67-3.34-8.67-9.11"/><polygon class="cls-2" points="274.84 18.6 279.91 18.6 279.91 32.66 280.05 32.66 285.6 25.75 291.25 25.75 285.11 32.92 291.71 43.14 286.08 43.14 282.14 36.36 279.91 38.85 279.91 43.14 274.84 43.14 274.84 18.6"/><path class="cls-2" d="M107.35,53.78a.14.14,0,0,1-.06.12.16.16,0,0,1-.12,0H105.6v5.43a.15.15,0,0,1,0,.13.19.19,0,0,1-.13,0h-.88a.17.17,0,0,1-.12,0,.18.18,0,0,1-.06-.13V53.94H102.8a.18.18,0,0,1-.13,0,.13.13,0,0,1,0-.12v-.71a.16.16,0,0,1,0-.12.17.17,0,0,1,.13-.05h4.37a.21.21,0,0,1,.13.05.17.17,0,0,1,0,.12Z"/><path class="cls-2" d="M110.13,55.45h-.4a4.66,4.66,0,0,0-.88.1v3.82a.22.22,0,0,1,0,.14.19.19,0,0,1-.13,0h-.82a.16.16,0,0,1-.13-.06.21.21,0,0,1,0-.13V54.89q0-.14.18-.18a6.8,6.8,0,0,1,1-.19,6.64,6.64,0,0,1,1-.08l.37,0c.12,0,.18.07.18.17v.64A.16.16,0,0,1,110.13,55.45Z"/><path class="cls-2" d="M110.87,54.69a.18.18,0,0,1,0-.13.14.14,0,0,1,.13-.05h.82a.17.17,0,0,1,.13.05.21.21,0,0,1,0,.13v3a1.89,1.89,0,0,0,0,.44.62.62,0,0,0,.15.29.54.54,0,0,0,.27.18,1.69,1.69,0,0,0,.43,0,3.71,3.71,0,0,0,.88-.1V54.69a.24.24,0,0,1,.05-.13.13.13,0,0,1,.12-.05h.83a.13.13,0,0,1,.12.05.19.19,0,0,1,.06.13v4.48q0,.12-.18.18a8.08,8.08,0,0,1-1,.19,6.19,6.19,0,0,1-.93.07,3,3,0,0,1-.91-.11,1.49,1.49,0,0,1-.63-.35,1.41,1.41,0,0,1-.38-.61,2.84,2.84,0,0,1-.12-.88Z"/><path class="cls-2" d="M119.91,59.36a.21.21,0,0,1,0,.13.18.18,0,0,1-.13.06h-.82a.18.18,0,0,1-.13-.06.21.21,0,0,1,0-.13v-3a1.44,1.44,0,0,0-.08-.56.57.57,0,0,0-.28-.31,1.28,1.28,0,0,0-.53-.1,4.66,4.66,0,0,0-.88.1v3.82a.22.22,0,0,1,0,.14.19.19,0,0,1-.13,0H116a.16.16,0,0,1-.13-.06.21.21,0,0,1,0-.13V54.89q0-.14.18-.18a6.8,6.8,0,0,1,1-.19,6.64,6.64,0,0,1,1-.08,2.21,2.21,0,0,1,1.55.47,2,2,0,0,1,.49,1.49Z"/><path class="cls-2" d="M122.69,60.39a1.53,1.53,0,0,0,.54-.07.37.37,0,0,0,.24-.23,1.26,1.26,0,0,0,.07-.5v-.07a2.84,2.84,0,0,1-.43.06l-.43,0a2.38,2.38,0,0,1-1.19-.27,1.57,1.57,0,0,1-.71-.77,2.79,2.79,0,0,1-.24-1.2v-.69a2.81,2.81,0,0,1,.24-1.21,1.66,1.66,0,0,1,.71-.77,2.38,2.38,0,0,1,1.19-.27l.47,0,.41,0a4.72,4.72,0,0,1,.48.08l.44.1a.43.43,0,0,1,.19.08.23.23,0,0,1,0,.16v4.61a2.19,2.19,0,0,1-.22,1,1.28,1.28,0,0,1-.68.59,2.87,2.87,0,0,1-1.13.19,3.36,3.36,0,0,1-.9-.11A4.1,4.1,0,0,1,121,61l-.1-.06a.23.23,0,0,1-.07-.07.31.31,0,0,1,0-.1v-.46c0-.13.06-.18.18-.14s.51.11.82.17A5.07,5.07,0,0,0,122.69,60.39Zm.85-1.8v-3.1a3.38,3.38,0,0,0-.38-.06l-.48,0a.8.8,0,0,0-.75.34,1.75,1.75,0,0,0-.21.94v.69a4.06,4.06,0,0,0,0,.51,1.13,1.13,0,0,0,.16.41.73.73,0,0,0,.29.26,1.09,1.09,0,0,0,.47.1l.41,0Z"/><path class="cls-2" d="M131.94,53.78a.17.17,0,0,1-.05.12.2.2,0,0,1-.13,0h-1.57v5.43a.15.15,0,0,1-.05.13.18.18,0,0,1-.12,0h-.89a.17.17,0,0,1-.12,0,.18.18,0,0,1-.06-.13V53.94h-1.56a.18.18,0,0,1-.13,0,.13.13,0,0,1-.05-.12v-.71a.16.16,0,0,1,.05-.12.17.17,0,0,1,.13-.05h4.37a.21.21,0,0,1,.13.05.17.17,0,0,1,.05.12Z"/><path class="cls-2" d="M134.21,55.43a4.54,4.54,0,0,0-1.43.23c-.12,0-.18,0-.18-.15V55a.21.21,0,0,1,0-.14.42.42,0,0,1,.14-.09,3.94,3.94,0,0,1,.68-.21,4.13,4.13,0,0,1,.89-.09,2.41,2.41,0,0,1,1,.19,1.32,1.32,0,0,1,.63.58,1.84,1.84,0,0,1,.22.94V59.2a.26.26,0,0,1,0,.14.21.21,0,0,1-.1.06,6.23,6.23,0,0,1-.77.16,5.89,5.89,0,0,1-.92.06,3.92,3.92,0,0,1-1.19-.15,1.29,1.29,0,0,1-.69-.48,1.54,1.54,0,0,1-.23-.87v0a1.67,1.67,0,0,1,.12-.67,1,1,0,0,1,.36-.47,1.58,1.58,0,0,1,.64-.29,4.64,4.64,0,0,1,1-.09H135v-.4a.72.72,0,0,0-.18-.57A1,1,0,0,0,134.21,55.43ZM136,53.88s0,.06-.08.06h-.82a.15.15,0,0,1-.07,0l-.06-.06-.63-.72-.64.72a.91.91,0,0,1-.1.1l-.11,0h-.75c-.05,0-.07,0-.07-.06a.12.12,0,0,1,0-.09l.82-1.08.12-.11a.29.29,0,0,1,.12,0h1.16a.17.17,0,0,1,.12,0,.32.32,0,0,1,.11.1l.82,1.08A.12.12,0,0,1,136,53.88Zm-1,4.78V57.33h-.63a2.12,2.12,0,0,0-.6.07.41.41,0,0,0-.25.23,1,1,0,0,0-.07.42v.05a.81.81,0,0,0,.08.39.43.43,0,0,0,.28.18,1.93,1.93,0,0,0,.56.06A2.19,2.19,0,0,0,135,58.66Z"/><path class="cls-2" d="M140.76,59.36a.17.17,0,0,1,0,.14.17.17,0,0,1-.12,0h-.83a.14.14,0,0,1-.12-.06.17.17,0,0,1,0-.13v-3a1.73,1.73,0,0,0-.08-.57.55.55,0,0,0-.26-.3,1.22,1.22,0,0,0-.53-.1,2.22,2.22,0,0,0-.58.09v3.83a.17.17,0,0,1-.18.19h-.82a.18.18,0,0,1-.13-.06.21.21,0,0,1,0-.13V54.89q0-.12.18-.18a4.75,4.75,0,0,1,.82-.19,5.25,5.25,0,0,1,.82-.08,2.3,2.3,0,0,1,1.38.35,4.8,4.8,0,0,1,.73-.25,3.63,3.63,0,0,1,.78-.1,1.63,1.63,0,0,1,1.28.48,2.13,2.13,0,0,1,.44,1.48v3a.22.22,0,0,1,0,.14.21.21,0,0,1-.13,0h-.82a.15.15,0,0,1-.13-.06.17.17,0,0,1,0-.13v-3a2.1,2.1,0,0,0-.07-.57.54.54,0,0,0-.23-.3.94.94,0,0,0-.45-.1,1.92,1.92,0,0,0-.78.18,3.22,3.22,0,0,1,.08.78Z"/><path class="cls-2" d="M151.28,59.19a.36.36,0,0,1-.11.26.33.33,0,0,1-.25.1H150a.75.75,0,0,1-.33-.06.45.45,0,0,1-.22-.26l-2-4.36s-.05-.07-.09-.07,0,0,0,.07v4.5a.19.19,0,0,1-.05.13.17.17,0,0,1-.12,0h-.76a.18.18,0,0,1-.12,0,.18.18,0,0,1-.06-.13V53.26a.33.33,0,0,1,.1-.25.36.36,0,0,1,.26-.11h1a.43.43,0,0,1,.24.06.65.65,0,0,1,.16.23l2.08,4.6c0,.05,0,.07.07.07s0,0,0-.08V53.07a.13.13,0,0,1,.05-.12.17.17,0,0,1,.12-.05h.77a.17.17,0,0,1,.17.17Z"/><path class="cls-2" d="M156.27,57.39a2.52,2.52,0,0,1-.25,1.15,1.8,1.8,0,0,1-.72.8,2.56,2.56,0,0,1-2.33,0,1.77,1.77,0,0,1-.73-.8,2.66,2.66,0,0,1-.25-1.15v-.72a2.69,2.69,0,0,1,.25-1.15,1.74,1.74,0,0,1,.73-.79,2.49,2.49,0,0,1,2.33,0,1.78,1.78,0,0,1,.72.79,2.55,2.55,0,0,1,.25,1.15Zm-.48-3.51s0,.06-.09.06h-.82a.13.13,0,0,1-.06,0l-.07-.06-.63-.72-.64.72a.46.46,0,0,1-.1.1l-.11,0h-.74c-.06,0-.08,0-.08-.06a.12.12,0,0,1,0-.09l.82-1.08.12-.11a.29.29,0,0,1,.12,0h1.16a.17.17,0,0,1,.12,0,.32.32,0,0,1,.11.1l.82,1.08A.13.13,0,0,1,155.79,53.88Zm-.7,3.51v-.72a1.38,1.38,0,0,0-.25-.88.93.93,0,0,0-1.42,0,1.44,1.44,0,0,0-.25.88v.72a1.47,1.47,0,0,0,.25.89.86.86,0,0,0,.71.32.84.84,0,0,0,.71-.32A1.41,1.41,0,0,0,155.09,57.39Zm-.45,3.83a.14.14,0,0,1-.06.12.17.17,0,0,1-.13,0h-.64a.17.17,0,0,1-.13,0,.14.14,0,0,1-.06-.12v-.79a.18.18,0,0,1,.06-.13.21.21,0,0,1,.13,0h.64a.21.21,0,0,1,.13,0,.18.18,0,0,1,.06.13Z"/><path class="cls-2" d="M158.15,53.65a.17.17,0,0,1-.05.13.17.17,0,0,1-.13,0h-.87a.18.18,0,0,1-.13,0,.17.17,0,0,1-.05-.13v-.78a.21.21,0,0,1,.05-.13.24.24,0,0,1,.13-.05H158a.17.17,0,0,1,.18.18Zm0,5.71a.22.22,0,0,1-.05.14.19.19,0,0,1-.13,0h-.82a.18.18,0,0,1-.13-.06.21.21,0,0,1-.05-.13V54.68a.17.17,0,0,1,.18-.17h.82a.17.17,0,0,1,.13,0,.17.17,0,0,1,.05.13Z"/><path class="cls-2" d="M162.71,58.56a1.31,1.31,0,0,0,.82-.2.75.75,0,0,0,.24-.61.67.67,0,0,0-.15-.44,2.41,2.41,0,0,0-.59-.43l-1.18-.71a2.91,2.91,0,0,1-.64-.5,1.41,1.41,0,0,1-.33-.54,1.89,1.89,0,0,1-.09-.6,1.54,1.54,0,0,1,.52-1.24,2.44,2.44,0,0,1,1.66-.46,3.7,3.7,0,0,1,.87.11,2.57,2.57,0,0,1,.66.24.73.73,0,0,1,.15.11.19.19,0,0,1,0,.13V54c0,.15-.07.19-.22.13a4.22,4.22,0,0,0-.7-.17,4.17,4.17,0,0,0-.81-.09c-.62,0-.94.21-.94.62a.5.5,0,0,0,.15.37,3.08,3.08,0,0,0,.58.41l1.08.64a3,3,0,0,1,.73.56,1.62,1.62,0,0,1,.37.58,2,2,0,0,1,.11.67,1.93,1.93,0,0,1-.23.92,1.59,1.59,0,0,1-.74.68,2.86,2.86,0,0,1-1.33.27,3.53,3.53,0,0,1-1-.13,2.9,2.9,0,0,1-.64-.23l-.16-.11a.22.22,0,0,1,0-.13v-.6c0-.14.08-.19.23-.14A5.12,5.12,0,0,0,162.71,58.56Z"/><path class="cls-2" d="M169.84,57.39a2.66,2.66,0,0,1-.24,1.15,1.88,1.88,0,0,1-.73.8,2.56,2.56,0,0,1-2.33,0,1.88,1.88,0,0,1-.73-.8,2.66,2.66,0,0,1-.24-1.15v-.72a2.69,2.69,0,0,1,.24-1.15,1.86,1.86,0,0,1,.73-.79,2.49,2.49,0,0,1,2.33,0,1.86,1.86,0,0,1,.73.79,2.69,2.69,0,0,1,.24,1.15Zm-1.17,0v-.72a1.44,1.44,0,0,0-.25-.88.94.94,0,0,0-1.43,0,1.44,1.44,0,0,0-.24.88v.72a1.41,1.41,0,0,0,.25.89.84.84,0,0,0,.7.32.88.88,0,0,0,.72-.32A1.47,1.47,0,0,0,168.67,57.39Z"/><path class="cls-2" d="M171.72,53.65a.17.17,0,0,1-.05.13.17.17,0,0,1-.13,0h-.86a.17.17,0,0,1-.13,0,.15.15,0,0,1-.06-.13v-.78a.18.18,0,0,1,.06-.13.21.21,0,0,1,.13-.05h.86a.17.17,0,0,1,.18.18Zm0,5.71a.22.22,0,0,1,0,.14.21.21,0,0,1-.13,0h-.82a.15.15,0,0,1-.13-.06.17.17,0,0,1,0-.13V54.68a.13.13,0,0,1,0-.12.14.14,0,0,1,.13-.05h.82a.18.18,0,0,1,.13,0,.21.21,0,0,1,0,.13Z"/><path class="cls-2" d="M180.09,59.45c0,.07,0,.1-.1.1h-1a.18.18,0,0,1-.15-.07l-.34-.35a2.83,2.83,0,0,1-1.69.49,3.14,3.14,0,0,1-1.71-.42,1.42,1.42,0,0,1-.67-1.3v-.08a1.47,1.47,0,0,1,.15-.67,1.65,1.65,0,0,1,.4-.53,4.14,4.14,0,0,1,.68-.5L175.6,56a6.62,6.62,0,0,1-.56-.72,2,2,0,0,1-.24-.5,2,2,0,0,1-.05-.43v-.08a1.28,1.28,0,0,1,.23-.78,1.44,1.44,0,0,1,.69-.52,3.06,3.06,0,0,1,1.12-.18,2.86,2.86,0,0,1,.8.11,2.09,2.09,0,0,1,.6.29,1.24,1.24,0,0,1,.38.47,1.34,1.34,0,0,1,.14.61v.08a1.52,1.52,0,0,1-.35,1,4.25,4.25,0,0,1-1,.79l-.22.14,1.34,1.42a3.05,3.05,0,0,0,.23-1.28v-.1a.22.22,0,0,1,0-.13.17.17,0,0,1,.12,0h.65a.17.17,0,0,1,.12,0,.2.2,0,0,1,0,.13v.1a3.49,3.49,0,0,1-.53,2l.87.93A.12.12,0,0,1,180.09,59.45Zm-2.2-1-1.57-1.67a1.62,1.62,0,0,0-.52.45,1.06,1.06,0,0,0-.14.56v.08a.71.71,0,0,0,.32.63,1.4,1.4,0,0,0,.83.22A2.06,2.06,0,0,0,177.89,58.48Zm-.25-4.09v-.08a.65.65,0,0,0-.09-.35.58.58,0,0,0-.29-.21,1.53,1.53,0,0,0-1.19.09.51.51,0,0,0-.27.47v.08a1.37,1.37,0,0,0,0,.31A1,1,0,0,0,176,55a3.09,3.09,0,0,0,.41.47l.08.09.27-.16a2.81,2.81,0,0,0,.68-.52A.79.79,0,0,0,177.64,54.39Z"/><path class="cls-2" d="M185,59.62a2.8,2.8,0,0,1-.86-.13,2.23,2.23,0,0,1-.8-.43,2.26,2.26,0,0,1-.59-.85,3.41,3.41,0,0,1-.22-1.32V55.57a3.33,3.33,0,0,1,.36-1.68,2,2,0,0,1,.91-.83,3.17,3.17,0,0,1,1.2-.23,3.41,3.41,0,0,1,.65.07,4,4,0,0,1,.54.16,1.43,1.43,0,0,1,.28.12c.14.07.2.15.2.24V54c0,.15-.07.19-.22.13l-.41-.12a4.26,4.26,0,0,0-.49-.1,2.63,2.63,0,0,0-.47,0,1.44,1.44,0,0,0-.73.16.93.93,0,0,0-.42.52,2.64,2.64,0,0,0-.15,1v1.32a2.6,2.6,0,0,0,.15,1,1,1,0,0,0,.42.54,1.58,1.58,0,0,0,.73.16,3.69,3.69,0,0,0,.72-.08,6.46,6.46,0,0,0,.65-.19c.15-.06.22,0,.22.13V59c0,.09-.06.17-.2.25a3,3,0,0,1-.59.22A3.12,3.12,0,0,1,185,59.62Z"/><path class="cls-2" d="M191.44,59.36a.21.21,0,0,1-.05.13.18.18,0,0,1-.13.06h-.82a.18.18,0,0,1-.13-.06.21.21,0,0,1-.05-.13V56.42a2.29,2.29,0,0,0-.06-.61.44.44,0,0,0-.21-.28,1,1,0,0,0-.46-.09,2.34,2.34,0,0,0-1,.31v3.61a.22.22,0,0,1-.05.14.21.21,0,0,1-.13,0h-.82a.16.16,0,0,1-.13-.06.17.17,0,0,1-.05-.13V52.92a.18.18,0,0,1,.05-.12.18.18,0,0,1,.13-.06h.82a.17.17,0,0,1,.18.18v1.85a2.55,2.55,0,0,1,1.35-.33c1.07,0,1.6.66,1.6,2Z"/><path class="cls-2" d="M194,55.43a4.5,4.5,0,0,0-1.43.23c-.13,0-.19,0-.19-.15V55a.21.21,0,0,1,0-.14.49.49,0,0,1,.15-.09,3.68,3.68,0,0,1,.68-.21,4,4,0,0,1,.88-.09,2.43,2.43,0,0,1,1,.19,1.41,1.41,0,0,1,.63.58,2,2,0,0,1,.22.94V59.2a.41.41,0,0,1,0,.14.27.27,0,0,1-.11.06,5.56,5.56,0,0,1-.77.16,5.84,5.84,0,0,1-.91.06,4,4,0,0,1-1.2-.15,1.33,1.33,0,0,1-.69-.48,1.54,1.54,0,0,1-.22-.87v0a1.88,1.88,0,0,1,.11-.67,1,1,0,0,1,.36-.47,1.63,1.63,0,0,1,.65-.29,4.64,4.64,0,0,1,1-.09h.63v-.4a.69.69,0,0,0-.19-.57A.94.94,0,0,0,194,55.43Zm1.79-1.55s0,.06-.08.06h-.83a.13.13,0,0,1-.06,0l-.06-.06-.64-.72-.63.72-.1.1-.12,0h-.74c-.05,0-.08,0-.08-.06a.1.1,0,0,1,0-.09l.82-1.08.11-.11.12,0h1.17a.21.21,0,0,1,.12,0l.11.1.81,1.08A.1.1,0,0,1,195.81,53.88Zm-1,4.78V57.33h-.63a2.12,2.12,0,0,0-.6.07.43.43,0,0,0-.26.23,1.17,1.17,0,0,0-.06.42v.05a.71.71,0,0,0,.08.39.39.39,0,0,0,.27.18,2.05,2.05,0,0,0,.57.06A2.28,2.28,0,0,0,194.81,58.66Zm.87-7.38a1.74,1.74,0,0,0-.43.11.16.16,0,0,1-.19,0c-.05,0-.07-.06-.07-.09V51a.23.23,0,0,1,0-.09.5.5,0,0,1,.19-.12,1.91,1.91,0,0,1,.34-.1,3.24,3.24,0,0,1,.46,0,.76.76,0,0,1,.48.17.61.61,0,0,1,.22.53v0a1,1,0,0,1-.05.29,1.56,1.56,0,0,1-.24.35l-.24.29a.45.45,0,0,0-.07.07l-.06.08a.2.2,0,0,0,0,.08s0,.06,0,.08v.16s0,0-.05.07a.16.16,0,0,1-.14.05h-.33a.2.2,0,0,1-.14,0,.12.12,0,0,1,0-.08v-.16a.67.67,0,0,1,0-.3.94.94,0,0,1,.19-.29l.25-.29a.55.55,0,0,0,.11-.2.25.25,0,0,0,0-.18.17.17,0,0,0-.08-.1A.34.34,0,0,0,195.68,51.28Z"/><path class="cls-2" d="M200.9,59.36a.21.21,0,0,1-.05.13.18.18,0,0,1-.13.06h-.82a.18.18,0,0,1-.13-.06.21.21,0,0,1-.05-.13v-3a1.66,1.66,0,0,0-.08-.56.57.57,0,0,0-.28-.31,1.28,1.28,0,0,0-.53-.1,4.66,4.66,0,0,0-.88.1v3.82a.22.22,0,0,1,0,.14.21.21,0,0,1-.13,0H197a.16.16,0,0,1-.13-.06.21.21,0,0,1,0-.13V54.89q0-.14.18-.18a6.8,6.8,0,0,1,1-.19,6.64,6.64,0,0,1,1-.08,2.21,2.21,0,0,1,1.55.47,2,2,0,0,1,.49,1.49Z"/><path class="cls-2" d="M208.67,56.89a3.5,3.5,0,0,1-.19,1.17,2.4,2.4,0,0,1-.55.86,2.34,2.34,0,0,1-.88.52,3.63,3.63,0,0,1-1.19.18h-.51l-.51,0-.44,0-.3,0a.3.3,0,0,1-.17-.09.25.25,0,0,1-.06-.19V56.63h-.52a.17.17,0,0,1-.13-.05.16.16,0,0,1,0-.12v-.67a.14.14,0,0,1,0-.11.21.21,0,0,1,.13,0h.52V53.22a.28.28,0,0,1,.06-.2.3.3,0,0,1,.17-.08l.3,0,.44,0,.51,0h.51a3.63,3.63,0,0,1,1.19.18,2.36,2.36,0,0,1,.88.53,2.31,2.31,0,0,1,.55.86,3.5,3.5,0,0,1,.19,1.17Zm-1.24-1.32a2.47,2.47,0,0,0-.12-.83,1.29,1.29,0,0,0-.33-.52,1.16,1.16,0,0,0-.5-.27,3,3,0,0,0-.62-.07h-.43l-.32,0v1.72h.63a.21.21,0,0,1,.13,0,.14.14,0,0,1,0,.11v.67a.16.16,0,0,1,0,.12.17.17,0,0,1-.13.05h-.63v1.92l.32,0h.43a2.45,2.45,0,0,0,.62-.08,1.16,1.16,0,0,0,.5-.27,1.25,1.25,0,0,0,.33-.51,2.47,2.47,0,0,0,.12-.83Z"/><path class="cls-2" d="M213.51,57.39a2.52,2.52,0,0,1-.25,1.15,1.8,1.8,0,0,1-.72.8,2.56,2.56,0,0,1-2.33,0,1.77,1.77,0,0,1-.73-.8,2.52,2.52,0,0,1-.25-1.15v-.72a2.55,2.55,0,0,1,.25-1.15,1.74,1.74,0,0,1,.73-.79,2.49,2.49,0,0,1,2.33,0,1.78,1.78,0,0,1,.72.79,2.55,2.55,0,0,1,.25,1.15Zm-1.18,0v-.72a1.38,1.38,0,0,0-.25-.88.93.93,0,0,0-1.42,0,1.44,1.44,0,0,0-.25.88v.72a1.47,1.47,0,0,0,.25.89.86.86,0,0,0,.71.32.84.84,0,0,0,.71-.32A1.41,1.41,0,0,0,212.33,57.39Z"/><path class="cls-2" d="M216,55.43a4.54,4.54,0,0,0-1.43.23c-.12,0-.18,0-.18-.15V55a.21.21,0,0,1,0-.14.42.42,0,0,1,.14-.09,3.94,3.94,0,0,1,.68-.21,4.13,4.13,0,0,1,.89-.09,2.41,2.41,0,0,1,1,.19,1.41,1.41,0,0,1,.63.58,1.84,1.84,0,0,1,.22.94V59.2a.41.41,0,0,1,0,.14.21.21,0,0,1-.1.06,6.23,6.23,0,0,1-.77.16,6,6,0,0,1-.92.06,4,4,0,0,1-1.2-.15,1.3,1.3,0,0,1-.68-.48,1.54,1.54,0,0,1-.23-.87v0a1.88,1.88,0,0,1,.11-.67,1.07,1.07,0,0,1,.37-.47,1.58,1.58,0,0,1,.64-.29,4.64,4.64,0,0,1,1-.09h.63v-.4a.72.72,0,0,0-.18-.57A1,1,0,0,0,216,55.43Zm.79,3.23V57.33h-.63a2.12,2.12,0,0,0-.6.07.41.41,0,0,0-.25.23,1,1,0,0,0-.07.42v.05a.81.81,0,0,0,.08.39.43.43,0,0,0,.28.18,1.93,1.93,0,0,0,.56.06A2.19,2.19,0,0,0,216.74,58.66Zm.79-6a.08.08,0,0,1,0,.07l-1.05,1.11-.1.09a.17.17,0,0,1-.12,0h-.77s-.07,0-.07-.06a.12.12,0,0,1,0-.09l.85-1.08c.05-.05.08-.09.11-.1a.21.21,0,0,1,.12,0h.94C217.5,52.58,217.53,52.6,217.53,52.64Z"/><path class="cls-2" d="M222.84,59.36a.18.18,0,0,1-.06.13.16.16,0,0,1-.12.06h-.83a.14.14,0,0,1-.12-.06.17.17,0,0,1-.05-.13v-3a1.42,1.42,0,0,0-.09-.56.52.52,0,0,0-.27-.31,1.3,1.3,0,0,0-.54-.1,4.75,4.75,0,0,0-.88.1v3.82a.17.17,0,0,1-.18.19h-.82a.18.18,0,0,1-.13-.06.21.21,0,0,1-.05-.13V54.89q0-.14.18-.18a6.8,6.8,0,0,1,1-.19,6.65,6.65,0,0,1,1-.08,2.18,2.18,0,0,1,1.54.47,2,2,0,0,1,.5,1.49Z"/><path class="cls-2" d="M230.4,57.69a1.8,1.8,0,0,1-.33,1.12,1.75,1.75,0,0,1-.93.62,4.79,4.79,0,0,1-1.46.19,8.48,8.48,0,0,1-1.55-.1.51.51,0,0,1-.33-.14.46.46,0,0,1-.1-.34V53.4a.6.6,0,0,1,0-.25.28.28,0,0,1,.13-.15.56.56,0,0,1,.23-.08l.62-.06c.27,0,.56,0,.88,0a5.56,5.56,0,0,1,1.14.1,2.59,2.59,0,0,1,.85.31,1.5,1.5,0,0,1,.56.56,1.65,1.65,0,0,1,.2.85v.18a1.73,1.73,0,0,1-.09.56,1.31,1.31,0,0,1-.28.47,1.23,1.23,0,0,1-.45.32,1.32,1.32,0,0,1,.64.52,1.51,1.51,0,0,1,.23.84Zm-1.25-2.84v-.13a.76.76,0,0,0-.15-.5.86.86,0,0,0-.49-.28,4.37,4.37,0,0,0-.91-.08l-.65,0v1.81h1.13a1.13,1.13,0,0,0,.82-.23A.78.78,0,0,0,229.15,54.85Zm0,2.82v-.12a.92.92,0,0,0-.26-.68,1.16,1.16,0,0,0-.84-.26H227v2h.73a2.36,2.36,0,0,0,1.17-.21A.79.79,0,0,0,229.18,57.67Z"/><path class="cls-2" d="M233.2,59.62a2.88,2.88,0,0,1-1.08-.21,1.87,1.87,0,0,1-.85-.71,2.27,2.27,0,0,1-.35-1.32v-.66a2.73,2.73,0,0,1,.26-1.21,1.7,1.7,0,0,1,.73-.79,2.34,2.34,0,0,1,1.16-.28,2.21,2.21,0,0,1,1.15.29,1.77,1.77,0,0,1,.73.8,2.64,2.64,0,0,1,.25,1.19v.49c0,.15-.06.23-.18.23H232.1v0a1.28,1.28,0,0,0,.26.82,1.14,1.14,0,0,0,.94.31,4.75,4.75,0,0,0,.81-.07,5,5,0,0,0,.71-.17c.13,0,.19,0,.19.14V59a.21.21,0,0,1,0,.14.49.49,0,0,1-.15.09,2.9,2.9,0,0,1-.71.25A3.49,3.49,0,0,1,233.2,59.62Zm1.52-5.74s0,.06-.08.06h-.82a.15.15,0,0,1-.07,0l-.06-.06-.63-.72-.64.72a.91.91,0,0,1-.1.1l-.11,0h-.74c-.06,0-.08,0-.08-.06a.12.12,0,0,1,0-.09l.82-1.08.12-.11a.29.29,0,0,1,.12,0h1.16a.17.17,0,0,1,.12,0,.32.32,0,0,1,.11.1l.82,1.08A.12.12,0,0,1,234.72,53.88ZM234,56.6v0a1.18,1.18,0,0,0-.25-.82.91.91,0,0,0-.69-.28,1,1,0,0,0-.5.12.88.88,0,0,0-.34.37,1.38,1.38,0,0,0-.12.61v0Zm-.51,4.62a.14.14,0,0,1-.06.12.17.17,0,0,1-.13,0h-.64a.17.17,0,0,1-.13,0,.14.14,0,0,1-.06-.12v-.79a.18.18,0,0,1,.06-.13.21.21,0,0,1,.13,0h.64a.21.21,0,0,1,.13,0,.18.18,0,0,1,.06.13Z"/><path class="cls-2" d="M240,59.36a.18.18,0,0,1-.06.13.14.14,0,0,1-.12.06H239a.15.15,0,0,1-.13-.06.21.21,0,0,1,0-.13v-3a1.66,1.66,0,0,0-.08-.56.57.57,0,0,0-.28-.31,1.3,1.3,0,0,0-.54-.1,4.65,4.65,0,0,0-.87.1v3.82a.22.22,0,0,1-.05.14.21.21,0,0,1-.13,0H236a.15.15,0,0,1-.13-.06.17.17,0,0,1-.05-.13V54.89q0-.14.18-.18a6.38,6.38,0,0,1,.95-.19,6.77,6.77,0,0,1,1-.08,2.21,2.21,0,0,1,1.55.47A2,2,0,0,1,240,56.4Z"/><path class="cls-2" d="M244.89,59.36a.21.21,0,0,1,0,.13.18.18,0,0,1-.13.06h-.82a.18.18,0,0,1-.13-.06.21.21,0,0,1,0-.13V56.42a2.29,2.29,0,0,0-.06-.61.44.44,0,0,0-.21-.28,1,1,0,0,0-.46-.09,2.37,2.37,0,0,0-1,.31v3.61a.22.22,0,0,1-.05.14.19.19,0,0,1-.13,0h-.82a.16.16,0,0,1-.13-.06.21.21,0,0,1-.05-.13V52.92a.18.18,0,0,1,.05-.12.18.18,0,0,1,.13-.06h.82a.17.17,0,0,1,.18.18v1.85a2.55,2.55,0,0,1,1.35-.33c1.07,0,1.6.66,1.6,2Z"/><path class="cls-2" d="M251.52,59.31c0,.06,0,.11,0,.13a.2.2,0,0,1-.14.06,4.67,4.67,0,0,1-.7.08c-.33,0-.6,0-.82,0a3.5,3.5,0,0,1-1.09-.15,1.34,1.34,0,0,1-.71-.55,2,2,0,0,1-.26-1.13V53.08a.21.21,0,0,1,.05-.12.18.18,0,0,1,.13-.06h.88A.18.18,0,0,1,249,53a.21.21,0,0,1,.05.12v4.71a.9.9,0,0,0,.15.6.72.72,0,0,0,.55.17h1.64a.17.17,0,0,1,.13,0,.14.14,0,0,1,.05.13Z"/><path class="cls-2" d="M256.21,54.66a.07.07,0,0,1,0,.05l-1.49,5.23a3.62,3.62,0,0,1-.34.82,1.24,1.24,0,0,1-.54.44,2.72,2.72,0,0,1-1,.14l-.5,0a2.79,2.79,0,0,1-.44-.09c-.13,0-.19-.08-.19-.15V60.5a.16.16,0,0,1,.05-.11.17.17,0,0,1,.13,0h0l.5,0c.25,0,.42,0,.5,0a1,1,0,0,0,.33,0,.5.5,0,0,0,.23-.18,1,1,0,0,0,.15-.35l.07-.27h-.13a.71.71,0,0,1-.29,0,.62.62,0,0,1-.27-.21,1.34,1.34,0,0,1-.22-.48l-1.17-4.1a.13.13,0,0,1,0-.06c0-.1.06-.14.17-.14h.9a.14.14,0,0,1,.11,0,.16.16,0,0,1,.06.12l.91,3.64c0,.13.07.19.12.19H254l1-3.84a.17.17,0,0,1,.18-.15h.91a.15.15,0,0,1,.11,0A.13.13,0,0,1,256.21,54.66Zm-.7-2a.09.09,0,0,1,0,.07l-1,1.11-.1.09a.21.21,0,0,1-.12,0h-.77c-.05,0-.08,0-.08-.06a.1.1,0,0,1,0-.09l.85-1.08a.32.32,0,0,1,.11-.1.17.17,0,0,1,.12,0h.94Q255.51,52.58,255.51,52.64Z"/><path class="cls-2" d="M263.13,53.78a.14.14,0,0,1-.06.12.16.16,0,0,1-.12,0h-1.57v5.43a.15.15,0,0,1-.05.13.18.18,0,0,1-.12,0h-.89a.17.17,0,0,1-.12,0,.18.18,0,0,1-.06-.13V53.94h-1.56a.18.18,0,0,1-.13,0,.13.13,0,0,1-.05-.12v-.71a.16.16,0,0,1,.05-.12.17.17,0,0,1,.13-.05H263a.21.21,0,0,1,.13.05.17.17,0,0,1,.05.12Z"/><path class="cls-2" d="M264.52,53.65a.17.17,0,0,1,0,.13.17.17,0,0,1-.13,0h-.86a.17.17,0,0,1-.13,0,.15.15,0,0,1-.06-.13v-.78a.18.18,0,0,1,.06-.13.21.21,0,0,1,.13-.05h.86a.17.17,0,0,1,.18.18Zm0,5.71a.17.17,0,0,1-.05.14.17.17,0,0,1-.12,0h-.83a.18.18,0,0,1-.13-.06.21.21,0,0,1-.05-.13V54.68a.17.17,0,0,1,.18-.17h.83a.15.15,0,0,1,.17.17Z"/><path class="cls-2" d="M267.45,59.62a2.81,2.81,0,0,1-1.08-.21,1.84,1.84,0,0,1-.86-.71,2.27,2.27,0,0,1-.35-1.32v-.66a2.73,2.73,0,0,1,.26-1.21,1.7,1.7,0,0,1,.73-.79,2.37,2.37,0,0,1,1.16-.28,2.27,2.27,0,0,1,1.16.29,1.88,1.88,0,0,1,.73.8,2.78,2.78,0,0,1,.24,1.19v.49c0,.15-.06.23-.18.23h-2.92v0a1.28,1.28,0,0,0,.26.82,1.15,1.15,0,0,0,.94.31,4.75,4.75,0,0,0,.81-.07,5.53,5.53,0,0,0,.72-.17c.12,0,.18,0,.18.14V59a.21.21,0,0,1,0,.14.56.56,0,0,1-.14.09,3.16,3.16,0,0,1-.72.25A3.41,3.41,0,0,1,267.45,59.62ZM269,53.88s0,.06-.09.06h-.82a.13.13,0,0,1-.06,0l-.06-.06-.64-.72-.64.72-.1.1-.11,0h-.74c-.06,0-.08,0-.08-.06a.12.12,0,0,1,0-.09l.82-1.08.12-.11.12,0h1.16a.17.17,0,0,1,.12,0,.32.32,0,0,1,.11.1l.82,1.08A.13.13,0,0,1,269,53.88Zm-.72,2.72v0a1.18,1.18,0,0,0-.25-.82.91.91,0,0,0-.69-.28,1,1,0,0,0-.5.12.8.8,0,0,0-.33.37,1.25,1.25,0,0,0-.13.61v0Z"/><path class="cls-2" d="M270.09,54.69a.24.24,0,0,1,.05-.13.15.15,0,0,1,.13-.05h.82a.17.17,0,0,1,.13.05.21.21,0,0,1,0,.13v3a1.89,1.89,0,0,0,0,.44.62.62,0,0,0,.15.29.64.64,0,0,0,.27.18,1.69,1.69,0,0,0,.43,0,3.71,3.71,0,0,0,.88-.1V54.69a.24.24,0,0,1,0-.13.17.17,0,0,1,.13-.05H274a.17.17,0,0,1,.13.05.24.24,0,0,1,.05.13v4.48q0,.12-.18.18a7.92,7.92,0,0,1-1,.19,6.32,6.32,0,0,1-.94.07,3,3,0,0,1-.91-.11,1.49,1.49,0,0,1-.63-.35,1.41,1.41,0,0,1-.38-.61,2.84,2.84,0,0,1-.12-.88Z"/><path class="cls-2" d="M282.11,59.37a.15.15,0,0,1-.05.13.19.19,0,0,1-.13,0h-.88a.17.17,0,0,1-.18-.18V56.63h-2.54v2.74a.18.18,0,0,1-.06.13.18.18,0,0,1-.12,0h-.89a.21.21,0,0,1-.12,0,.18.18,0,0,1-.06-.13v-6.3a.17.17,0,0,1,.06-.12.21.21,0,0,1,.12-.05h.89a.21.21,0,0,1,.13.05.21.21,0,0,1,.05.12v2.47h2.54V53.07a.21.21,0,0,1,.05-.12.21.21,0,0,1,.13-.05h.88a.17.17,0,0,1,.13.05.13.13,0,0,1,.05.12Z"/><path class="cls-2" d="M287.11,57.39a2.66,2.66,0,0,1-.25,1.15,1.88,1.88,0,0,1-.73.8,2.56,2.56,0,0,1-2.33,0,1.88,1.88,0,0,1-.73-.8,2.66,2.66,0,0,1-.24-1.15v-.72a2.69,2.69,0,0,1,.24-1.15,1.86,1.86,0,0,1,.73-.79,2.49,2.49,0,0,1,2.33,0,1.86,1.86,0,0,1,.73.79,2.69,2.69,0,0,1,.25,1.15Zm-1.18,0v-.72a1.44,1.44,0,0,0-.25-.88.84.84,0,0,0-.72-.33.82.82,0,0,0-.7.33,1.38,1.38,0,0,0-.25.88v.72a1.41,1.41,0,0,0,.25.89.84.84,0,0,0,.7.32.88.88,0,0,0,.72-.32A1.47,1.47,0,0,0,285.93,57.39Zm.42-4.75a.1.1,0,0,1,0,.07l-1.05,1.11-.1.09a.21.21,0,0,1-.12,0h-.77s-.08,0-.08-.06a.1.1,0,0,1,0-.09l.85-1.08a.32.32,0,0,1,.11-.1.17.17,0,0,1,.12,0h.94C286.31,52.58,286.35,52.6,286.35,52.64Z"/><path class="cls-2" d="M289.55,55.43a4.5,4.5,0,0,0-1.43.23c-.13,0-.19,0-.19-.15V55a.21.21,0,0,1,0-.14.49.49,0,0,1,.15-.09,3.68,3.68,0,0,1,.68-.21,4,4,0,0,1,.88-.09,2.43,2.43,0,0,1,1,.19,1.41,1.41,0,0,1,.63.58,2,2,0,0,1,.22.94V59.2a.41.41,0,0,1,0,.14.27.27,0,0,1-.11.06,5.56,5.56,0,0,1-.77.16,5.84,5.84,0,0,1-.91.06,4,4,0,0,1-1.2-.15,1.33,1.33,0,0,1-.69-.48,1.54,1.54,0,0,1-.22-.87v0a1.88,1.88,0,0,1,.11-.67,1,1,0,0,1,.36-.47,1.63,1.63,0,0,1,.65-.29,4.64,4.64,0,0,1,1-.09h.63v-.4a.69.69,0,0,0-.19-.57A.94.94,0,0,0,289.55,55.43Zm.79,3.23V57.33h-.63a2.12,2.12,0,0,0-.6.07.43.43,0,0,0-.26.23,1.17,1.17,0,0,0-.06.42v.05a.71.71,0,0,0,.08.39.39.39,0,0,0,.27.18,2.05,2.05,0,0,0,.57.06A2.28,2.28,0,0,0,290.34,58.66Z"/></svg>