<svg width="187" height="37" viewBox="0 0 187 37" fill="none" xmlns="http://www.w3.org/2000/svg">
<path d="M28.0808 31.5393C28.6773 32.2941 28.553 33.3975 27.7441 33.9183C25.4109 35.4205 22.7547 36.3673 19.981 36.6745C16.6284 37.0457 13.239 36.4674 10.1991 35.0056C7.15927 33.5438 4.59133 31.2572 2.78809 28.4066C0.98484 25.5559 0.0188575 22.256 0.000273202 18.883C-0.0183111 15.5099 0.911251 12.1995 2.68298 9.32924C4.4547 6.45892 6.99729 4.14419 10.0209 2.64895C13.0444 1.15371 16.4273 0.538132 19.7838 0.872402C22.5607 1.14895 25.2271 2.06645 27.5767 3.54284C28.3913 4.05469 28.5278 5.15669 27.9396 5.918L24.5251 10.3377C23.937 11.099 22.8477 11.2214 21.9869 10.7919C21.0202 10.3097 19.9696 10.0046 18.8851 9.89664C17.2197 9.73078 15.5412 10.0362 14.041 10.7781C12.5407 11.52 11.2792 12.6685 10.4001 14.0927C9.52101 15.5169 9.05979 17.1594 9.06901 18.833C9.07823 20.5066 9.55753 22.144 10.4522 23.5584C11.347 24.9728 12.6211 26.1073 14.1294 26.8326C15.6377 27.5579 17.3195 27.8449 18.9829 27.6607C20.0662 27.5407 21.1134 27.2241 22.0747 26.7312C22.9308 26.2923 24.0213 26.4027 24.6178 27.1575L28.0808 31.5393Z" fill="#F9B632"/>
<path d="M30.3949 8.26277C31.1283 7.64021 32.2355 7.72588 32.7843 8.51605C34.7729 11.3793 35.8946 14.7704 35.9929 18.28C36.0911 21.7897 35.1608 25.2382 33.3355 28.2082C32.8318 29.0278 31.7312 29.1753 30.964 28.5948L30.4968 28.2412C29.7297 27.6606 29.5892 26.5725 30.0695 25.7389C31.3489 23.5188 31.997 20.9778 31.9247 18.3939C31.8523 15.8101 31.0631 13.3093 29.6616 11.1642C29.1353 10.3588 29.2147 9.26452 29.9482 8.64196L30.3949 8.26277Z" fill="#03566E"/>
<circle cx="17.9999" cy="18.7839" r="4.4" fill="#F9B632"/>
<path d="M27.3256 11.8201C27.8395 11.4363 28.5722 11.5394 28.9078 12.086C30.1438 14.0988 30.8028 16.4218 30.8 18.7989C30.7972 21.176 30.1327 23.4974 28.892 25.5074C28.5551 26.0531 27.8221 26.1545 27.3091 25.7695L26.1526 24.9017C25.6396 24.5167 25.5433 23.7917 25.8593 23.2336C26.6227 21.8852 27.0297 20.3569 27.0315 18.7945C27.0333 17.232 26.6299 15.7028 25.8697 14.3526C25.555 13.7938 25.6531 13.069 26.167 12.6852L27.3256 11.8201Z" fill="#03566E"/>
<path d="M50.0938 19.9935H45.3035V6.48026H50.1334C51.4927 6.48026 52.6628 6.75079 53.6437 7.29184C54.6246 7.8285 55.379 8.60049 55.9069 9.60782C56.4391 10.6152 56.7053 11.8204 56.7053 13.2237C56.7053 14.6313 56.4391 15.841 55.9069 16.8527C55.379 17.8644 54.6202 18.6408 53.6305 19.1819C52.6452 19.7229 51.4663 19.9935 50.0938 19.9935ZM48.1606 17.5455H49.9751C50.8196 17.5455 51.5301 17.3959 52.1063 17.0968C52.6869 16.7933 53.1224 16.3248 53.4128 15.6914C53.7075 15.0536 53.8548 14.231 53.8548 13.2237C53.8548 12.2251 53.7075 11.4091 53.4128 10.7757C53.1224 10.1423 52.6891 9.67601 52.1129 9.37688C51.5367 9.07777 50.8262 8.92821 49.9817 8.92821H48.1606V17.5455ZM63.3481 20.1914C62.3231 20.1914 61.4368 19.9737 60.689 19.5382C59.9456 19.0983 59.3715 18.4869 58.9668 17.7039C58.5621 16.9165 58.3598 16.0037 58.3598 14.9656C58.3598 13.9187 58.5621 13.0037 58.9668 12.2207C59.3715 11.4333 59.9456 10.8219 60.689 10.3864C61.4368 9.94653 62.3231 9.72659 63.3481 9.72659C64.373 9.72659 65.2571 9.94653 66.0005 10.3864C66.7483 10.8219 67.3246 11.4333 67.7293 12.2207C68.134 13.0037 68.3363 13.9187 68.3363 14.9656C68.3363 16.0037 68.134 16.9165 67.7293 17.7039C67.3246 18.4869 66.7483 19.0983 66.0005 19.5382C65.2571 19.9737 64.373 20.1914 63.3481 20.1914ZM63.3612 18.014C63.8275 18.014 64.2168 17.882 64.5291 17.6181C64.8415 17.3498 65.0768 16.9847 65.2351 16.5228C65.3979 16.0609 65.4793 15.5352 65.4793 14.9458C65.4793 14.3564 65.3979 13.8307 65.2351 13.3688C65.0768 12.9069 64.8415 12.5418 64.5291 12.2735C64.2168 12.0052 63.8275 11.871 63.3612 11.871C62.8906 11.871 62.4947 12.0052 62.1736 12.2735C61.8569 12.5418 61.6171 12.9069 61.4544 13.3688C61.296 13.8307 61.2168 14.3564 61.2168 14.9458C61.2168 15.5352 61.296 16.0609 61.4544 16.5228C61.6171 16.9847 61.8569 17.3498 62.1736 17.6181C62.4947 17.882 62.8906 18.014 63.3612 18.014ZM74.7432 20.1914C73.7051 20.1914 72.8121 19.9715 72.0643 19.5316C71.3209 19.0873 70.7491 18.4715 70.3488 17.6841C69.9529 16.8967 69.7549 15.9905 69.7549 14.9656C69.7549 13.9275 69.9551 13.0169 70.3554 12.2339C70.7601 11.4465 71.3341 10.8329 72.0775 10.393C72.8209 9.94873 73.7051 9.72659 74.73 9.72659C75.6142 9.72659 76.3884 9.88715 77.0526 10.2083C77.7168 10.5294 78.2425 10.9803 78.6296 11.5609C79.0167 12.1415 79.23 12.8234 79.2696 13.6064H76.6171C76.5423 13.1005 76.3444 12.6936 76.0233 12.3857C75.7066 12.0734 75.2909 11.9172 74.7762 11.9172C74.3407 11.9172 73.9602 12.036 73.6347 12.2735C73.3136 12.5067 73.0629 12.8476 72.8825 13.2962C72.7022 13.7449 72.612 14.2882 72.612 14.926C72.612 15.5726 72.7 16.1225 72.8759 16.5756C73.0563 17.0286 73.3092 17.374 73.6347 17.6115C73.9602 17.849 74.3407 17.9678 74.7762 17.9678C75.0973 17.9678 75.3854 17.9018 75.6406 17.7698C75.9001 17.6379 76.1134 17.4465 76.2806 17.1958C76.4522 16.9407 76.5643 16.6349 76.6171 16.2786H79.2696C79.2256 17.0528 79.0145 17.7347 78.6362 18.3241C78.2623 18.9091 77.7454 19.3666 77.0856 19.6965C76.4258 20.0264 75.645 20.1914 74.7432 20.1914ZM86.46 9.85856V11.97H80.3567V9.85856H86.46ZM81.7423 7.4304H84.5531V16.8791C84.5531 17.1386 84.5927 17.341 84.6719 17.4861C84.7511 17.6269 84.8611 17.7259 85.0018 17.783C85.147 17.8402 85.3141 17.8688 85.5033 17.8688C85.6353 17.8688 85.7672 17.8578 85.8992 17.8358C86.0312 17.8094 86.1323 17.7896 86.2027 17.7764L86.6448 19.8681C86.504 19.9121 86.3061 19.9627 86.0509 20.0198C85.7958 20.0814 85.4857 20.1188 85.1206 20.132C84.4432 20.1584 83.8493 20.0682 83.3391 19.8615C82.8332 19.6547 82.4395 19.3336 82.158 18.8981C81.8765 18.4627 81.7379 17.9128 81.7423 17.2486V7.4304ZM92.7614 20.1914C91.7364 20.1914 90.8501 19.9737 90.1023 19.5382C89.3589 19.0983 88.7848 18.4869 88.3801 17.7039C87.9754 16.9165 87.7731 16.0037 87.7731 14.9656C87.7731 13.9187 87.9754 13.0037 88.3801 12.2207C88.7848 11.4333 89.3589 10.8219 90.1023 10.3864C90.8501 9.94653 91.7364 9.72659 92.7614 9.72659C93.7863 9.72659 94.6704 9.94653 95.4139 10.3864C96.1617 10.8219 96.7379 11.4333 97.1426 12.2207C97.5473 13.0037 97.7496 13.9187 97.7496 14.9656C97.7496 16.0037 97.5473 16.9165 97.1426 17.7039C96.7379 18.4869 96.1617 19.0983 95.4139 19.5382C94.6704 19.9737 93.7863 20.1914 92.7614 20.1914ZM92.7746 18.014C93.2408 18.014 93.6301 17.882 93.9424 17.6181C94.2548 17.3498 94.4901 16.9847 94.6485 16.5228C94.8112 16.0609 94.8926 15.5352 94.8926 14.9458C94.8926 14.3564 94.8112 13.8307 94.6485 13.3688C94.4901 12.9069 94.2548 12.5418 93.9424 12.2735C93.6301 12.0052 93.2408 11.871 92.7746 11.871C92.3039 11.871 91.908 12.0052 91.5869 12.2735C91.2702 12.5418 91.0304 12.9069 90.8677 13.3688C90.7093 13.8307 90.6301 14.3564 90.6301 14.9458C90.6301 15.5352 90.7093 16.0609 90.8677 16.5228C91.0304 16.9847 91.2702 17.3498 91.5869 17.6181C91.908 17.882 92.3039 18.014 92.7746 18.014ZM99.5773 19.9935V9.85856H102.302V11.6269H102.408C102.593 10.9979 102.903 10.5228 103.338 10.2017C103.774 9.87615 104.275 9.7134 104.843 9.7134C104.983 9.7134 105.135 9.72219 105.298 9.73979C105.461 9.75738 105.604 9.78158 105.727 9.81237V12.3065C105.595 12.2669 105.412 12.2317 105.179 12.2009C104.946 12.1701 104.733 12.1547 104.539 12.1547C104.126 12.1547 103.756 12.2449 103.431 12.4253C103.11 12.6012 102.854 12.8476 102.665 13.1643C102.481 13.481 102.388 13.8461 102.388 14.2596V19.9935H99.5773ZM123.456 11.2112H120.566C120.514 10.8373 120.406 10.5052 120.243 10.2149C120.08 9.92014 119.871 9.66941 119.616 9.46266C119.361 9.25592 119.066 9.09756 118.732 8.98759C118.402 8.87762 118.044 8.82263 117.657 8.82263C116.957 8.82263 116.348 8.99639 115.829 9.34389C115.31 9.687 114.907 10.1885 114.621 10.8483C114.335 11.5037 114.192 12.2999 114.192 13.2369C114.192 14.2002 114.335 15.0096 114.621 15.665C114.912 16.3204 115.316 16.8153 115.835 17.1496C116.354 17.4839 116.955 17.6511 117.637 17.6511C118.019 17.6511 118.374 17.6005 118.699 17.4993C119.029 17.3981 119.321 17.2508 119.577 17.0572C119.832 16.8593 120.043 16.6196 120.21 16.338C120.382 16.0565 120.5 15.7354 120.566 15.3747L123.456 15.3879C123.382 16.0081 123.195 16.6064 122.896 17.1826C122.601 17.7545 122.203 18.2669 121.701 18.72C121.204 19.1687 120.61 19.525 119.92 19.7889C119.233 20.0484 118.457 20.1782 117.591 20.1782C116.385 20.1782 115.308 19.9055 114.357 19.36C113.412 18.8146 112.664 18.025 112.114 16.9913C111.569 15.9575 111.296 14.7061 111.296 13.2369C111.296 11.7632 111.573 10.5096 112.127 9.47586C112.681 8.44213 113.434 7.65474 114.384 7.11369C115.334 6.56823 116.403 6.29551 117.591 6.29551C118.374 6.29551 119.099 6.40548 119.768 6.62542C120.441 6.84536 121.037 7.16647 121.556 7.58876C122.075 8.00665 122.497 8.51911 122.823 9.12615C123.153 9.73319 123.364 10.4282 123.456 11.2112ZM128.263 14.1342V19.9935H125.452V6.48026H128.184V11.6467H128.303C128.532 11.0484 128.901 10.58 129.411 10.2413C129.922 9.89815 130.562 9.72659 131.331 9.72659C132.035 9.72659 132.649 9.88055 133.172 10.1885C133.7 10.492 134.109 10.9297 134.4 11.5015C134.694 12.069 134.839 12.7486 134.835 13.5404V19.9935H132.024V14.0418C132.029 13.4172 131.87 12.9311 131.549 12.5836C131.232 12.2361 130.788 12.0624 130.216 12.0624C129.834 12.0624 129.495 12.1437 129.2 12.3065C128.91 12.4693 128.681 12.7068 128.514 13.0191C128.351 13.327 128.268 13.6987 128.263 14.1342ZM141.666 20.1914C140.623 20.1914 139.726 19.9803 138.974 19.558C138.226 19.1313 137.65 18.5286 137.245 17.7501C136.84 16.9671 136.638 16.0411 136.638 14.9722C136.638 13.9297 136.84 13.0147 137.245 12.2273C137.65 11.4399 138.219 10.8263 138.954 10.3864C139.693 9.94653 140.56 9.72659 141.554 9.72659C142.222 9.72659 142.845 9.83436 143.421 10.0499C144.002 10.261 144.508 10.58 144.939 11.0067C145.374 11.4333 145.713 11.97 145.955 12.6166C146.197 13.2588 146.318 14.011 146.318 14.8732V15.6452H137.76V13.9033H143.672C143.672 13.4986 143.584 13.1401 143.408 12.8278C143.232 12.5154 142.988 12.2713 142.675 12.0954C142.367 11.915 142.009 11.8248 141.6 11.8248C141.173 11.8248 140.795 11.9238 140.465 12.1218C140.139 12.3153 139.884 12.577 139.7 12.9069C139.515 13.2325 139.42 13.5954 139.416 13.9957V15.6518C139.416 16.1533 139.508 16.5866 139.693 16.9517C139.882 17.3168 140.148 17.5983 140.491 17.7962C140.834 17.9942 141.241 18.0932 141.712 18.0932C142.024 18.0932 142.31 18.0492 142.57 17.9612C142.829 17.8732 143.051 17.7413 143.236 17.5653C143.421 17.3893 143.562 17.1738 143.659 16.9187L146.258 17.0902C146.126 17.7149 145.856 18.2603 145.447 18.7266C145.042 19.1885 144.519 19.5492 143.876 19.8087C143.238 20.0638 142.502 20.1914 141.666 20.1914ZM152.731 20.1914C151.693 20.1914 150.8 19.9715 150.052 19.5316C149.309 19.0873 148.737 18.4715 148.337 17.6841C147.941 16.8967 147.743 15.9905 147.743 14.9656C147.743 13.9275 147.943 13.0169 148.343 12.2339C148.748 11.4465 149.322 10.8329 150.065 10.393C150.809 9.94873 151.693 9.72659 152.718 9.72659C153.602 9.72659 154.376 9.88715 155.04 10.2083C155.705 10.5294 156.23 10.9803 156.617 11.5609C157.005 12.1415 157.218 12.8234 157.258 13.6064H154.605C154.53 13.1005 154.332 12.6936 154.011 12.3857C153.694 12.0734 153.279 11.9172 152.764 11.9172C152.329 11.9172 151.948 12.036 151.623 12.2735C151.301 12.5067 151.051 12.8476 150.87 13.2962C150.69 13.7449 150.6 14.2882 150.6 14.926C150.6 15.5726 150.688 16.1225 150.864 16.5756C151.044 17.0286 151.297 17.374 151.623 17.6115C151.948 17.849 152.329 17.9678 152.764 17.9678C153.085 17.9678 153.373 17.9018 153.628 17.7698C153.888 17.6379 154.101 17.4465 154.269 17.1958C154.44 16.9407 154.552 16.6349 154.605 16.2786H157.258C157.214 17.0528 157.002 17.7347 156.624 18.3241C156.25 18.9091 155.733 19.3666 155.073 19.6965C154.414 20.0264 153.633 20.1914 152.731 20.1914ZM161.604 17.077L161.611 13.7053H162.02L165.266 9.85856H168.493L164.131 14.9524H163.465L161.604 17.077ZM159.057 19.9935V6.48026H161.868V19.9935H159.057ZM165.391 19.9935L162.409 15.5792L164.283 13.5932L168.684 19.9935H165.391Z" fill="#03566E"/>
<path d="M44.6268 27.9953V26.8175H50.1759V27.9953H48.1074V33.5741H46.6953V27.9953H44.6268ZM51.8189 33.6698C51.4955 33.6698 51.2074 33.6137 50.9545 33.5015C50.7016 33.3871 50.5014 33.2189 50.3541 32.9968C50.2089 32.7724 50.1363 32.4931 50.1363 32.1588C50.1363 31.8772 50.188 31.6408 50.2914 31.4495C50.3947 31.2581 50.5355 31.1042 50.7137 30.9876C50.8918 30.871 51.0942 30.783 51.3207 30.7237C51.5494 30.6643 51.7892 30.6225 52.0399 30.5983C52.3346 30.5675 52.5722 30.5389 52.7525 30.5125C52.9329 30.4839 53.0637 30.4421 53.1451 30.3871C53.2265 30.3322 53.2672 30.2508 53.2672 30.143V30.1232C53.2672 29.9143 53.2012 29.7526 53.0692 29.6382C52.9395 29.5239 52.7547 29.4667 52.515 29.4667C52.262 29.4667 52.0608 29.5228 51.9112 29.6349C51.7617 29.7449 51.6627 29.8835 51.6143 30.0506L50.3145 29.9451C50.3804 29.6371 50.5102 29.371 50.7038 29.1467C50.8973 28.9201 51.1469 28.7464 51.4527 28.6254C51.7606 28.5022 52.1169 28.4407 52.5216 28.4407C52.8031 28.4407 53.0725 28.4737 53.3299 28.5396C53.5894 28.6056 53.8192 28.7079 54.0194 28.8465C54.2217 28.985 54.3812 29.1632 54.4977 29.3809C54.6143 29.5965 54.6726 29.8549 54.6726 30.1562V33.5741H53.3398V32.8714H53.3002C53.2188 33.0297 53.1099 33.1694 52.9736 33.2904C52.8372 33.4091 52.6733 33.5026 52.482 33.5708C52.2906 33.6368 52.0696 33.6698 51.8189 33.6698ZM52.2214 32.6998C52.4281 32.6998 52.6107 32.6591 52.769 32.5778C52.9274 32.4942 53.0516 32.382 53.1418 32.2413C53.232 32.1005 53.2771 31.941 53.2771 31.7629V31.2251C53.2331 31.2537 53.1726 31.2801 53.0956 31.3043C53.0208 31.3263 52.9362 31.3472 52.8416 31.367C52.747 31.3846 52.6524 31.4011 52.5579 31.4165C52.4633 31.4297 52.3775 31.4418 52.3005 31.4528C52.1356 31.477 51.9915 31.5154 51.8683 31.5682C51.7452 31.621 51.6495 31.6925 51.5813 31.7827C51.5131 31.8707 51.4791 31.9806 51.4791 32.1126C51.4791 32.3039 51.5483 32.4502 51.6869 32.5514C51.8277 32.6503 52.0058 32.6998 52.2214 32.6998ZM52.9439 26.9462L54.2833 27.9722H53.2705L52.5711 27.4179L51.8683 27.9722H50.8621L52.1884 26.9462H52.9439ZM50.4299 26.1577L51.2052 27.3915H50.42L49.3511 26.1577H50.4299ZM55.763 33.5741V28.5066H57.1024V29.4007H57.1618C57.2674 29.1038 57.4433 28.8696 57.6896 28.698C57.936 28.5264 58.2307 28.4407 58.5738 28.4407C58.9213 28.4407 59.2171 28.5275 59.4613 28.7013C59.7054 28.8729 59.8682 29.106 59.9495 29.4007H60.0023C60.1057 29.1104 60.2927 28.8783 60.5632 28.7046C60.8359 28.5286 61.1581 28.4407 61.5298 28.4407C62.0027 28.4407 62.3865 28.5913 62.6812 28.8926C62.9781 29.1918 63.1266 29.6163 63.1266 30.1661V33.5741H61.7245V30.4432C61.7245 30.1617 61.6497 29.9506 61.5001 29.8098C61.3506 29.669 61.1636 29.5987 60.9393 29.5987C60.6841 29.5987 60.4851 29.68 60.3421 29.8428C60.1992 30.0033 60.1277 30.2156 60.1277 30.4795V33.5741H58.7652V30.4135C58.7652 30.165 58.6937 29.9671 58.5507 29.8197C58.41 29.6723 58.2241 29.5987 57.9932 29.5987C57.837 29.5987 57.6962 29.6382 57.5709 29.7174C57.4477 29.7944 57.3498 29.9033 57.2773 30.044C57.2047 30.1826 57.1684 30.3454 57.1684 30.5323V33.5741H55.763ZM70.6032 29.9517L69.3166 30.0308C69.2946 29.9209 69.2473 29.8219 69.1747 29.7339C69.1021 29.6437 69.0065 29.5723 68.8877 29.5195C68.7711 29.4645 68.6315 29.437 68.4687 29.437C68.251 29.437 68.0673 29.4832 67.9177 29.5756C67.7682 29.6657 67.6934 29.7867 67.6934 29.9385C67.6934 30.0594 67.7418 30.1617 67.8386 30.2453C67.9353 30.3289 68.1014 30.3959 68.3367 30.4465L69.2539 30.6313C69.7466 30.7325 70.1139 30.8952 70.3558 31.1196C70.5977 31.3439 70.7187 31.6386 70.7187 32.0037C70.7187 32.3358 70.6208 32.6272 70.4251 32.878C70.2315 33.1287 69.9654 33.3245 69.6267 33.4652C69.2902 33.6038 68.902 33.6731 68.4621 33.6731C67.7913 33.6731 67.2568 33.5334 66.8587 33.2541C66.4628 32.9726 66.2308 32.5899 66.1626 32.106L67.5449 32.0334C67.5867 32.238 67.6879 32.3941 67.8485 32.5019C68.009 32.6075 68.2147 32.6602 68.4654 32.6602C68.7117 32.6602 68.9097 32.613 69.0592 32.5184C69.211 32.4216 69.288 32.2973 69.2902 32.1456C69.288 32.018 69.2341 31.9135 69.1285 31.8322C69.0229 31.7486 68.8602 31.6848 68.6403 31.6408L67.7627 31.466C67.2678 31.367 66.8994 31.1954 66.6575 30.9513C66.4177 30.7072 66.2979 30.3959 66.2979 30.0176C66.2979 29.6921 66.3859 29.4117 66.5618 29.1764C66.74 28.941 66.9896 28.7596 67.3107 28.632C67.634 28.5044 68.0123 28.4407 68.4456 28.4407C69.0856 28.4407 69.5893 28.5759 69.9566 28.8465C70.3261 29.117 70.5416 29.4854 70.6032 29.9517ZM73.8933 33.6731C73.3808 33.6731 72.9376 33.5642 72.5637 33.3465C72.192 33.1265 71.905 32.8208 71.7027 32.4293C71.5003 32.0356 71.3991 31.5792 71.3991 31.0602C71.3991 30.5367 71.5003 30.0792 71.7027 29.6877C71.905 29.294 72.192 28.9883 72.5637 28.7706C72.9376 28.5506 73.3808 28.4407 73.8933 28.4407C74.4057 28.4407 74.8478 28.5506 75.2195 28.7706C75.5934 28.9883 75.8815 29.294 76.0839 29.6877C76.2862 30.0792 76.3874 30.5367 76.3874 31.0602C76.3874 31.5792 76.2862 32.0356 76.0839 32.4293C75.8815 32.8208 75.5934 33.1265 75.2195 33.3465C74.8478 33.5642 74.4057 33.6731 73.8933 33.6731ZM73.8999 32.5844C74.133 32.5844 74.3277 32.5184 74.4838 32.3864C74.64 32.2522 74.7576 32.0697 74.8368 31.8388C74.9182 31.6078 74.9589 31.345 74.9589 31.0503C74.9589 30.7555 74.9182 30.4927 74.8368 30.2618C74.7576 30.0308 74.64 29.8483 74.4838 29.7141C74.3277 29.58 74.133 29.5129 73.8999 29.5129C73.6645 29.5129 73.4666 29.58 73.306 29.7141C73.1477 29.8483 73.0278 30.0308 72.9464 30.2618C72.8672 30.4927 72.8277 30.7555 72.8277 31.0503C72.8277 31.345 72.8672 31.6078 72.9464 31.8388C73.0278 32.0697 73.1477 32.2522 73.306 32.3864C73.4666 32.5184 73.6645 32.5844 73.8999 32.5844ZM78.7463 33.6698C78.423 33.6698 78.1348 33.6137 77.8819 33.5015C77.629 33.3871 77.4288 33.2189 77.2815 32.9968C77.1363 32.7724 77.0637 32.4931 77.0637 32.1588C77.0637 31.8772 77.1154 31.6408 77.2188 31.4495C77.3222 31.2581 77.4629 31.1042 77.6411 30.9876C77.8192 30.871 78.0216 30.783 78.2481 30.7237C78.4769 30.6643 78.7166 30.6225 78.9673 30.5983C79.262 30.5675 79.4996 30.5389 79.6799 30.5125C79.8603 30.4839 79.9911 30.4421 80.0725 30.3871C80.1539 30.3322 80.1946 30.2508 80.1946 30.143V30.1232C80.1946 29.9143 80.1286 29.7526 79.9966 29.6382C79.8669 29.5239 79.6821 29.4667 79.4424 29.4667C79.1895 29.4667 78.9882 29.5228 78.8387 29.6349C78.6891 29.7449 78.5901 29.8835 78.5417 30.0506L77.2419 29.9451C77.3079 29.6371 77.4376 29.371 77.6312 29.1467C77.8247 28.9201 78.0744 28.7464 78.3801 28.6254C78.688 28.5022 79.0443 28.4407 79.449 28.4407C79.7305 28.4407 79.9999 28.4737 80.2573 28.5396C80.5168 28.6056 80.7466 28.7079 80.9468 28.8465C81.1491 28.985 81.3086 29.1632 81.4252 29.3809C81.5417 29.5965 81.6 29.8549 81.6 30.1562V33.5741H80.2672V32.8714H80.2276C80.1462 33.0297 80.0373 33.1694 79.901 33.2904C79.7646 33.4091 79.6008 33.5026 79.4094 33.5708C79.2181 33.6368 78.997 33.6698 78.7463 33.6698ZM79.1488 32.6998C79.3555 32.6998 79.5381 32.6591 79.6964 32.5778C79.8548 32.4942 79.979 32.382 80.0692 32.2413C80.1594 32.1005 80.2045 31.941 80.2045 31.7629V31.2251C80.1605 31.2537 80.1 31.2801 80.023 31.3043C79.9483 31.3263 79.8636 31.3472 79.769 31.367C79.6744 31.3846 79.5799 31.4011 79.4853 31.4165C79.3907 31.4297 79.3049 31.4418 79.228 31.4528C79.063 31.477 78.9189 31.5154 78.7958 31.5682C78.6726 31.621 78.5769 31.6925 78.5087 31.7827C78.4406 31.8707 78.4065 31.9806 78.4065 32.1126C78.4065 32.3039 78.4758 32.4502 78.6143 32.5514C78.7551 32.6503 78.9332 32.6998 79.1488 32.6998ZM78.997 27.8534L79.6964 26.3523H80.9963L79.99 27.8534H78.997ZM85.3858 28.5066V29.5624H82.3341V28.5066H85.3858ZM83.0269 27.2926H84.4323V32.0169C84.4323 32.1467 84.4521 32.2479 84.4917 32.3204C84.5313 32.3908 84.5863 32.4403 84.6567 32.4689C84.7292 32.4975 84.8128 32.5118 84.9074 32.5118C84.9734 32.5118 85.0394 32.5063 85.1053 32.4953C85.1713 32.4821 85.2219 32.4722 85.2571 32.4656L85.4781 33.5114C85.4078 33.5334 85.3088 33.5587 85.1812 33.5873C85.0536 33.6181 84.8986 33.6368 84.716 33.6434C84.3773 33.6566 84.0804 33.6115 83.8253 33.5081C83.5723 33.4047 83.3755 33.2442 83.2347 33.0264C83.094 32.8087 83.0247 32.5338 83.0269 32.2017V27.2926ZM88.4779 33.5741V26.8175H89.8833V29.3578H89.9262C89.9878 29.2215 90.0768 29.0829 90.1934 28.9421C90.3122 28.7992 90.4661 28.6804 90.6553 28.5858C90.8466 28.4891 91.0842 28.4407 91.3679 28.4407C91.7374 28.4407 92.0783 28.5374 92.3906 28.731C92.7029 28.9223 92.9526 29.2116 93.1395 29.5987C93.3265 29.9836 93.4199 30.4663 93.4199 31.047C93.4199 31.6122 93.3287 32.0895 93.1461 32.4788C92.9658 32.8659 92.7194 33.1595 92.4071 33.3597C92.097 33.5576 91.7495 33.6566 91.3646 33.6566C91.0919 33.6566 90.8598 33.6115 90.6685 33.5213C90.4793 33.4311 90.3243 33.3179 90.2033 33.1815C90.0823 33.0429 89.99 32.9033 89.9262 32.7625H89.8635V33.5741H88.4779ZM89.8536 31.0404C89.8536 31.3417 89.8954 31.6045 89.979 31.8289C90.0625 32.0532 90.1835 32.2281 90.3419 32.3534C90.5002 32.4766 90.6927 32.5382 90.9192 32.5382C91.1479 32.5382 91.3415 32.4755 91.4999 32.3501C91.6582 32.2226 91.7781 32.0466 91.8595 31.8223C91.943 31.5957 91.9848 31.3351 91.9848 31.0404C91.9848 30.7479 91.9441 30.4905 91.8628 30.2684C91.7814 30.0462 91.6615 29.8725 91.5032 29.7471C91.3448 29.6218 91.1501 29.5591 90.9192 29.5591C90.6905 29.5591 90.4969 29.6196 90.3386 29.7405C90.1824 29.8615 90.0625 30.033 89.979 30.2552C89.8954 30.4773 89.8536 30.7391 89.8536 31.0404ZM96.6671 33.6731C96.1458 33.6731 95.6972 33.5675 95.3211 33.3564C94.9472 33.143 94.659 32.8417 94.4567 32.4524C94.2543 32.0609 94.1532 31.5979 94.1532 31.0635C94.1532 30.5422 94.2543 30.0847 94.4567 29.691C94.659 29.2973 94.9439 28.9905 95.3112 28.7706C95.6807 28.5506 96.1139 28.4407 96.611 28.4407C96.9453 28.4407 97.2565 28.4946 97.5447 28.6023C97.835 28.7079 98.0879 28.8674 98.3035 29.0807C98.5212 29.294 98.6906 29.5624 98.8115 29.8857C98.9325 30.2068 98.993 30.5829 98.993 31.014V31.4H94.714V30.529H97.67C97.67 30.3267 97.626 30.1474 97.5381 29.9913C97.4501 29.8351 97.328 29.713 97.1719 29.625C97.0179 29.5349 96.8387 29.4898 96.6341 29.4898C96.4208 29.4898 96.2316 29.5393 96.0667 29.6382C95.9039 29.735 95.7763 29.8659 95.684 30.0308C95.5916 30.1936 95.5443 30.375 95.5421 30.5752V31.4033C95.5421 31.654 95.5883 31.8707 95.6807 32.0532C95.7752 32.2358 95.9083 32.3765 96.0799 32.4755C96.2514 32.5745 96.4549 32.624 96.6902 32.624C96.8464 32.624 96.9893 32.602 97.1191 32.558C97.2488 32.514 97.3599 32.448 97.4523 32.36C97.5447 32.272 97.615 32.1643 97.6634 32.0367L98.9633 32.1225C98.8973 32.4348 98.762 32.7075 98.5575 32.9407C98.3552 33.1716 98.0934 33.352 97.7723 33.4817C97.4534 33.6093 97.085 33.6731 96.6671 33.6731ZM97.2411 27.8996L96.578 27.0946L95.9149 27.8996H94.7173V27.8534L96.0535 26.4018H97.0993L98.4387 27.8534V27.8996H97.2411ZM96.5813 35.4711C96.3724 35.4711 96.1931 35.4018 96.0436 35.2632C95.894 35.1247 95.8192 34.9575 95.8192 34.7618C95.8192 34.566 95.894 34.3989 96.0436 34.2603C96.1931 34.1218 96.3724 34.0525 96.5813 34.0525C96.7903 34.0525 96.9684 34.1218 97.1158 34.2603C97.2653 34.3989 97.3401 34.566 97.3401 34.7618C97.3401 34.9575 97.2653 35.1247 97.1158 35.2632C96.9684 35.4018 96.7903 35.4711 96.5813 35.4711ZM101.316 30.6445V33.5741H99.9101V28.5066H101.25V29.4007H101.309C101.421 29.106 101.609 28.8729 101.873 28.7013C102.137 28.5275 102.457 28.4407 102.833 28.4407C103.185 28.4407 103.492 28.5176 103.754 28.6716C104.015 28.8256 104.219 29.0455 104.364 29.3314C104.509 29.6152 104.582 29.9539 104.582 30.3476V33.5741H103.176V30.5983C103.178 30.2882 103.099 30.0462 102.939 29.8725C102.778 29.6965 102.557 29.6086 102.276 29.6086C102.086 29.6086 101.919 29.6492 101.774 29.7306C101.631 29.812 101.519 29.9308 101.438 30.0869C101.358 30.2409 101.318 30.4267 101.316 30.6445ZM107.095 30.6445V33.5741H105.689V26.8175H107.055V29.4007H107.115C107.229 29.1016 107.414 28.8674 107.669 28.698C107.924 28.5264 108.244 28.4407 108.629 28.4407C108.981 28.4407 109.288 28.5176 109.549 28.6716C109.813 28.8234 110.018 29.0422 110.163 29.3281C110.31 29.6119 110.383 29.9517 110.381 30.3476V33.5741H108.975V30.5983C108.977 30.286 108.898 30.0429 108.738 29.8692C108.579 29.6954 108.357 29.6086 108.071 29.6086C107.88 29.6086 107.711 29.6492 107.563 29.7306C107.418 29.812 107.304 29.9308 107.22 30.0869C107.139 30.2409 107.097 30.4267 107.095 30.6445ZM115.504 33.6566C115.119 33.6566 114.771 33.5576 114.458 33.3597C114.148 33.1595 113.902 32.8659 113.719 32.4788C113.539 32.0895 113.449 31.6122 113.449 31.047C113.449 30.4663 113.542 29.9836 113.729 29.5987C113.916 29.2116 114.165 28.9223 114.475 28.731C114.787 28.5374 115.129 28.4407 115.501 28.4407C115.785 28.4407 116.021 28.4891 116.21 28.5858C116.402 28.6804 116.556 28.7992 116.672 28.9421C116.791 29.0829 116.881 29.2215 116.943 29.3578H116.986V26.8175H118.388V33.5741H117.002V32.7625H116.943C116.877 32.9033 116.783 33.0429 116.662 33.1815C116.543 33.3179 116.388 33.4311 116.197 33.5213C116.008 33.6115 115.777 33.6566 115.504 33.6566ZM115.95 32.5382C116.176 32.5382 116.368 32.4766 116.524 32.3534C116.682 32.2281 116.803 32.0532 116.887 31.8289C116.972 31.6045 117.015 31.3417 117.015 31.0404C117.015 30.7391 116.973 30.4773 116.89 30.2552C116.806 30.033 116.685 29.8615 116.527 29.7405C116.369 29.6196 116.176 29.5591 115.95 29.5591C115.719 29.5591 115.524 29.6218 115.366 29.7471C115.207 29.8725 115.087 30.0462 115.006 30.2684C114.925 30.4905 114.884 30.7479 114.884 31.0404C114.884 31.3351 114.925 31.5957 115.006 31.8223C115.09 32.0466 115.21 32.2226 115.366 32.3501C115.524 32.4755 115.719 32.5382 115.95 32.5382ZM115.673 28.1602V27.3322H118.965V28.1602H115.673ZM121.853 33.6731C121.331 33.6731 120.883 33.5675 120.507 33.3564C120.133 33.143 119.845 32.8417 119.642 32.4524C119.44 32.0609 119.339 31.5979 119.339 31.0635C119.339 30.5422 119.44 30.0847 119.642 29.691C119.845 29.2973 120.129 28.9905 120.497 28.7706C120.866 28.5506 121.299 28.4407 121.797 28.4407C122.131 28.4407 122.442 28.4946 122.73 28.6023C123.02 28.7079 123.273 28.8674 123.489 29.0807C123.707 29.294 123.876 29.5624 123.997 29.8857C124.118 30.2068 124.178 30.5829 124.178 31.014V31.4H119.9V30.529H122.856C122.856 30.3267 122.812 30.1474 122.724 29.9913C122.636 29.8351 122.514 29.713 122.357 29.625C122.203 29.5349 122.024 29.4898 121.82 29.4898C121.606 29.4898 121.417 29.5393 121.252 29.6382C121.089 29.735 120.962 29.8659 120.869 30.0308C120.777 30.1936 120.73 30.375 120.728 30.5752V31.4033C120.728 31.654 120.774 31.8707 120.866 32.0532C120.961 32.2358 121.094 32.3765 121.265 32.4755C121.437 32.5745 121.64 32.624 121.876 32.624C122.032 32.624 122.175 32.602 122.305 32.558C122.434 32.514 122.545 32.448 122.638 32.36C122.73 32.272 122.801 32.1643 122.849 32.0367L124.149 32.1225C124.083 32.4348 123.948 32.7075 123.743 32.9407C123.541 33.1716 123.279 33.352 122.958 33.4817C122.639 33.6093 122.27 33.6731 121.853 33.6731ZM122.156 26.9627L123.456 27.9887H122.489L121.757 27.4113L121.015 27.9887H120.048L121.348 26.9627H122.156ZM123.756 27.4113H123.027L122.964 26.9165C123.154 26.9077 123.291 26.8835 123.377 26.8439C123.463 26.8043 123.505 26.746 123.505 26.669C123.505 26.5679 123.452 26.4997 123.344 26.4645C123.236 26.4293 123.102 26.4117 122.941 26.4117L122.974 25.8805C123.421 25.8805 123.762 25.9465 123.997 26.0785C124.232 26.2083 124.35 26.3919 124.35 26.6294C124.35 26.7944 124.287 26.9209 124.162 27.0088C124.039 27.0946 123.904 27.1496 123.756 27.1738V27.4113ZM131.462 29.9517L130.175 30.0308C130.153 29.9209 130.106 29.8219 130.034 29.7339C129.961 29.6437 129.865 29.5723 129.747 29.5195C129.63 29.4645 129.49 29.437 129.328 29.437C129.11 29.437 128.926 29.4832 128.777 29.5756C128.627 29.6657 128.552 29.7867 128.552 29.9385C128.552 30.0594 128.601 30.1617 128.697 30.2453C128.794 30.3289 128.96 30.3959 129.196 30.4465L130.113 30.6313C130.605 30.7325 130.973 30.8952 131.215 31.1196C131.457 31.3439 131.578 31.6386 131.578 32.0037C131.578 32.3358 131.48 32.6272 131.284 32.878C131.09 33.1287 130.824 33.3245 130.486 33.4652C130.149 33.6038 129.761 33.6731 129.321 33.6731C128.65 33.6731 128.116 33.5334 127.718 33.2541C127.322 32.9726 127.09 32.5899 127.021 32.106L128.404 32.0334C128.446 32.238 128.547 32.3941 128.707 32.5019C128.868 32.6075 129.074 32.6602 129.324 32.6602C129.571 32.6602 129.769 32.613 129.918 32.5184C130.07 32.4216 130.147 32.2973 130.149 32.1456C130.147 32.018 130.093 31.9135 129.987 31.8322C129.882 31.7486 129.719 31.6848 129.499 31.6408L128.622 31.466C128.127 31.367 127.758 31.1954 127.516 30.9513C127.277 30.7072 127.157 30.3959 127.157 30.0176C127.157 29.6921 127.245 29.4117 127.421 29.1764C127.599 28.941 127.848 28.7596 128.17 28.632C128.493 28.5044 128.871 28.4407 129.304 28.4407C129.945 28.4407 130.448 28.5759 130.815 28.8465C131.185 29.117 131.401 29.4854 131.462 29.9517ZM134.752 33.6731C134.24 33.6731 133.796 33.5642 133.423 33.3465C133.051 33.1265 132.764 32.8208 132.562 32.4293C132.359 32.0356 132.258 31.5792 132.258 31.0602C132.258 30.5367 132.359 30.0792 132.562 29.6877C132.764 29.294 133.051 28.9883 133.423 28.7706C133.796 28.5506 134.24 28.4407 134.752 28.4407C135.265 28.4407 135.707 28.5506 136.078 28.7706C136.452 28.9883 136.74 29.294 136.943 29.6877C137.145 30.0792 137.246 30.5367 137.246 31.0602C137.246 31.5792 137.145 32.0356 136.943 32.4293C136.74 32.8208 136.452 33.1265 136.078 33.3465C135.707 33.5642 135.265 33.6731 134.752 33.6731ZM134.759 32.5844C134.992 32.5844 135.187 32.5184 135.343 32.3864C135.499 32.2522 135.617 32.0697 135.696 31.8388C135.777 31.6078 135.818 31.345 135.818 31.0503C135.818 30.7555 135.777 30.4927 135.696 30.2618C135.617 30.0308 135.499 29.8483 135.343 29.7141C135.187 29.58 134.992 29.5129 134.759 29.5129C134.523 29.5129 134.325 29.58 134.165 29.7141C134.007 29.8483 133.887 30.0308 133.805 30.2618C133.726 30.4927 133.687 30.7555 133.687 31.0503C133.687 31.345 133.726 31.6078 133.805 31.8388C133.887 32.0697 134.007 32.2522 134.165 32.3864C134.325 32.5184 134.523 32.5844 134.759 32.5844ZM133.033 27.9524L134.363 26.9264H135.122L136.458 27.9524H135.445L134.749 27.3981L134.043 27.9524H133.033ZM136.111 27.3718L136.883 26.1346H137.972L136.906 27.3718H136.111ZM139.566 30.6445V33.5741H138.16V28.5066H139.5V29.4007H139.559C139.671 29.106 139.859 28.8729 140.123 28.7013C140.387 28.5275 140.707 28.4407 141.083 28.4407C141.435 28.4407 141.742 28.5176 142.004 28.6716C142.265 28.8256 142.469 29.0455 142.614 29.3314C142.759 29.6152 142.832 29.9539 142.832 30.3476V33.5741H141.426V30.5983C141.428 30.2882 141.349 30.0462 141.189 29.8725C141.028 29.6965 140.807 29.6086 140.526 29.6086C140.336 29.6086 140.169 29.6492 140.024 29.7306C139.881 29.812 139.769 29.9308 139.688 30.0869C139.608 30.2409 139.568 30.4267 139.566 30.6445ZM146.222 35.58C145.767 35.58 145.377 35.5173 145.051 35.3919C144.728 35.2687 144.471 35.1005 144.279 34.8871C144.088 34.6738 143.964 34.4341 143.906 34.1679L145.206 33.9931C145.246 34.0943 145.309 34.1888 145.394 34.2768C145.48 34.3648 145.593 34.4352 145.734 34.488C145.877 34.5429 146.051 34.5704 146.255 34.5704C146.561 34.5704 146.813 34.4957 147.011 34.3461C147.211 34.1987 147.311 33.9513 147.311 33.6038V32.6767H147.252C147.19 32.8175 147.098 32.9506 146.975 33.0759C146.851 33.2013 146.693 33.3036 146.499 33.3827C146.306 33.4619 146.075 33.5015 145.807 33.5015C145.426 33.5015 145.08 33.4135 144.767 33.2376C144.457 33.0594 144.21 32.7878 144.025 32.4227C143.843 32.0554 143.751 31.5913 143.751 31.0305C143.751 30.4564 143.845 29.977 144.032 29.5921C144.219 29.2072 144.467 28.919 144.777 28.7277C145.09 28.5363 145.432 28.4407 145.803 28.4407C146.087 28.4407 146.325 28.4891 146.516 28.5858C146.707 28.6804 146.861 28.7992 146.978 28.9421C147.097 29.0829 147.188 29.2215 147.252 29.3578H147.304V28.5066H148.7V33.6236C148.7 34.0547 148.594 34.4154 148.383 34.7057C148.172 34.996 147.88 35.2138 147.506 35.3589C147.134 35.5063 146.706 35.58 146.222 35.58ZM146.252 32.4458C146.479 32.4458 146.67 32.3897 146.826 32.2775C146.984 32.1632 147.105 32.0004 147.189 31.7893C147.275 31.5759 147.318 31.3208 147.318 31.0239C147.318 30.727 147.276 30.4696 147.192 30.2519C147.109 30.0319 146.988 29.8615 146.829 29.7405C146.671 29.6196 146.479 29.5591 146.252 29.5591C146.021 29.5591 145.826 29.6218 145.668 29.7471C145.51 29.8703 145.39 30.0418 145.309 30.2618C145.227 30.4817 145.186 30.7358 145.186 31.0239C145.186 31.3164 145.227 31.5693 145.309 31.7827C145.392 31.9938 145.512 32.1577 145.668 32.2742C145.826 32.3886 146.021 32.4458 146.252 32.4458ZM154.664 28.5066V29.5624H151.612V28.5066H154.664ZM152.305 27.2926H153.711V32.0169C153.711 32.1467 153.73 32.2479 153.77 32.3204C153.81 32.3908 153.864 32.4403 153.935 32.4689C154.007 32.4975 154.091 32.5118 154.186 32.5118C154.252 32.5118 154.318 32.5063 154.384 32.4953C154.45 32.4821 154.5 32.4722 154.535 32.4656L154.756 33.5114C154.686 33.5334 154.587 33.5587 154.459 33.5873C154.332 33.6181 154.177 33.6368 153.994 33.6434C153.656 33.6566 153.359 33.6115 153.104 33.5081C152.851 33.4047 152.654 33.2442 152.513 33.0264C152.372 32.8087 152.303 32.5338 152.305 32.2017V27.2926ZM157.094 30.6445V33.5741H155.688V26.8175H157.054V29.4007H157.114C157.228 29.1016 157.413 28.8674 157.668 28.698C157.923 28.5264 158.243 28.4407 158.628 28.4407C158.98 28.4407 159.287 28.5176 159.548 28.6716C159.812 28.8234 160.017 29.0422 160.162 29.3281C160.309 29.6119 160.382 29.9517 160.38 30.3476V33.5741H158.974V30.5983C158.976 30.286 158.897 30.0429 158.737 29.8692C158.578 29.6954 158.356 29.6086 158.07 29.6086C157.879 29.6086 157.71 29.6492 157.562 29.7306C157.417 29.812 157.303 29.9308 157.219 30.0869C157.138 30.2409 157.096 30.4267 157.094 30.6445ZM163.775 33.6731C163.263 33.6731 162.82 33.5642 162.446 33.3465C162.074 33.1265 161.787 32.8208 161.585 32.4293C161.382 32.0356 161.281 31.5792 161.281 31.0602C161.281 30.5367 161.382 30.0792 161.585 29.6877C161.787 29.294 162.074 28.9883 162.446 28.7706C162.82 28.5506 163.263 28.4407 163.775 28.4407C164.288 28.4407 164.73 28.5506 165.102 28.7706C165.475 28.9883 165.764 29.294 165.966 29.6877C166.168 30.0792 166.269 30.5367 166.269 31.0602C166.269 31.5792 166.168 32.0356 165.966 32.4293C165.764 32.8208 165.475 33.1265 165.102 33.3465C164.73 33.5642 164.288 33.6731 163.775 33.6731ZM163.782 32.5844C164.015 32.5844 164.21 32.5184 164.366 32.3864C164.522 32.2522 164.64 32.0697 164.719 31.8388C164.8 31.6078 164.841 31.345 164.841 31.0503C164.841 30.7555 164.8 30.4927 164.719 30.2618C164.64 30.0308 164.522 29.8483 164.366 29.7141C164.21 29.58 164.015 29.5129 163.782 29.5129C163.547 29.5129 163.349 29.58 163.188 29.7141C163.03 29.8483 162.91 30.0308 162.828 30.2618C162.749 30.4927 162.71 30.7555 162.71 31.0503C162.71 31.345 162.749 31.6078 162.828 31.8388C162.91 32.0697 163.03 32.2522 163.188 32.3864C163.349 32.5184 163.547 32.5844 163.782 32.5844ZM163.775 35.4711C163.566 35.4711 163.387 35.4018 163.238 35.2632C163.088 35.1247 163.013 34.9575 163.013 34.7618C163.013 34.566 163.088 34.3989 163.238 34.2603C163.387 34.1218 163.566 34.0525 163.775 34.0525C163.984 34.0525 164.162 34.1218 164.31 34.2603C164.459 34.3989 164.534 34.566 164.534 34.7618C164.534 34.9575 164.459 35.1247 164.31 35.2632C164.162 35.4018 163.984 35.4711 163.775 35.4711ZM170.739 30.6445V33.5741H169.334V26.8175H170.699V29.4007H170.759C170.873 29.1016 171.058 28.8674 171.313 28.698C171.568 28.5264 171.888 28.4407 172.273 28.4407C172.625 28.4407 172.932 28.5176 173.193 28.6716C173.457 28.8234 173.662 29.0422 173.807 29.3281C173.954 29.6119 174.027 29.9517 174.025 30.3476V33.5741H172.619V30.5983C172.622 30.286 172.542 30.0429 172.382 29.8692C172.224 29.6954 172.001 29.6086 171.715 29.6086C171.524 29.6086 171.355 29.6492 171.207 29.7306C171.062 29.812 170.948 29.9308 170.864 30.0869C170.783 30.2409 170.741 30.4267 170.739 30.6445ZM179.604 28.2097H180.442C180.442 28.7684 180.309 29.2039 180.043 29.5162C179.777 29.8263 179.349 29.9814 178.76 29.9814V29.4205C178.993 29.4205 179.17 29.3721 179.291 29.2753C179.412 29.1764 179.495 29.0367 179.539 28.8564C179.583 28.676 179.604 28.4605 179.604 28.2097ZM177.42 33.6731C176.908 33.6731 176.465 33.5642 176.091 33.3465C175.719 33.1265 175.432 32.8208 175.23 32.4293C175.028 32.0356 174.926 31.5792 174.926 31.0602C174.926 30.5367 175.028 30.0792 175.23 29.6877C175.432 29.294 175.719 28.9883 176.091 28.7706C176.465 28.5506 176.908 28.4407 177.42 28.4407C177.933 28.4407 178.375 28.5506 178.747 28.7706C179.121 28.9883 179.409 29.294 179.611 29.6877C179.813 30.0792 179.915 30.5367 179.915 31.0602C179.915 31.5792 179.813 32.0356 179.611 32.4293C179.409 32.8208 179.121 33.1265 178.747 33.3465C178.375 33.5642 177.933 33.6731 177.42 33.6731ZM177.427 32.5844C177.66 32.5844 177.855 32.5184 178.011 32.3864C178.167 32.2522 178.285 32.0697 178.364 31.8388C178.445 31.6078 178.486 31.345 178.486 31.0503C178.486 30.7555 178.445 30.4927 178.364 30.2618C178.285 30.0308 178.167 29.8483 178.011 29.7141C177.855 29.58 177.66 29.5129 177.427 29.5129C177.192 29.5129 176.994 29.58 176.833 29.7141C176.675 29.8483 176.555 30.0308 176.474 30.2618C176.394 30.4927 176.355 30.7555 176.355 31.0503C176.355 31.345 176.394 31.6078 176.474 31.8388C176.555 32.0697 176.675 32.2522 176.833 32.3864C176.994 32.5184 177.192 32.5844 177.427 32.5844ZM182.406 30.6445V33.5741H181.001V28.5066H182.34V29.4007H182.4C182.512 29.106 182.7 28.8729 182.964 28.7013C183.228 28.5275 183.548 28.4407 183.924 28.4407C184.276 28.4407 184.583 28.5176 184.844 28.6716C185.106 28.8256 185.31 29.0455 185.455 29.3314C185.6 29.6152 185.672 29.9539 185.672 30.3476V33.5741H184.267V30.5983C184.269 30.2882 184.19 30.0462 184.029 29.8725C183.869 29.6965 183.648 29.6086 183.366 29.6086C183.177 29.6086 183.01 29.6492 182.865 29.7306C182.722 29.812 182.61 29.9308 182.528 30.0869C182.449 30.2409 182.408 30.4267 182.406 30.6445Z" fill="#03566E"/>
</svg>
