<svg xmlns="http://www.w3.org/2000/svg" version="1.1" xmlns:xlink="http://www.w3.org/1999/xlink" xmlns:svgjs="http://svgjs.com/svgjs" width="512" height="512" x="0" y="0" viewBox="0 0 64 64" style="enable-background:new 0 0 512 512" xml:space="preserve" class=""><g><path d="M39.805 47.813c-16.57-1.885-16.173-25.386.291-26.843V7.634a1.97 1.97 0 0 0-1.96-1.971H5.97A1.972 1.972 0 0 0 4 7.634V46.8a1.972 1.972 0 0 0 1.971 1.972h32.165a1.937 1.937 0 0 0 1.67-.959zM15.677 9.886H28.43a1.077 1.077 0 0 1 0 2.154H15.677a1.077 1.077 0 0 1 0-2.154zM9.3 16.575h25.507a1.077 1.077 0 0 1 0 2.154H9.3a1.077 1.077 0 0 1 0-2.154zM24.865 37.86H9.3a1.077 1.077 0 0 1 0-2.155h15.565a1.077 1.077 0 0 1 0 2.155zm.248-6.377H9.3a1.077 1.077 0 0 1 0-2.154h15.813a1.077 1.077 0 0 1 0 2.154zm1.303-6.377H9.3a1.077 1.077 0 0 1 0-2.154h17.116a1.077 1.077 0 0 1 0 2.154zM49.662 24.126v-5.192a3.705 3.705 0 0 0-3.706-3.706h-3.705v5.774a13.486 13.486 0 0 1 7.41 3.124z" fill="#002b60" data-original="#000000" opacity="1" class=""></path><path d="M31.867 27.67a11.325 11.325 0 0 0 2.348 15.823c7.314 5.533 18.162.085 18.042-9.07.059-10.784-13.92-15.467-20.39-6.753zm1.443 1.077a9.455 9.455 0 0 1 7.659-3.856 1.077 1.077 0 0 1 0 2.154 7.302 7.302 0 0 0-5.925 2.984 1.078 1.078 0 0 1-1.734-1.282z" fill="#002b60" data-original="#000000" opacity="1" class=""></path><path d="M47.615 46.111a13.363 13.363 0 0 1-5.504 1.702 4.089 4.089 0 0 1-3.975 3.113h-24.57v3.705a3.705 3.705 0 0 0 3.705 3.706h28.685a3.705 3.705 0 0 0 3.706-3.706v-7.13l-1.896-1.487a.722.722 0 0 1-.151.097zM58.753 43.784l-5.375-4.2a13.276 13.276 0 0 1-1.605 2.843 13.745 13.745 0 0 1-2.165 2.294l1.734 1.358.162.129 3.662 2.865a2.9 2.9 0 0 0 2.23.603c2.73-.38 3.529-4.332 1.357-5.892z" fill="#002b60" data-original="#000000" opacity="1" class=""></path></g></svg>