<svg xmlns="http://www.w3.org/2000/svg" version="1.1" xmlns:xlink="http://www.w3.org/1999/xlink" width="512" height="512" x="0" y="0" viewBox="0 0 24 24" style="enable-background:new 0 0 512 512" xml:space="preserve" fill-rule="evenodd" class=""><g><path d="M12 1.25c5.933 0 10.75 4.817 10.75 10.75S17.933 22.75 12 22.75 1.25 17.933 1.25 12 6.067 1.25 12 1.25zm0 1.5c-5.105 0-9.25 4.145-9.25 9.25s4.145 9.25 9.25 9.25 9.25-4.145 9.25-9.25S17.105 2.75 12 2.75z" fill="#28a745" opacity="1" data-original="#000000" class=""></path><path d="M6.97 12.53a.749.749 0 1 1 1.06-1.06l2.47 2.469 5.47-5.469a.749.749 0 1 1 1.06 1.06l-6 6a.749.749 0 0 1-1.06 0z" fill="#28a745" opacity="1" data-original="#000000" class=""></path></g></svg>