<svg xmlns="http://www.w3.org/2000/svg" version="1.1" xmlns:xlink="http://www.w3.org/1999/xlink" width="512" height="512" x="0" y="0" viewBox="0 0 25 25" style="enable-background:new 0 0 512 512" xml:space="preserve" class=""><g><path d="M.9 23.2v.1c0 .6.5 1.2 1.2 1.2h18.3c.6 0 1.2-.5 1.2-1.2v-.1c0-1.2-.2-2.3-.6-3.3h-.3c-1.5 0-2.7-1.1-3-2.5-1.4-.3-2.5-1.5-2.5-2.9 0-.3 0-.5.1-.7-1.3-.5-2.7-.8-4.1-.8C5.6 12.9.9 17.5.9 23.2zM11.2 11c2.9 0 5.3-2.4 5.3-5.3S14.1.4 11.2.4C8.3.5 6 2.9 6 5.8S8.3 11 11.2 11zM20.6 11.1c-.5 0-1 .5-1 1v1.4h-1.4c-.6 0-1 .4-1 1s.4 1 1 1h1.4v1.4c0 .6.5 1 1 1s1-.4 1-1v-1.4H23c.5 0 1-.4 1-1s-.5-1-1-1h-1.4v-1.4c0-.6-.4-1-1-1z" fill="#ffffff" opacity="1" data-original="#000000" class=""></path></g></svg>