<svg xmlns="http://www.w3.org/2000/svg" version="1.1" xmlns:xlink="http://www.w3.org/1999/xlink" width="512" height="512" x="0" y="0" viewBox="0 0 469.333 469.333" style="enable-background:new 0 0 512 512" xml:space="preserve" class=""><g><path fill="#1fbf66" d="m414.17 94.17-81.673-81.673A42.664 42.664 0 0 0 302.327 0H85.333C61.769 0 42.667 19.103 42.667 42.667v384c0 23.564 19.103 42.667 42.667 42.667H384c23.564 0 42.667-19.103 42.667-42.667V124.339A42.666 42.666 0 0 0 414.17 94.17zM332.8 229.271 229.271 332.8c-25.609 25.609-67.129 25.609-92.738 0s-25.609-67.129 0-92.738l25.884-25.875c18.456-18.461 48.383-18.466 66.845-.01s18.466 48.383.01 66.845l-25.875 25.894c-4.112 4.218-10.865 4.305-15.084.193-4.218-4.112-4.305-10.865-.192-15.084.063-.065.127-.128.191-.191l25.875-25.897c10.125-10.133 10.119-26.555-.014-36.679-10.133-10.125-26.555-10.119-36.679.014l-25.869 25.875c-17.381 17.171-17.552 45.181-.382 62.562 17.171 17.381 45.181 17.552 62.562.382.128-.126.255-.254.382-.382l103.522-103.522c17.381-17.171 17.552-45.181.382-62.562s-45.181-17.552-62.562-.382c-.128.126-.255.254-.382.382l-38.814 38.814c-4.113 4.218-10.866 4.303-15.084.19s-4.303-10.866-.19-15.084c.063-.065.127-.128.191-.191l38.812-38.82c25.609-25.609 67.129-25.609 92.738 0s25.609 67.129 0 92.737z" opacity="1" data-original="#1fbf66"></path></g></svg>