<svg id="Layer_1" enable-background="new 0 0 512 512" height="512" viewBox="0 0 512 512" width="512" fill="#fff" xmlns="http://www.w3.org/2000/svg"><path d="m210.25 70.3c11.13 0 20.19-9.06 20.19-20.19s-9.06-20.19-20.19-20.19-20.19 9.06-20.19 20.19 9.06 20.19 20.19 20.19zm0-28.37c4.51 0 8.19 3.67 8.19 8.19s-3.67 8.19-8.19 8.19c-4.51 0-8.19-3.67-8.19-8.19s3.68-8.19 8.19-8.19zm246.25 295.51c-3.06-14.6-11.59-27.11-24-35.21-12.41-8.11-27.29-10.88-41.89-7.82-9.14 1.92-17.46 5.98-24.4 11.79v-226.59c0-10.43-8.49-18.92-18.92-18.92h-67.52c-6.78-11.05-16.19-20.51-27.64-27.37-6.82-17.03-23.37-28.32-41.88-28.32s-35.06 11.29-41.88 28.32c-11.45 6.86-20.86 16.32-27.64 27.37h-67.51c-10.43 0-18.92 8.49-18.92 18.92v379.25c0 10.43 8.49 18.92 18.92 18.92h212.9c4.34 8.12 10.66 15.06 18.55 20.21 9.38 6.12 19.93 9.05 30.37 9.05 18.2 0 36.06-8.89 46.73-25.23l66.91-102.46c8.11-12.43 10.88-27.31 7.82-41.91zm-280.31-294.78c1.28-.72 2.26-1.89 2.73-3.28 4.59-13.39 17.18-22.38 31.33-22.38s26.75 8.99 31.33 22.37c.48 1.39 1.45 2.56 2.73 3.28 20.15 11.34 33.28 31.92 35.26 54.69h-138.64c1.98-22.76 15.11-43.35 35.26-54.68zm-102.97 423.11c-3.81 0-6.92-3.1-6.92-6.92v-379.24c0-3.81 3.1-6.92 6.92-6.92h61.45c-3.9 9.59-6 19.98-6 30.65 0 3.31 2.69 6 6 6h151.17c3.31 0 6-2.69 6-6 0-10.67-2.1-21.06-6-30.65h61.45c3.81 0 6.92 3.1 6.92 6.92v240.63l-65.72 100.65c-8.11 12.41-10.88 27.29-7.82 41.89.21 1.01.46 2.01.72 3h-208.17zm298.5 9.47c-13.18 20.18-40.31 25.87-60.49 12.7-9.73-6.35-16.41-16.17-18.82-27.63s-.23-23.13 6.12-32.86l30.17-46.21 73.19 47.8zm66.91-102.47-30.17 46.21-73.19-47.8 30.18-46.21c6.35-9.73 16.17-16.41 27.63-18.82 3.05-.64 6.11-.96 9.14-.96 8.39 0 16.58 2.41 23.72 7.08 20.17 13.19 25.87 40.32 12.69 60.5zm-4.25-30.68c1.83 8.72.2 17.56-4.6 24.91l-5.81 8.9c-1.15 1.76-3.07 2.72-5.03 2.72-1.13 0-2.26-.32-3.28-.98-2.77-1.81-3.55-5.53-1.74-8.3l5.81-8.9c3.04-4.66 4.08-10.3 2.9-15.88s-4.38-10.33-9.04-13.38c-2.77-1.81-3.56-5.53-1.74-8.3 1.81-2.78 5.53-3.55 8.3-1.74 7.35 4.78 12.4 12.23 14.23 20.95zm-312.96-193.82c-22.59 0-40.96 18.38-40.96 40.96s18.38 40.96 40.96 40.96c22.59 0 40.96-18.38 40.96-40.96s-18.37-40.96-40.96-40.96zm0 69.93c-15.97 0-28.96-12.99-28.96-28.96s12.99-28.96 28.96-28.96 28.96 12.99 28.96 28.96-12.99 28.96-28.96 28.96zm51.86-25.34c0-3.31 2.69-6 6-6h142.62c3.31 0 6 2.69 6 6s-2.69 6-6 6h-142.62c-3.31 0-6-2.69-6-6zm-32.8-19.15c2.47 2.21 2.68 6 .48 8.47l-21.83 24.43c-1.12 1.25-2.7 1.97-4.38 2-.03 0-.07 0-.1 0-1.64 0-3.21-.67-4.34-1.86l-10.91-11.43c-2.29-2.4-2.2-6.19.2-8.48s6.2-2.2 8.48.2l6.43 6.74 17.5-19.59c2.21-2.48 6-2.69 8.47-.48zm-19.06 71.64c-22.59 0-40.96 18.38-40.96 40.96s18.38 40.96 40.96 40.96c22.59 0 40.96-18.38 40.96-40.96s-18.37-40.96-40.96-40.96zm0 69.93c-15.97 0-28.96-12.99-28.96-28.96s12.99-28.96 28.96-28.96 28.96 12.99 28.96 28.96-12.99 28.96-28.96 28.96zm51.86-25.34c0-3.31 2.69-6 6-6h142.62c3.31 0 6 2.69 6 6s-2.69 6-6 6h-142.62c-3.31 0-6-2.69-6-6zm-32.8-19.15c2.47 2.21 2.68 6 .48 8.47l-21.83 24.43c-1.12 1.25-2.7 1.97-4.38 2-.03 0-.07 0-.1 0-1.64 0-3.21-.67-4.34-1.86l-10.91-11.43c-2.29-2.4-2.2-6.19.2-8.48s6.19-2.2 8.48.2l6.43 6.74 17.5-19.59c2.21-2.47 6-2.69 8.47-.48zm-19.06 71.64c-22.59 0-40.96 18.38-40.96 40.96s18.38 40.96 40.96 40.96c22.59 0 40.96-18.38 40.96-40.96s-18.37-40.96-40.96-40.96zm0 69.93c-15.97 0-28.96-12.99-28.96-28.96s12.99-28.96 28.96-28.96 28.96 12.99 28.96 28.96-12.99 28.96-28.96 28.96zm156-19.34h-98.14c-3.31 0-6-2.69-6-6s2.69-6 6-6h98.14c3.31 0 6 2.69 6 6s-2.69 6-6 6zm-136.94-25.14c2.47 2.21 2.68 6 .48 8.47l-21.83 24.43c-1.12 1.25-2.7 1.97-4.38 2-.03 0-.07 0-.1 0-1.64 0-3.21-.67-4.34-1.86l-10.91-11.43c-2.29-2.4-2.2-6.19.2-8.48s6.2-2.2 8.48.2l6.43 6.74 17.5-19.59c2.21-2.48 6-2.69 8.47-.48z"/></svg>