<svg xmlns="http://www.w3.org/2000/svg" version="1.1" xmlns:xlink="http://www.w3.org/1999/xlink" width="512" height="512" x="0" y="0" viewBox="0 0 512 512" style="enable-background:new 0 0 512 512" xml:space="preserve" class=""><g><path fill-rule="evenodd" d="M102.757 45.626h43.134v26.941c0 29.051 23.769 52.819 52.819 52.819h114.58c29.051 0 52.819-23.769 52.819-52.819V45.626h43.134c19.359 0 35.198 15.926 35.198 35.392v395.59c0 19.465-15.839 35.392-35.198 35.392H102.757c-19.359 0-35.198-15.927-35.198-35.392V81.018c.001-19.465 15.839-35.392 35.198-35.392zM198.711 0c-10.278 0-18.687 8.408-18.687 18.686v53.881c0 10.277 8.409 18.686 18.687 18.686H313.29c10.277 0 18.686-8.409 18.686-18.686V18.686C331.976 8.408 323.567 0 313.29 0zm-14.69 221.371h143.958c9.426 0 17.067-7.641 17.067-17.067 0-9.425-7.641-17.066-17.067-17.066H184.021c-9.426 0-17.067 7.641-17.067 17.066 0 9.426 7.641 17.067 17.067 17.067zm0 192.757h143.958c9.426 0 17.067-7.641 17.067-17.066 0-9.426-7.641-17.067-17.067-17.067H184.021c-9.426 0-17.067 7.641-17.067 17.067 0 9.425 7.641 17.066 17.067 17.066zm0-96.378h143.958c9.426 0 17.067-7.641 17.067-17.066 0-9.426-7.641-17.067-17.067-17.067H184.021c-9.426 0-17.067 7.641-17.067 17.067 0 9.424 7.641 17.066 17.067 17.066z" clip-rule="evenodd" fill="#02566e" opacity="1" data-original="#000000"></path></g></svg>