<svg xmlns="http://www.w3.org/2000/svg" version="1.1" xmlns:xlink="http://www.w3.org/1999/xlink" xmlns:svgjs="http://svgjs.com/svgjs" width="512" height="512" x="0" y="0" viewBox="0 0 32 32" style="enable-background:new 0 0 512 512" xml:space="preserve" class=""><g><path fill="#666666" d="M28 2H4C2.346 2 1 3.346 1 5v16c0 1.654 1.346 3 3 3h3v5a1.001 1.001 0 0 0 1.625.781L15.851 24H28c1.654 0 3-1.346 3-3V5c0-1.654-1.346-3-3-3z" data-original="#4caf50" opacity="1" class=""></path><path fill="#666666" d="M31 5v16c0 1.65-1.35 3-3 3H15.85l-7.23 5.78c-.18.15-.4.22-.62.22-.15 0-.29-.03-.43-.1-.35-.17-.57-.52-.57-.9v-4.49C16.83 21.18 24.21 12.54 25.71 2H28c1.65 0 3 1.35 3 3z" data-original="#388e3c" class="" opacity="1"></path><path fill="#ffffff" d="M16 16H8a1 1 0 1 1 0-2h8a1 1 0 1 1 0 2zM24 12H8a1 1 0 1 1 0-2h16a1 1 0 1 1 0 2z" data-original="#e0e0e0" class="" opacity="1"></path><path fill="#ffffff" d="M25 11c0 .55-.45 1-1 1h-1.75c.38-.65.73-1.32 1.05-2h.7c.55 0 1 .45 1 1z" data-original="#9e9e9e" class="" opacity="1"></path></g></svg>