<svg xmlns="http://www.w3.org/2000/svg" version="1.1" xmlns:xlink="http://www.w3.org/1999/xlink" width="512" height="512" x="0" y="0" viewBox="0 0 512 512" style="enable-background:new 0 0 512 512" xml:space="preserve" class=""><g><path fill="#ff0000" fill-rule="evenodd" d="M443.721 11.723 256 199.43 68.279 11.723A40 40 0 0 0 11.713 68.28l215.98 216a39.981 39.981 0 0 0 56.567 0l216.027-216a40 40 0 1 0-56.566-56.557zm56.566 216a40 40 0 0 1 0 56.557l-216.027 216a39.978 39.978 0 0 1-56.567 0l-215.98-216a40 40 0 1 1 56.566-56.557L256 415.429l187.721-187.706a39.981 39.981 0 0 1 56.566 0z" opacity="1" data-original="#f44336" class=""></path></g></svg>