<?xml version="1.0" encoding="UTF-8"?>
<svg xmlns="http://www.w3.org/2000/svg" id="Layer_3" data-name="Layer 3" viewBox="0 0 100 100" width="512" height="512" fill="#fff"><path d="M85.05,5H39.92A10,10,0,0,0,30,15V31.43H15a10,10,0,0,0-10,10V73A10,10,0,0,0,15,83h.53V93.75A1.24,1.24,0,0,0,16.74,95a1.29,1.29,0,0,0,.79-.28L31.9,83H60.09A10,10,0,0,0,70,73V58.13L82.48,68.3a1.29,1.29,0,0,0,.79.28,1.24,1.24,0,0,0,1.25-1.25V56.55h.53A10,10,0,0,0,95,46.6V15A10,10,0,0,0,85.05,5ZM67.54,73a7.46,7.46,0,0,1-7.45,7.45H31.45a1.25,1.25,0,0,0-.79.28L18,91.11V81.72a1.25,1.25,0,0,0-1.25-1.25H15A7.46,7.46,0,0,1,7.5,73V41.38A7.46,7.46,0,0,1,15,33.93H60.09a7.46,7.46,0,0,1,7.45,7.45Zm25-26.42a7.46,7.46,0,0,1-7.46,7.45H83.27A1.25,1.25,0,0,0,82,55.3v9.39L70,54.9V41.38a10,10,0,0,0-10-10H32.47V15a7.46,7.46,0,0,1,7.45-7.45H85.05A7.46,7.46,0,0,1,92.51,15Zm-34.62.71a1.25,1.25,0,0,1-1.25,1.25H18.4a1.25,1.25,0,0,1,0-2.5H56.64A1.25,1.25,0,0,1,57.89,47.31Zm0,9.55a1.25,1.25,0,0,1-1.25,1.25H18.4a1.25,1.25,0,1,1,0-2.5H56.64A1.25,1.25,0,0,1,57.89,56.86ZM41.39,66.4a1.25,1.25,0,0,1-1.25,1.25H18.4a1.25,1.25,0,0,1,0-2.5H40.14A1.25,1.25,0,0,1,41.39,66.4Z"/></svg>
