<svg xmlns="http://www.w3.org/2000/svg" version="1.1" xmlns:xlink="http://www.w3.org/1999/xlink" width="512" height="512" x="0" y="0" viewBox="0 0 512 512" style="enable-background:new 0 0 512 512" xml:space="preserve" class=""><g><path d="M419.824 110.471 315.688 6.335A21.782 21.782 0 0 0 300.328 0H92.057C41.753.048.986 40.815.938 91.119v329.763c.048 50.303 40.815 91.07 91.119 91.118h167.051c3.372.02 6.701-.753 9.719-2.256a21.783 21.783 0 0 0 11.455-24.385 22.73 22.73 0 0 0-3.471-7.637c-45.531-70.438-25.339-164.449 45.099-209.98a151.865 151.865 0 0 1 82.554-24.325c11.982 0 21.695-9.713 21.695-21.695V125.83a21.783 21.783 0 0 0-6.335-15.359zM187.514 402.05h-86.78c-11.982 0-21.695-9.713-21.695-21.695 0-11.982 9.713-21.695 21.695-21.695h86.78c11.982 0 21.695 9.713 21.695 21.695 0 11.982-9.713 21.695-21.695 21.695zm35.754-109.863H100.735c-11.982 0-21.695-9.713-21.695-21.695 0-11.982 9.713-21.695 21.695-21.695h122.533c11.982 0 21.695 9.713 21.695 21.695 0 11.982-9.714 21.695-21.695 21.695zm159.501-153.34h-95.458V43.39h3.992l91.466 91.466v3.991z" fill="#1976d2" opacity="1" data-original="#000000"></path><path d="M502.351 361.003c-17.877-20.914-54.498-55.973-99.797-55.973s-82.007 34.712-99.797 55.973c-11.615 13.527-11.615 33.507 0 47.035 17.356 20.914 54.498 55.973 99.797 55.973s81.92-34.712 99.797-55.973c11.615-13.527 11.615-33.508 0-47.035zm-99.797 53.891c-16.774 0-30.373-13.598-30.373-30.373s13.598-30.373 30.373-30.373 30.373 13.598 30.373 30.373c0 16.774-13.598 30.373-30.373 30.373z" fill="#1976d2" opacity="1" data-original="#000000"></path></g></svg>