<svg xmlns="http://www.w3.org/2000/svg" version="1.1" xmlns:xlink="http://www.w3.org/1999/xlink" xmlns:svgjs="http://svgjs.com/svgjs" width="512" height="512" x="0" y="0" viewBox="0 0 520 520" style="enable-background:new 0 0 512 512" xml:space="preserve"><g><path fill="#009045" d="m213.114 419.861-4.378-7.457C175.9 356.458 88.55 237.607 87.672 236.413l-2.562-3.481 32.854-32.463L212 266.132c58.937-76.169 113.841-128.59 149.758-159.312 39.678-33.939 64.8-49.127 65.845-49.757l1.188-.713h57.9l-9.805 8.734C353.065 175.369 218.736 409.99 217.393 412.348z" data-name="30-Checked" data-original="#009045"></path><g fill="#828282" data-name="13-Cancel"><circle cx="213.125" cy="111.604" r="7.954" fill="#828282" data-original="#828282"></circle><circle cx="213.125" cy="455.695" r="7.954" fill="#828282" data-original="#828282"></circle><circle cx="41.266" cy="283.65" r="7.954" fill="#828282" data-original="#828282"></circle><circle cx="384.984" cy="283.65" r="7.954" fill="#828282" data-original="#828282"></circle><circle cx="91.471" cy="405.304" r="7.954" fill="#828282" data-original="#828282"></circle><circle cx="91.603" cy="162.127" r="7.954" fill="#828282" data-original="#828282"></circle><circle cx="334.648" cy="405.172" r="7.954" fill="#828282" data-original="#828282"></circle><circle cx="64.129" cy="197.627" r="7.954" fill="#828282" data-original="#828282"></circle><circle cx="362.121" cy="369.672" r="7.954" fill="#828282" data-original="#828282"></circle><circle cx="127.196" cy="432.484" r="7.954" fill="#828282" data-original="#828282"></circle><circle cx="168.597" cy="117.466" r="7.954" fill="#828282" data-original="#828282"></circle><circle cx="257.654" cy="449.833" r="7.954" fill="#828282" data-original="#828282"></circle><circle cx="47.122" cy="328.13" r="7.954" fill="#828282" data-original="#828282"></circle><circle cx="379.128" cy="239.169" r="7.954" fill="#828282" data-original="#828282"></circle><circle cx="64.129" cy="369.672" r="7.954" fill="#828282" data-original="#828282"></circle><circle cx="299.055" cy="432.484" r="7.954" fill="#828282" data-original="#828282"></circle><circle cx="127.196" cy="134.815" r="7.954" fill="#828282" data-original="#828282"></circle><circle cx="257.654" cy="117.466" r="7.954" fill="#828282" data-original="#828282"></circle><circle cx="168.597" cy="449.833" r="7.954" fill="#828282" data-original="#828282"></circle><circle cx="379.128" cy="328.13" r="7.954" fill="#828282" data-original="#828282"></circle><circle cx="47.122" cy="239.169" r="7.954" fill="#828282" data-original="#828282"></circle></g></g></svg>