<svg xmlns="http://www.w3.org/2000/svg" version="1.1" xmlns:xlink="http://www.w3.org/1999/xlink" width="512" height="512" x="0" y="0" viewBox="0 0 24 24" style="enable-background:new 0 0 512 512" xml:space="preserve" class=""><g><path d="M21.243 19.455a1.344 1.344 0 0 1-1.429.492l-2.74-.693a1.876 1.876 0 0 1-1.374-2.185l.356-1.8a10.638 10.638 0 0 0-8.061.01l.359 1.787a1.881 1.881 0 0 1-1.375 2.2l-2.724.7a1.377 1.377 0 0 1-1.487-.57l-.009-.013a4.467 4.467 0 0 1 1.564-6.4 16 16 0 0 1 15.623.119 4.585 4.585 0 0 1 1.297 6.353zM17.53 3.47a.749.749 0 0 0-1.06 0l-3.586 3.585a1.252 1.252 0 0 1-1.768 0L8.811 4.75H10a.75.75 0 0 0 0-1.5H7a.742.742 0 0 0-.286.058A.752.752 0 0 0 6.25 4v3a.75.75 0 0 0 1.5 0V5.811l2.306 2.3a2.752 2.752 0 0 0 3.888 0L17.53 4.53a.749.749 0 0 0 0-1.06z" fill="#ff0000" opacity="1" data-original="#000000"></path></g></svg>