<svg xmlns="http://www.w3.org/2000/svg" version="1.1" xmlns:xlink="http://www.w3.org/1999/xlink" width="512" height="512" x="0" y="0" viewBox="0 0 32 32" style="enable-background:new 0 0 512 512" xml:space="preserve" fill-rule="evenodd" class=""><g><path d="M7.518 2H7.5A5.503 5.503 0 0 0 2 7.487c-.089 3.803 1.777 7.897 4.749 11.549 4.362 5.359 11.083 9.765 17.057 10.945a.992.992 0 0 0 .343.008l.369.011C27.545 29.99 30 27.529 30 24.5s-2.455-5.49-5.482-5.5H24.5a5.498 5.498 0 0 0-4.724 2.684c-4.147-2.599-7.278-5.049-9.987-9.182A5.497 5.497 0 0 0 13 7.5 5.503 5.503 0 0 0 7.518 2zm12.896 11H27a1 1 0 0 0 0-2h-6.586l1.293-1.293a1 1 0 0 0-1.414-1.414l-3 3a.999.999 0 0 0 0 1.414l3 3a1 1 0 0 0 1.414-1.414z" fill="#666666" opacity="1" data-original="#000000"></path></g></svg>