<svg xmlns="http://www.w3.org/2000/svg" version="1.1" xmlns:xlink="http://www.w3.org/1999/xlink" width="512" height="512" x="0" y="0" viewBox="0 0 512 512" style="enable-background:new 0 0 512 512" xml:space="preserve" fill-rule="evenodd" class=""><g><path d="M277.96 111.952c85.01 10.8 150.82 83.47 150.82 171.39 0 95.36-77.42 172.78-172.78 172.78s-172.78-77.42-172.78-172.78c0-17.62 2.64-34.63 7.55-50.65l-34.39-10.55c-5.94 19.36-9.14 39.91-9.14 61.2 0 115.22 93.54 208.76 208.76 208.76s208.76-93.54 208.76-208.76c0-104.58-77.07-191.3-177.47-206.42l35.67-29.18-22.78-27.84-80.82 66.11 55.29 88.58 30.52-19.05z" fill="#ffffff" opacity="1" data-original="#000000"></path></g></svg>