<svg xmlns="http://www.w3.org/2000/svg" version="1.1" xmlns:xlink="http://www.w3.org/1999/xlink" width="512" height="512" x="0" y="0" viewBox="0 0 97 97" style="enable-background:new 0 0 512 512" xml:space="preserve" class=""><g><path fill="#f00" fill-rule="evenodd" d="M8.418 23.854a6.6 6.6 0 0 1 6.6-6.6h15.896a6.6 6.6 0 0 1 6.6 6.6V39.75a6.6 6.6 0 0 1-6.6 6.6H15.017a6.6 6.6 0 0 1-6.6-6.6zm51.43 0a6.6 6.6 0 0 1 6.6-6.6h15.895a6.6 6.6 0 0 1 6.6 6.6V39.75a6.6 6.6 0 0 1-6.6 6.6H66.448a6.6 6.6 0 0 1-6.6-6.6zm-4.56 32.407h31.056a2.6 2.6 0 1 0 0-5.2H11.018a2.6 2.6 0 0 0 0 5.2h30.908L29.972 76.966c-2.54 4.4.635 9.9 5.716 9.9h25.838c5.08 0 8.256-5.5 5.716-9.9z" clip-rule="evenodd" opacity="1" data-original="#000000"></path></g></svg>