<svg xmlns="http://www.w3.org/2000/svg" version="1.1" xmlns:xlink="http://www.w3.org/1999/xlink" width="512" height="512" x="0" y="0" viewBox="0 0 24 24" style="enable-background:new 0 0 512 512" xml:space="preserve" class=""><g><path d="M12 2c-1.9 0-3.8.6-5.3 1.5l6.9 6.9V7.7c0-.4.3-.8.8-.8.4 0 .8.3.8.8v4.5c0 .3-.2.6-.5.7-.1 0-.2.1-.3.1-.2 0-.4-.1-.5-.2L5.6 4.6l-.1-.1C3.4 6.3 2 9 2 12c0 5.5 4.5 10 10 10 1.9 0 3.8-.6 5.3-1.5l-6.9-6.9v2.7c0 .4-.3.8-.8.8-.4 0-.8-.3-.8-.8v-4.5c0-.3.2-.6.5-.7s.6-.1.8.2l8.2 8.2.1.1c2.1-1.8 3.5-4.6 3.5-7.6C22 6.5 17.6 2 12 2z" fill="#1976D2" opacity="1" data-original="#000000" class=""></path></g></svg>