<svg height="512" viewBox="0 0 56 60" width="512" xmlns="http://www.w3.org/2000/svg" fill="#fff"><g id="008---Good-Conversion-Rate" transform="translate(0 -1)"><path id="Shape" d="m28 61c15.2023847-.092626 27.5533818-12.2990954 27.8249359-27.4993368s-11.6355607-27.84008481-26.8249359-28.4756632v-2.094c.0029956-.69361191-.3645488-1.33605207-.964-1.685-.5729168-.33312111-1.2813496-.32967654-1.851.009l-5.238 3.069c-.5874647.35415521-.9466174.99004029-.9466174 1.676s.3591527 1.32184479.9466174 1.676l5.239 3.069c.569459.3380723 1.2772787.3415158 1.85.009.5994512-.3489479.9669956-.99138809.964-1.685v-2.044c14.2195877.54731254 25.3573752 12.4240307 24.9913993 26.6494406s-12.0997279 25.513714-26.3286477 25.3291342c-14.2289197-.1845798-25.66590526-11.7734583-25.6627516-26.0035748 0-.5522847-.44771525-1-1-1s-1 .4477153-1 1c.01763454 15.4566626 12.5433374 27.9823655 28 28zm-5.979-54.987 4.979-2.913.021 2.794c-.0088374.03494436-.015847.07032571-.021.106.0053961.04047699.013413.08056119.024.12l.022 2.812z"/><path id="Path" d="m1.147 29.989c.05061008.0078736.10178411.0115528.153.011.49507931-.0005627.91522361-.3632986.988-.853.048-.324.1-.645.162-.964.09200013-.5386749-.26546227-1.0514451-.80270662-1.1514611-.53724436-.100016-1.05528373.2497666-1.16329338.7854611-.064.343-.123.689-.174 1.036-.08127423.5445087.29285979 1.052294.837 1.136z"/><path id="Path" d="m2.2 24.943c.25009434.0886939.52518631.0743497.76469983-.0398741.23951352-.1142237.42380761-.3189602.51230017-.5691259.11533333-.324.236-.645.362-.963.13254555-.3318997.07795628-.7092999-.14320456-.9900376-.22116083-.2807377-.57529364-.4221621-.92900001-.371-.35370638.051162-.6532499.2871379-.78579543.6190376-.13333333.342-.263.6876667-.389 1.037-.08874215.2499654-.07453766.5249473.03948789.7644384.11402555.2394912.31852932.4238686.56851211.5125616z"/><path id="Path" d="m4.388 19.854c.22659007.1381918.49882137.1806391.75672701.1179914.25790564-.0626476.48032833-.2252508.61827299-.4519914.2-.326.405-.647.615-.963.30762258-.4589486.1849486-1.0803774-.27400002-1.388-.45894861-.3076226-1.08037737-.1849486-1.38799998.274-.228.3406667-.44866667.6863333-.662 1.037-.28710421.4716642-.13758266 1.0867619.334 1.374z"/><path id="Path" d="m8 15.861c.28221778.0001266.55134966-.1190033.741-.328.255-.282.518-.558.786-.829.38908459-.3921222.38662215-1.0254154-.00550002-1.4145-.39212216-.3890846-1.02541537-.3866222-1.41449998.0055-.29.292-.57266667.59-.848.894-.26593334.2930613-.33402968.7153787-.1736884 1.0771744s.51895436.5950033.9146884.5948256z"/><path id="Path" d="m12 12.25c.2139736-.0015049.4218222-.0716056.593-.2.2666667-.1953333.5353333-.3856667.806-.571.4570156-.3101079.5761079-.9319844.266-1.389-.3101079-.45701563-.9319844-.57610789-1.389-.266-.2953333.2-.5856667.4056667-.871.617-.3515714.2554232-.4979396.7086651-.3621633 1.1214705.1357762.4128054.5226134.6906702.9571633.6875295z"/><path id="Path" d="m16.171 9.723c.1513263-.00010838.3006863-.03428687.437-.1.2666667-.12933333.5333333-.254.8-.374.3261835-.14576436.5498251-.454473.5866812-.80983836.0368561-.35536537-.1186726-.703399-.408-.913-.2893274-.20960101-.6684977-.248926-.9946812-.10316164-.29.13-.576.263-.861.4-.4202253.20351427-.6436852.67074221-.5383458 1.12561691.1053394.45487471.5114372.77631036.9783458.77438309z"/><path id="Shape" d="m11 48h34c.5522847 0 1-.4477153 1-1s-.4477153-1-1-1h-3v-21c0-1.1045695-.8954305-2-2-2h-2c-1.1045695 0-2 .8954305-2 2v21h-2v-17c0-1.1045695-.8954305-2-2-2h-2c-1.1045695 0-2 .8954305-2 2v17h-2v-13c0-1.1045695-.8954305-2-2-2h-2c-1.1045695 0-2 .8954305-2 2v13h-2v-7c0-1.1045695-.8954305-2-2-2h-2c-1.1045695 0-2 .8954305-2 2v7h-1c-.5522847 0-1 .4477153-1 1s.4477153 1 1 1zm27-23h2v21h-2zm-8 4h2v17h-2zm-8 4h2v13h-2zm-8 6h2v7h-2z"/><path id="Path" d="m12.141 32.511c.1801313.3030088.5064924.4887953.859.489.1796646.000294.3560018-.048458.51-.141l24.947-14.811-.427 1.709c-.0644087.2573975-.0238814.5298406.1126593.7573459.1365406.2275052.3578997.3914195.6153407.4556541.0790796.0201612.1603912.0302411.242.03.4583065-.0004704.8576317-.3124303.969-.757l1-4c.0644087-.2573975.0238814-.5298406-.1126593-.7573459-.1365406-.2275052-.3578997-.3914195-.6153407-.4556541l-4-1c-.3498693-.0959435-.72426.0051249-.9783171.2641012-.2540571.2589762-.3479281.635236-.2452935.9832013.1026346.3479652.385675.6130526.7396106.6926975l1.6.4-24.868 14.77c-.2279919.1356235-.3927518.3562808-.4580182.6134079-.0652664.257127-.0256902.5296508.1100182.7575921z"/></g></svg>