<svg xmlns="http://www.w3.org/2000/svg" version="1.1" xmlns:xlink="http://www.w3.org/1999/xlink" width="512" height="512" x="0" y="0" viewBox="0 0 68 68" style="enable-background:new 0 0 512 512" xml:space="preserve" class=""><g><path d="M37.514 33.286c0 .17-.01.34-.03.51l-1.63-.63c-1.694-.678-3.336 1.024-2.68 2.65.25.65.49 1.28.73 1.9-.3.07-.6.1-.92.1-2.5 0-4.53-2.03-4.53-4.53s2.03-4.53 4.53-4.53 4.53 2.03 4.53 4.53z" fill="#02566e" opacity="1" data-original="#000000" class=""></path><path d="M31.055 3.063C16.148 3.999 4.007 16.14 3.071 31.057c-1.078 16.952 12.05 31.167 28.615 31.89.712.03 1.301-.57 1.301-1.282v-4.037c0-.681-.518-1.26-1.2-1.301-12.334-.62-22.167-10.85-22.167-23.338 0-12.883 10.473-23.377 23.367-23.377 12.497 0 22.717 9.843 23.348 22.177.03.672.62 1.2 1.29 1.2h4.038c.722 0 1.312-.6 1.281-1.311-.712-16.555-14.927-29.683-31.889-28.615z" fill="#02566e" opacity="1" data-original="#000000" class=""></path><path d="M31.035 15.967c-7.84.875-14.185 7.22-15.06 15.06-1.098 9.833 6.193 18.263 15.609 19.025a1.288 1.288 0 0 0 1.403-1.28v-4.068c0-.651-.488-1.2-1.139-1.271-5.897-.641-10.351-6.173-9.182-12.447.773-4.19 4.139-7.555 8.328-8.328a10.528 10.528 0 0 1 12.447 9.182c.07.61.549 1.088 1.149 1.14.03.01.07.01.112.01h4.077c.753 0 1.342-.651 1.281-1.404-.772-9.426-9.192-16.707-19.025-15.619z" fill="#02566e" opacity="1" data-original="#000000" class=""></path><path d="M31.06 3.062C16.144 4.002 4.007 16.14 3.066 31.054 1.997 48.01 15.123 62.227 31.68 62.943c.717.03 1.31-.564 1.31-1.282v-4.036c0-.68-.523-1.262-1.201-1.296-12.337-.627-22.172-10.853-22.172-23.343 0-12.882 10.48-23.373 23.373-23.373 12.49 0 22.716 9.845 23.343 22.173.034.678.616 1.2 1.295 1.2h4.037c.718 0 1.313-.593 1.282-1.31-.716-16.558-14.933-29.683-31.889-28.614z" fill="#02566e" opacity="1" data-original="#000000" class=""></path><path d="M31.034 15.97c-7.844.875-14.184 7.215-15.058 15.06-1.096 9.832 6.19 18.256 15.612 19.024a1.291 1.291 0 0 0 1.403-1.28v-4.073c0-.652-.493-1.193-1.142-1.264a10.532 10.532 0 0 1-9.186-12.45c.776-4.187 4.142-7.553 8.33-8.328a10.532 10.532 0 0 1 12.45 9.185c.07.649.61 1.142 1.263 1.142h4.074c.754 0 1.34-.651 1.279-1.403-.768-9.422-9.192-16.708-19.025-15.612z" fill="#02566e" opacity="1" data-original="#000000" class=""></path><path d="M64.794 45.996c-.105-.084 1.402.515-29.5-11.44-.45-.18-.9.27-.72.72 11.48 29.75 11.271 29.333 11.42 29.52.26.32.81.26.96-.17l4.52-12.81c.06-.16.18-.28.34-.34l12.81-4.52c.444-.16.473-.704.17-.96zM43.252 42.03a.75.75 0 0 1-.97.43l-1.274-.494a.75.75 0 1 1 .541-1.398l1.275.493a.75.75 0 0 1 .428.97zm11.679 4.519a.75.75 0 0 1-.97.429L45.493 43.7a.75.75 0 1 1 .54-1.398l8.47 3.276a.75.75 0 0 1 .428.97z" fill="#02566e" opacity="1" data-original="#000000" class=""></path></g></svg>