<svg xmlns="http://www.w3.org/2000/svg" version="1.1" xmlns:xlink="http://www.w3.org/1999/xlink" width="512" height="512" x="0" y="0" viewBox="0 0 512 512" style="enable-background:new 0 0 512 512" xml:space="preserve" class=""><g><g fill="#ff2147"><path d="M511 264.2c-3 13.8-11.2 23.1-25.2 27-15.3 4.3-28-.4-38.8-11.3L321.4 153.7c-21-21-42.2-41.9-65.4-65L64.7 280.1c-16 16-38.8 16.9-53.6 2.9s-15-38 .6-53.7C83.9 156.7 156.3 84.2 228.9 12c15.8-15.7 38-16.1 53.5-.6 73 72.5 145.7 145.2 218.2 218.1 9.6 9.6 13.4 21.4 10.4 34.7z" fill="#28a745" opacity="1" data-original="#ff2147"></path><path d="M511 483.4c-3 13.8-11.2 23.1-25.2 27-15.3 4.3-28-.5-38.8-11.3-41.9-42-83.7-84.1-125.5-126.2-21-21-42.2-41.9-65.4-65L64.7 499.3c-16 16-38.8 16.9-53.6 2.9s-15-38 .6-53.7C83.9 375.9 156.4 303.4 229 231.2c15.8-15.7 38-16.1 53.5-.6 73 72.5 145.7 145.2 218.2 218.1 9.5 9.5 13.3 21.3 10.3 34.7z" fill="#28a745" opacity="1" data-original="#ff2147"></path></g></g></svg>