<svg xmlns="http://www.w3.org/2000/svg" version="1.1" xmlns:xlink="http://www.w3.org/1999/xlink" width="512" height="512" x="0" y="0" viewBox="0 0 24 24" style="enable-background:new 0 0 512 512" xml:space="preserve" class=""><g><path d="m17.625 14.174 2.642 1.576a1.5 1.5 0 0 1 .7 1.583 4.527 4.527 0 0 1-5.6 3.509A17.441 17.441 0 0 1 3.159 8.635a4.526 4.526 0 0 1 3.507-5.6h.016a1.5 1.5 0 0 1 1.587.708l1.564 2.633A2.051 2.051 0 0 1 9.2 9.128l-1.657 1.105a11.6 11.6 0 0 0 6.211 6.226l1.115-1.665a2.052 2.052 0 0 1 2.756-.62zm3.067-10.461a.75.75 0 0 0-.406-.405A.742.742 0 0 0 20 3.25h-3.333a.75.75 0 1 0 0 1.5h1.522L14.47 8.47a.75.75 0 1 0 1.06 1.06l3.72-3.719v1.522a.75.75 0 0 0 1.5 0V4a.751.751 0 0 0-.058-.287z" fill="#666666" opacity="1" data-original="#000000" class=""></path></g></svg>