<svg xmlns="http://www.w3.org/2000/svg" version="1.1" xmlns:xlink="http://www.w3.org/1999/xlink" width="512" height="512" x="0" y="0" viewBox="0 0 24 24" style="enable-background:new 0 0 512 512" xml:space="preserve" class=""><g><g fill="#000"><path d="M5.128 8.154v6.974c.103 1.333.205 3.077.308 4.308C5.538 20.872 6.769 22 8.206 22h7.589c1.436 0 2.666-1.128 2.77-2.564.102-1.23.204-2.974.307-4.308.102-1.538 0-4.718 0-6.974zM19.18 5.077h-2.565l-.82-1.539C15.282 2.615 14.359 2 13.333 2h-2.461C9.846 2 8.82 2.615 8.41 3.538L7.385 5.077H4.82c-.41 0-.821.41-.821.82s.41.821.82.821h14.36c.41 0 .82-.308.82-.82s-.41-.821-.82-.821zm-10.052 0 .513-.82c.205-.41.615-.719 1.128-.719h2.462c.513 0 .923.206 1.128.718l.513.82z" fill="#d54837" opacity="1" data-original="#000000" class=""></path></g></g></svg>