<svg xmlns="http://www.w3.org/2000/svg" version="1.1"
      xmlns:xlink="http://www.w3.org/1999/xlink"
      xmlns:svgjs="http://svgjs.com/svgjs" width="512" height="512" x="0" y="0" viewBox="1 1 32 32" style="enable-background:new 0 0 512 512" xml:space="preserve" class="">
      <g>
            <path d="M1.67 27.2h7.38c.04 2.65 2.2 4.8 4.85 4.8 2.66 0 4.82-2.15 4.86-4.8h7.38c.59 0 1.07-.48 1.07-1.06v-4.76c0-.59-.48-1.06-1.07-1.06-.4 0-.8-.17-1.08-.44-.71-.59-.4-2.25-.46-3.04 3.83-.52 6.8-3.8 6.8-7.76.13-5.67-6.29-9.69-11.3-7.04C16.11-1 10.18-.58 6.59 2.88a10.744 10.744 0 0 0-3.38 7.81v8.08c0 .85-.69 1.55-1.54 1.55-.59 0-1.07.47-1.07 1.06v4.76c0 .58.48 1.06 1.07 1.06zm12.23 2.67c-1.48 0-2.69-1.19-2.72-2.67h5.45a2.728 2.728 0 0 1-2.73 2.67zM29.26 9.08c-.24 7.54-11.2 7.55-11.44 0 .22-7.55 11.21-7.57 11.44 0z" fill="#04566e" data-original="#000000" opacity="1"></path>
            <path d="M24.429 11.467c.99.982 2.492-.518 1.509-1.509L24.608 8.63V5.82a1.067 1.067 0 1 0-2.134 0v3.252c-.099.65 1.343 1.691 1.954 2.395z" fill="#04566e" data-original="#000000" opacity="1"></path>
      </g>
</svg>