<!DOCTYPE svg PUBLIC "-//W3C//DTD SVG 1.1//EN" "http://www.w3.org/Graphics/SVG/1.1/DTD/svg11.dtd">
<!-- Uploaded to: SVG Repo, www.svgrepo.com, Transformed by: SVG Repo Mixer Tools -->
<svg fill="#00556E" width="800px" height="800px" viewBox="0 0 20 20" xmlns="http://www.w3.org/2000/svg">
<g id="SVGRepo_bgCarrier" stroke-width="0"/>
<g id="SVGRepo_tracerCarrier" stroke-linecap="round" stroke-linejoin="round"/>
<g id="SVGRepo_iconCarrier">
<path d="M5 4a2 2 0 1 1 0-4 2 2 0 0 1 0 4zm5 0a2 2 0 1 1 0-4 2 2 0 0 1 0 4zm5 0a2 2 0 1 1 0-4 2 2 0 0 1 0 4zM5 9a2 2 0 1 1 0-4 2 2 0 0 1 0 4zm5 0a2 2 0 1 1 0-4 2 2 0 0 1 0 4zm5 0a2 2 0 1 1 0-4 2 2 0 0 1 0 4zM5 14a2 2 0 1 1 0-4 2 2 0 0 1 0 4zm5 0a2 2 0 1 1 0-4 2 2 0 0 1 0 4zm0 6a2 2 0 1 1 0-4 2 2 0 0 1 0 4zm5-6a2 2 0 1 1 0-4 2 2 0 0 1 0 4z"/>
</g>
</svg>