<svg xmlns="http://www.w3.org/2000/svg" version="1.1" xmlns:xlink="http://www.w3.org/1999/xlink" width="512" height="512" x="0" y="0" viewBox="0 0 24 24" style="enable-background:new 0 0 512 512" xml:space="preserve" class=""><g><path d="M20.218 4.634C18.792 2.985 15.72 2 12 2H12c-3.72 0-6.792.984-8.218 2.634-2.366 2.737-2.366 9.995 0 12.733a6.113 6.113 0 0 0 1.645 1.274l.332 1.999a1.999 1.999 0 0 0 3.083 1.335l2.732-1.823a1.011 1.011 0 0 1 .56-.16c3.662-.025 6.683-1.007 8.084-2.626 2.366-2.737 2.366-9.995 0-12.732ZM12 5.75A1.25 1.25 0 1 1 10.75 7 1.25 1.25 0 0 1 12 5.75Zm1 10.75h-2a1 1 0 0 1 0-2v-3a1 1 0 0 1 0-2h1a1 1 0 0 1 1 1v4a1 1 0 0 1 0 2Z" data-name="Layer 2" fill="#1976d2" opacity="1" data-original="#000000"></path></g></svg>