<svg xmlns="http://www.w3.org/2000/svg" version="1.1" xmlns:xlink="http://www.w3.org/1999/xlink" width="512" height="512" x="0" y="0" viewBox="0 0 60 60" style="enable-background:new 0 0 512 512" xml:space="preserve" class=""><g><path d="M1.172 56 4 58.828a4 4 0 0 0 5.657 0l41.012-41.012a4 4 0 0 0 0-5.657l-2.828-2.828a4 4 0 0 0-5.657 0L1.172 50.343a4 4 0 0 0 0 5.657zm34.647-37.477 5.658 5.658-25.456 25.455-5.657-5.657zm7.781-7.778a2 2 0 0 1 2.829 0l2.828 2.828a2 2 0 0 1 0 2.829l-6.364 6.365-5.658-5.658zM2.586 51.757l6.364-6.364 5.657 5.657-6.364 6.364a2 2 0 0 1-2.829 0l-2.828-2.828a2 2 0 0 1 0-2.829zM59 5a1 1 0 0 0-1-1 3 3 0 0 1-3-3 1 1 0 0 0-2 0 3 3 0 0 1-3 3 1 1 0 0 0 0 2 3 3 0 0 1 3 3 1 1 0 0 0 2 0 3 3 0 0 1 3-3 1 1 0 0 0 1-1zm-5 1a5.017 5.017 0 0 0-1-1 5.017 5.017 0 0 0 1-1 5.017 5.017 0 0 0 1 1 5.017 5.017 0 0 0-1 1zM54 23a1 1 0 0 0-2 0 3 3 0 0 1-3 3 1 1 0 0 0 0 2 3 3 0 0 1 3 3 1 1 0 0 0 2 0 3 3 0 0 1 3-3 1 1 0 0 0 0-2 3 3 0 0 1-3-3zm-1 5a5.017 5.017 0 0 0-1-1 5.017 5.017 0 0 0 1-1 5.017 5.017 0 0 0 1 1 5.017 5.017 0 0 0-1 1zM30 14a1 1 0 0 0 2 0 3 3 0 0 1 3-3 1 1 0 0 0 0-2 3 3 0 0 1-3-3 1 1 0 0 0-2 0 3 3 0 0 1-3 3 1 1 0 0 0 0 2 3 3 0 0 1 3 3zm1-5a5.017 5.017 0 0 0 1 1 5.017 5.017 0 0 0-1 1 5.017 5.017 0 0 0-1-1 5.017 5.017 0 0 0 1-1zM37.293 5.707a1 1 0 0 0 1.414 0L39 5.414l.293.293a1 1 0 0 0 1.414-1.414L40.414 4l.293-.293a1 1 0 1 0-1.414-1.414L39 2.586l-.293-.293a1 1 0 0 0-1.414 1.414l.293.293-.293.293a1 1 0 0 0 0 1.414zM59.707 15.293a1 1 0 0 0-1.414 0l-.293.293-.293-.293a1 1 0 0 0-1.414 1.414l.293.293-.293.293a1 1 0 1 0 1.414 1.414l.293-.293.293.293a1 1 0 0 0 1.414-1.414L59.414 17l.293-.293a1 1 0 0 0 0-1.414zM46.707 30.293a1 1 0 0 0-1.414 0l-.293.293-.293-.293a1 1 0 0 0-1.414 1.414l.293.293-.293.293a1 1 0 1 0 1.414 1.414l.293-.293.293.293a1 1 0 0 0 1.414-1.414L46.414 32l.293-.293a1 1 0 0 0 0-1.414z" fill="#ffffff" opacity="1" data-original="#000000" class=""></path></g></svg>