<svg id="solid_final" height="512" viewBox="0 0 48 48" width="512" xmlns="http://www.w3.org/2000/svg" data-name="solid final" fill="#fff"><path d="m.75 47.25h11.072v-31.7h-11.072zm3.264-26.263h6.222v2.177h-6.222zm0 6.215h6.222v2.177h-6.222zm0 6.216h6.222v2.182h-6.222zm0 6.216h6.222v2.177h-6.222z"/><path d="m36.178 15.547v31.7h11.072v-31.7zm7.9 26.264h-6.225v-2.177h6.222zm0-6.216h-6.225v-2.177h6.222zm0-6.216h-6.225v-2.179h6.222zm0-6.215h-6.225v-2.177h6.222z"/><path d="m11.024.75h25.952v5.412h-25.952z"/><path d="m19.432 30.129h3.818v17.121h-3.818z"/><path d="m24.75 30.129h3.818v17.121h-3.818z"/><path d="m13.322 47.25h4.61v-17.871a.75.75 0 0 1 .75-.75h10.636a.75.75 0 0 1 .75.75v17.871h4.61v-39.588h-21.356zm5.356-33.506h3.322v-3.322h3.606v3.322h3.322v3.606h-3.322v3.322h-3.606v-3.322h-3.322z"/></svg>