<svg xmlns="http://www.w3.org/2000/svg" version="1.1" xmlns:xlink="http://www.w3.org/1999/xlink" width="512" height="512" x="0" y="0" viewBox="0 0 464.074 464.074" style="enable-background:new 0 0 512 512" xml:space="preserve" class=""><g><path fill="#80aaff" d="M464.074 300.037v32c0 17.673-14.327 32-32 32h-244a8 8 0 0 0-8 8v53.48c0 21.46-26.02 32.13-41.09 16.85L7.354 308.887c-14.95-15.17-4.21-40.85 17.09-40.85h407.63c17.673 0 32 14.327 32 32z" opacity="1" data-original="#80aaff" class=""></path><path fill="#99d856" d="M456.794 155.187c14.95 15.17 4.21 40.85-17.09 40.85H32.074c-17.673 0-32-14.327-32-32v-32c0-17.673 14.327-32 32-32h244a8 8 0 0 0 8-8v-53.48c0-21.46 26.02-32.13 41.09-16.85z" opacity="1" data-original="#99d856" class=""></path><path fill="#aaeb6b" d="M444.884 143.107c-319.664-15.511-414.631-31.418-443.5 30.02-1.853-6.279-1.31-8.701-1.31-41.09 0-17.67 14.33-32 32-32h244c4.42 0 8-3.58 8-8v-53.48c0-21.46 26.02-32.13 41.09-16.85z" opacity="1" data-original="#aaeb6b" class=""></path><path fill="#6994ff" d="M464.074 311.417v20.62c0 17.67-14.33 32-32 32h-244c-4.42 0-8 3.58-8 8v53.48c0 21.46-26.02 32.13-41.09 16.85C18.352 320.045 35.933 337.876 26.314 328.107c149.641-52.406 215.093 4.545 437.76-16.69z" opacity="1" data-original="#6994ff" class=""></path></g></svg>