<?xml version="1.0" encoding="UTF-8"?>
<svg xmlns="http://www.w3.org/2000/svg" xmlns:xlink="http://www.w3.org/1999/xlink" version="1.1" id="Capa_1" x="0px" y="0px" viewBox="0 0 512 512" style="enable-background:new 0 0 512 512;" xml:space="preserve" width="512" height="512">
<g id="XMLID_107_">
	
		<path id="XMLID_108_" style="fill:none;stroke:#000000;stroke-width:20;stroke-linecap:round;stroke-linejoin:round;stroke-miterlimit:10;" d="&#10;&#9;&#9;M341.346,30.082h70.286c11.091,0,20.082,8.99,20.082,20.081v431.755c0,11.092-8.991,20.082-20.082,20.082H100.367&#10;&#9;&#9;c-11.091,0-20.082-8.99-20.082-20.082V50.163c0-11.091,8.991-20.081,20.082-20.081h70.286"/>
	
		<path id="XMLID_109_" style="fill:none;stroke:#000000;stroke-width:20;stroke-linecap:round;stroke-linejoin:round;stroke-miterlimit:10;" d="&#10;&#9;&#9;M321.265,50.163h-130.53c-11.091,0-20.082-8.99-20.082-20.081l0,0c0-11.092,8.991-20.082,20.082-20.082h130.53&#10;&#9;&#9;c11.091,0,20.082,8.99,20.082,20.082l0,0C341.346,41.173,332.356,50.163,321.265,50.163z"/>
	
		<path id="XMLID_110_" style="fill:none;stroke:#000000;stroke-width:20;stroke-linecap:round;stroke-linejoin:round;stroke-miterlimit:10;" d="&#10;&#9;&#9;M169.856,160.612l22.622-59.397c0.462-1.13,2.062-1.132,2.527-0.003l22.417,59.399"/>
	
		<line id="XMLID_111_" style="fill:none;stroke:#000000;stroke-width:20;stroke-linecap:round;stroke-linejoin:round;stroke-miterlimit:10;" x1="176.911" y1="145.819" x2="210.48" y2="145.819"/>
	
		<polyline id="XMLID_112_" style="fill:none;stroke:#000000;stroke-width:20;stroke-linecap:round;stroke-linejoin:round;stroke-miterlimit:10;" points="&#10;&#9;&#9;144.687,100.367 120.449,100.367 120.449,160.171 &#9;"/>
	
		<line id="XMLID_113_" style="fill:none;stroke:#000000;stroke-width:20;stroke-linecap:round;stroke-linejoin:round;stroke-miterlimit:10;" x1="120.449" y1="129.703" x2="142.762" y2="129.703"/>
	
		<line style="fill:none;stroke:#000000;stroke-width:20;stroke-linecap:round;stroke-linejoin:round;stroke-miterlimit:10;" x1="292.183" y1="141.096" x2="311.456" y2="160.369"/>
	
		<path id="XMLID_114_" style="fill:none;stroke:#000000;stroke-width:20;stroke-linecap:round;stroke-linejoin:round;stroke-miterlimit:10;" d="&#10;&#9;&#9;M311.224,130.49c0,16.637-13.487,30.122-30.123,30.122c-16.636,0-30.122-13.485-30.122-30.122&#10;&#9;&#9;c0-16.637,13.486-30.123,30.122-30.123C297.738,100.367,311.224,113.854,311.224,130.49z"/>
	
		<path id="XMLID_115_" style="fill:none;stroke:#000000;stroke-width:20;stroke-linecap:round;stroke-linejoin:round;stroke-miterlimit:10;" d="&#10;&#9;&#9;M389.575,106.516c-0.283-0.557-10.732-9.021-23.387-5.209c-11.621,3.5-13.246,16.9-4.839,22.38c0,0,8.249,3.681,17.399,7.056&#10;&#9;&#9;c22.025,8.124,12.537,29.432-5.193,29.432c-8.879,0-16.331-3.888-20.842-8.865"/>
	
		<path id="XMLID_116_" style="fill:none;stroke:#000000;stroke-width:20;stroke-linecap:round;stroke-linejoin:round;stroke-miterlimit:10;" d="&#10;&#9;&#9;M371.469,250.98H130.49c-11.091,0-20.081-8.991-20.081-20.081l0,0c0-11.092,8.991-20.082,20.081-20.082h240.979&#10;&#9;&#9;c11.091,0,20.082,8.99,20.082,20.082l0,0C391.551,241.988,382.56,250.98,371.469,250.98z"/>
	
		<line id="XMLID_117_" style="fill:none;stroke:#000000;stroke-width:20;stroke-linecap:round;stroke-linejoin:round;stroke-miterlimit:10;" x1="120.449" y1="301.184" x2="391.551" y2="301.184"/>
	
		<line id="XMLID_118_" style="fill:none;stroke:#000000;stroke-width:20;stroke-linecap:round;stroke-linejoin:round;stroke-miterlimit:10;" x1="120.449" y1="351.388" x2="391.551" y2="351.388"/>
	
		<line id="XMLID_119_" style="fill:none;stroke:#000000;stroke-width:20;stroke-linecap:round;stroke-linejoin:round;stroke-miterlimit:10;" x1="120.449" y1="401.592" x2="391.551" y2="401.592"/>
	
		<line id="XMLID_120_" style="fill:none;stroke:#000000;stroke-width:20;stroke-linecap:round;stroke-linejoin:round;stroke-miterlimit:10;" x1="281.102" y1="451.796" x2="391.551" y2="451.796"/>
</g>















</svg>
