<svg xmlns="http://www.w3.org/2000/svg" version="1.1" xmlns:xlink="http://www.w3.org/1999/xlink" width="512" height="512" x="0" y="0" viewBox="0 0 512 512" style="enable-background:new 0 0 512 512" xml:space="preserve" class=""><g><path fill-rule="evenodd" d="M315.022 53.427 302.599 60.6h-80.933a8 8 0 0 0 0 16h53.22l-15.265 8.813 179.614 103.701v76.842c0 3.071-1.522 5.707-4.182 7.243l-41.635 24.037c-1.329.768-2.851.768-4.181 0s-2.091-2.086-2.091-3.621v-74.428L207.534 115.485l-50.853 29.36a7.965 7.965 0 0 0-2.91-.546H17.001a8 8 0 0 0 0 16h126.845c-.05.544-.076 1.097-.076 1.657V248H64.619a8 8 0 0 0 0 16h79.151v77.7H17a8 8 0 0 0 0 16h128.556c1.421 2.793 3.656 5.143 6.577 6.83l162.89 94.044c5.318 3.071 11.407 3.071 16.725 0l162.889-94.044c5.319-3.07 8.363-8.343 8.363-14.485V161.956c0-6.141-3.044-11.414-8.363-14.485l-162.89-94.044c-5.318-3.071-11.406-3.071-16.725 0zm-153.461 7.172a8 8 0 0 1 0 16H54.62a8 8 0 0 1 0-16z" clip-rule="evenodd" fill="#1976d2" opacity="1" data-original="#000000" class=""></path></g></svg>