<svg xmlns="http://www.w3.org/2000/svg" version="1.1" xmlns:xlink="http://www.w3.org/1999/xlink" xmlns:svgjs="http://svgjs.com/svgjs" width="512" height="512" x="0" y="0" viewBox="0 0 64 64" style="enable-background:new 0 0 512 512" xml:space="preserve" class=""><g><path d="M5.25 28.101V57c0 1.065.365 2.039.959 2.832l22.498-19.309zM54 21.086H10c-2.859-.016-5.004 2.513-4.75 5.318L32 40.569l26.75-14.165c.254-2.805-1.891-5.335-4.75-5.318zM57.791 59.832A4.706 4.706 0 0 0 58.75 57V28.101L35.293 40.522l22.498 19.309zM32.351 42.081a.75.75 0 0 1-.702 0l-1.517-.804L7.284 60.886A4.712 4.712 0 0 0 10 61.75h44a4.712 4.712 0 0 0 2.716-.864L33.869 41.277l-1.517.804zM59 2.25H5A2.753 2.753 0 0 0 2.25 5v10.099A2.753 2.753 0 0 0 5 17.849h54a2.753 2.753 0 0 0 2.75-2.75V5A2.753 2.753 0 0 0 59 2.25zm-41.644 9.111a.75.75 0 0 1-.825 1.253l-1.781-1.173v2.133a.75.75 0 0 1-1.5 0v-2.133l-1.781 1.173a.75.75 0 0 1-.825-1.253l1.992-1.312-1.992-1.312a.75.75 0 0 1 .825-1.253l1.781 1.173V6.524a.75.75 0 0 1 1.5 0v2.133l1.781-1.173a.75.75 0 0 1 .825 1.253l-1.992 1.312zm12 0a.75.75 0 0 1-.825 1.253l-1.781-1.173v2.133a.75.75 0 0 1-1.5 0v-2.133l-1.781 1.173a.75.75 0 0 1-.825-1.253l1.992-1.312-1.992-1.312a.75.75 0 0 1 .825-1.253l1.781 1.173V6.524a.75.75 0 0 1 1.5 0v2.133l1.781-1.173a.75.75 0 0 1 .825 1.253l-1.992 1.312zm12 0a.75.75 0 0 1-.825 1.253l-1.781-1.173v2.133a.75.75 0 0 1-1.5 0v-2.133l-1.781 1.173a.75.75 0 0 1-.825-1.253l1.992-1.312-1.992-1.312a.75.75 0 0 1 .825-1.253l1.781 1.173V6.524a.75.75 0 0 1 1.5 0v2.133l1.781-1.173a.75.75 0 0 1 .825 1.253l-1.992 1.312zm12 0a.75.75 0 0 1-.825 1.253l-1.781-1.173v2.133a.75.75 0 0 1-1.5 0v-2.133l-1.781 1.173a.75.75 0 0 1-.825-1.253l1.992-1.312-1.992-1.312a.75.75 0 0 1 .825-1.253l1.781 1.173V6.524a.75.75 0 0 1 1.5 0v2.133l1.781-1.173a.75.75 0 0 1 .825 1.253l-1.992 1.312z" fill="#28a745" data-original="#000000" opacity="1" class=""></path></g></svg>