<svg xmlns="http://www.w3.org/2000/svg" version="1.1" xmlns:xlink="http://www.w3.org/1999/xlink" width="512" height="512" x="0" y="0" viewBox="0 0 512 512" style="enable-background:new 0 0 512 512" xml:space="preserve"><g><path d="M481.348 101.682c-4.75-7.886-15.004-10.434-22.912-5.69-34.135 20.56-57.313 54.879-63.591 94.161-1.456 9.103 4.745 17.669 13.848 19.119a16.34 16.34 0 0 0 2.658.211c8.059 0 15.151-5.848 16.461-14.06 4.728-29.543 22.168-55.357 47.852-70.824 7.903-4.76 10.446-15.015 5.684-22.917zM327.085 190.077c-6.304-39.255-29.477-73.547-63.58-94.084-7.9-4.745-18.155-2.196-22.917 5.69-4.755 7.902-2.206 18.162 5.69 22.918 25.663 15.451 43.096 41.244 47.84 70.77 1.316 8.206 8.408 14.048 16.461 14.048.88 0 1.772-.066 2.668-.211 9.105-1.462 15.3-10.028 13.838-19.131zM361.743.007c-9.222 0-16.695 7.473-16.695 16.695v111.301c0 9.222 7.473 16.695 16.695 16.695s16.695-7.473 16.695-16.695V16.702c0-9.222-7.472-16.695-16.695-16.695z" fill="#d54837" opacity="1" data-original="#000000"></path><circle cx="244.873" cy="44.531" r="16.695" fill="#d54837" opacity="1" data-original="#000000"></circle><circle cx="445.215" cy="44.531" r="16.695" fill="#d54837" opacity="1" data-original="#000000"></circle><path d="M345.048 278.259H241.126l29.826-39.581c5.548-7.364 4.081-17.831-3.282-23.38L241.002 195.2c-22.197-16.724-53.542-12.173-70.14 9.858l-31.97 42.426c-3.11-4.696-6.875-8.981-11.506-12.47-22.147-16.695-53.519-12.218-70.144 9.853-7.521 9.977-10.8 22.146-9.709 34.494-12.175 2.358-22.965 8.863-30.481 18.84-16.662 22.092-12.258 53.483 9.854 70.14 4.621 3.483 9.725 6.038 15.083 7.733l-31.888 42.315c-16.66 22.1-12.262 53.48 9.853 70.14l26.668 20.098c7.399 5.577 17.858 4.042 23.38-3.282l141.485-187.754v144.315c0 27.618 22.467 50.085 50.085 50.085h83.476V278.259zm-274.67 60.144c-5.546 7.355-16.047 8.796-23.375 3.278a16.571 16.571 0 0 1-6.483-11.011 16.552 16.552 0 0 1 3.195-12.369c3.282-4.353 8.293-6.647 13.358-6.647 7.023 0 9.399 2.88 23.358 13.402-8.909 11.831-6.867 9.12-10.053 13.347zm30.151-40.008c-13.505-10.18-18.615-12.478-19.82-21.059-1.405-10.02 6.335-19.01 16.548-19.01 8.172 0 15.336 5.965 16.516 14.363 1.215 8.581-3.1 12.242-13.244 25.706zM495.304 278.259H378.438v233.732h83.476c27.618 0 50.085-22.467 50.085-50.085V294.955c.001-9.223-7.478-16.696-16.695-16.696z" fill="#d54837" opacity="1" data-original="#000000"></path></g></svg>