<svg id="Layer_1" enable-background="new 0 0 24 24" height="512" viewBox="0 0 24 24" width="512" xmlns="http://www.w3.org/2000/svg"><path d="m24 12c0-2.3-.1-4.4-.5-5.6-.4-1.4-.9-2.7-2.1-3.9-1.5-1.4-2.8-1.8-4.8-2.2-1.4-.2-3.1-.3-4.1-.3-.3 0-.6 0-.9 0-1.1 0-2.7.1-4.2.3-2 .4-3.4.9-4.8 2.2-1.3 1.2-1.7 2.5-2.1 3.9-.4 1.2-.5 3.3-.5 5.6s0 0 0 0c0 2.3.1 4.4.5 5.6.4 1.4.9 2.7 2.1 3.9 1.5 1.4 2.8 1.8 4.8 2.2 1.6.3 3.6.3 4.6.3 1 0 3 0 4.7-.3 1.9-.4 3.3-.8 4.8-2.2 1.2-1.1 1.7-2.4 2.1-3.9.3-1.2.4-3.3.4-5.6z" fill="#379df1"/><path d="m18.6 15.3v2.6c0 .4-.3.7-.7.7-.3 0-.6 0-.8 0-6.4 0-11.7-5.3-11.7-11.7 0-.2 0-.4 0-.8.1-.4.4-.7.7-.7h2.6c.2 0 .3.1.4.4 0 .1 0 .2.1.4.1 1 .4 2 .9 2.9.1.1 0 .3-.1.4l-1.6 1c.9 2.3 2.8 4 5 5l1.1-1.6c.1-.1.3-.1.4-.1.9.4 1.9.7 2.9.9.1 0 .2 0 .4.1s.4.4.4.5z" fill="#fff"/></svg>