<svg xmlns="http://www.w3.org/2000/svg" version="1.1" xmlns:xlink="http://www.w3.org/1999/xlink" width="512" height="512" x="0" y="0" viewBox="0 0 512 512" style="enable-background:new 0 0 512 512" xml:space="preserve" class=""><g><path d="M507.313 4.687a16 16 0 0 0-22.626 0L455.7 33.678 437.612 15.6a15.96 15.96 0 0 0-12.133-4.665l-169.218 8.683a15.991 15.991 0 0 0-10.493 4.665L4.687 265.363a16 16 0 0 0 0 22.627L224.01 507.313a16 16 0 0 0 22.627 0l241.08-241.08a15.991 15.991 0 0 0 4.665-10.493l8.689-169.218a16 16 0 0 0-4.665-12.133l-18.084-18.084 28.991-28.992a16 16 0 0 0 0-22.626zm-38.564 87.3-8.009 155.969-225.417 225.417L38.628 276.677 264.045 51.26l155.971-8.008 13.052 13.053L400 89.373A54.223 54.223 0 1 0 422.627 112L455.7 78.932zm-78.358 29.623a22.225 22.225 0 1 1-15.713-6.508 22.25 22.25 0 0 1 15.713 6.506zm-67.659 147.42a16 16 0 1 1-22.627 22.627L220.343 211.9a16 16 0 1 1 22.627-22.627zm-61.094 61.094a16 16 0 1 1-22.627 22.627l-79.762-79.762a16 16 0 0 1 22.627-22.627z" fill="#fd7e14" opacity="1" data-original="#000000" class=""></path></g></svg>