<svg xmlns="http://www.w3.org/2000/svg" version="1.1" xmlns:xlink="http://www.w3.org/1999/xlink" xmlns:svgjs="http://svgjs.com/svgjs" width="512" height="512" x="0" y="0" viewBox="0 0 500 500" style="enable-background:new 0 0 512 512" xml:space="preserve" class=""><g><linearGradient id="a" x1="105.025" x2="406.471" y1="373.297" y2="71.852" gradientTransform="matrix(1 0 0 -1 0 513.97)" gradientUnits="userSpaceOnUse"><stop stop-opacity="1" stop-color="#459dff" offset="0"></stop><stop stop-opacity="1" stop-color="#ff0000" offset="0"></stop></linearGradient><path fill="url(#a)" d="M32.9 212.9c99-105.5 465-106.9 478.6 77.4l-1.9 27c-.5 29.9-25 53.8-54.9 53.8-.8 0-54.2-6.9-54.2-6.9-29.4-.7-53-24.5-53.7-53.9l-2.5-28.6c-.8-9.7-7.3-17.9-16.5-21-46.7-15.6-97.2-15.7-143.9-.1-9.2 3.1-15.7 11.4-16.5 21l-2.5 28.8c-.6 29.4-24.3 53.1-53.7 53.8 0 0-53.5 7-54.2 7-30.3 0-54.9-24.6-55-55L.2 291.6c0-29.7 11.7-58 32.7-78.7z" data-original="url(#a)" class=""></path></g></svg>