<svg xmlns="http://www.w3.org/2000/svg" version="1.1" xmlns:xlink="http://www.w3.org/1999/xlink" width="512" height="512" x="0" y="0" viewBox="0 0 120 120" style="enable-background:new 0 0 512 512" xml:space="preserve"><g><g fill="#000"><path d="M94 89.293A29.95 29.95 0 0 1 84 91c-16.569 0-30-13.431-30-30s13.431-30 30-30c3.506 0 6.872.602 10 1.707V30c0-11.046-8.954-20-20-20H28.38A12.956 12.956 0 0 1 32 19v88.271c0 1.596 1.777 2.549 3.106 1.666l3.933-2.612a.998.998 0 0 1 1.01-.057l4.975 2.557a5.003 5.003 0 0 0 4.572 0l5.038-2.59c.287-.147.628-.147.915 0l5.038 2.59a5.003 5.003 0 0 0 4.572 0l5.039-2.59c.287-.147.627-.147.914 0l5.039 2.59a5.003 5.003 0 0 0 4.572 0l4.983-2.561a.998.998 0 0 1 .997.048l4.216 2.708c1.33.856 3.081-.1 3.081-1.682z" fill="#02566e" opacity="1" data-original="#000000"></path><path fill-rule="evenodd" d="M94 85.007a25.923 25.923 0 0 0 4-2.094c7.217-4.62 12-12.708 12-21.913s-4.783-17.293-12-21.913A25.92 25.92 0 0 0 84 35c-14.36 0-26 11.64-26 26s11.64 26 26 26a25.92 25.92 0 0 0 10-1.993zM85 64a4 4 0 0 1-4-4V50a2 2 0 1 1 4 0v10h10a2 2 0 1 1 0 4z" clip-rule="evenodd" fill="#02566e" opacity="1" data-original="#000000"></path><path d="M19.172 10.002A9 9 0 0 1 28 19v21.004A2 2 0 0 1 26 42H12a2 2 0 0 1-2-2V19c0-4.975 4.211-9.092 9.172-8.998z" fill="#02566e" opacity="1" data-original="#000000"></path></g></g></svg>