<svg xmlns="http://www.w3.org/2000/svg" version="1.1" xmlns:xlink="http://www.w3.org/1999/xlink" width="512" height="512" x="0" y="0" viewBox="0 0 512 512" style="enable-background:new 0 0 512 512" xml:space="preserve"><g><path d="M344.1 471.4c-139.4 4.5-389.8-244-273.5-378.9l19.7-17.1c20.8-20 53.7-19.7 74 .8.5.5 32.2 41.7 32.2 41.7 19.6 20.5 19.5 52.8-.1 73.3l-17.8 21.2c-6 7.1-7.2 17.2-3.1 25.6 21.1 42.5 55.5 76.9 98 98.1 8.4 4.2 18.4 3 25.6-3.1l21.3-17.9c20.5-19.6 52.7-19.6 73.3-.1 0 0 41.2 31.7 41.7 32.2 20.6 20.7 20.6 54.2 0 74.9l-15.6 18c-20 20.1-47.2 31.4-75.7 31.3zM286.4 40.6c-23.8 0-46.5 4.5-67.4 12.7-11.5 4.5-14.5 19.3-5.8 28 4.9 4.8 12.1 6.3 18.5 3.8 16.8-6.5 34.8-10 53.3-10.2 39.9-.4 78.6 15.3 107.1 43.3 29 28.5 45 66.7 45 107.3 0 19.1-3.5 37.6-10.2 54.8-2.5 6.3-1.1 13.5 3.7 18.3l.3.3c8.6 8.6 23.3 5.6 27.7-5.8 8.2-21 12.8-43.8 12.8-67.7-.1-101.7-83.2-184.8-185-184.8zm105.3 172c0 9.5-7.7 17.1-17.1 17.1h-75.3c-9.5 0-17.1-7.7-17.1-17.1v-89c0-9.5 7.7-17.1 17.1-17.1 9.5 0 17.1 7.7 17.1 17.1v71.9h58.2c9.4 0 17.1 7.6 17.1 17.1z" fill="#1976d2" opacity="1" data-original="#000000"></path></g></svg>