<?xml version="1.0" encoding="UTF-8" standalone="no"?>
<!-- Created with Inkscape (http://www.inkscape.org/) -->

<svg
   version="1.1"
   id="svg1173"
   xml:space="preserve"
   width="682.66669"
   height="682.66669"
   viewBox="0 0 682.66669 682.66669"
   xmlns="http://www.w3.org/2000/svg"
   xmlns:svg="http://www.w3.org/2000/svg"><defs
     id="defs1177"><clipPath
       clipPathUnits="userSpaceOnUse"
       id="clipPath1187"><path
         d="M 0,512 H 512 V 0 H 0 Z"
         id="path1185" /></clipPath></defs><g
     id="g1179"
     transform="matrix(1.3333333,0,0,-1.3333333,0,682.66667)"><g
       id="g1181"><g
         id="g1183"
         clip-path="url(#clipPath1187)"><g
           id="g1189"
           transform="translate(371.6895,225.4375)"><path
             d="M 0,0 C 0,28.15 39.888,28.15 39.888,0 V -63.054"
             style="fill:none;stroke:#000000;stroke-width:15;stroke-linecap:round;stroke-linejoin:round;stroke-miterlimit:10;stroke-dasharray:none;stroke-opacity:1"
             id="path1191" /></g><g
           id="g1193"
           transform="translate(411.5771,208.4395)"><path
             d="M 0,0 C 0,28.179 39.86,28.15 39.86,0 V -45.545"
             style="fill:none;stroke:#000000;stroke-width:15;stroke-linecap:round;stroke-linejoin:round;stroke-miterlimit:10;stroke-dasharray:none;stroke-opacity:1"
             id="path1195" /></g><g
           id="g1197"
           transform="translate(291.9131,311.7612)"><path
             d="M 0,0 C 0,28.15 39.888,28.15 39.888,0 V -129.344"
             style="fill:none;stroke:#000000;stroke-width:15;stroke-linecap:round;stroke-linejoin:round;stroke-miterlimit:10;stroke-dasharray:none;stroke-opacity:1"
             id="path1199" /></g><g
           id="g1201"
           transform="translate(331.8008,242.4355)"><path
             d="M 0,0 C 0,28.15 39.889,28.15 39.889,0 V -70.035"
             style="fill:none;stroke:#000000;stroke-width:15;stroke-linecap:round;stroke-linejoin:round;stroke-miterlimit:10;stroke-dasharray:none;stroke-opacity:1"
             id="path1203" /></g><g
           id="g1205"
           transform="translate(291.9131,311.7612)"><path
             d="M 0,0 V -139.333"
             style="fill:none;stroke:#000000;stroke-width:15;stroke-linecap:round;stroke-linejoin:round;stroke-miterlimit:10;stroke-dasharray:none;stroke-opacity:1"
             id="path1207" /></g><g
           id="g1209"
           transform="translate(291.9131,183.042)"><path
             d="m 0,0 v -14.586 c 0,-15.153 -3.204,-26.589 -13.438,-13.848 -15.791,22.986 -27.386,35.5 -49.556,31.641 -13.012,-2.299 -17.974,-14.388 -9.071,-25.852 l 63.163,-92.737 c 13.523,-19.892 15.394,-32.549 15.394,-50.285 0,-5.42 4.45,-9.875 9.894,-9.875 h 118.162 c 5.443,0 9.894,4.455 9.894,9.875 v 19.297 11.294 c 0,25.653 11.708,23.241 15.082,54.598 v 25.682"
             style="fill:none;stroke:#000000;stroke-width:15;stroke-linecap:round;stroke-linejoin:round;stroke-miterlimit:10;stroke-dasharray:none;stroke-opacity:1"
             id="path1211" /></g><g
           id="g1213"
           transform="translate(418.9199,420.7017)"><path
             d="M 0,0 -57.891,-57.946"
             style="fill:none;stroke:#000000;stroke-width:15;stroke-linecap:round;stroke-linejoin:round;stroke-miterlimit:10;stroke-dasharray:none;stroke-opacity:1"
             id="path1215" /></g><g
           id="g1217"
           transform="translate(436.1855,313.521)"><path
             d="M 0,0 H -54.801"
             style="fill:none;stroke:#000000;stroke-width:15;stroke-linecap:round;stroke-linejoin:round;stroke-miterlimit:10;stroke-dasharray:none;stroke-opacity:1"
             id="path1219" /></g><g
           id="g1221"
           transform="translate(232.2646,393.2041)"><path
             d="M 0,0 30.42,-30.449"
             style="fill:none;stroke:#000000;stroke-width:15;stroke-linecap:round;stroke-linejoin:round;stroke-miterlimit:10;stroke-dasharray:none;stroke-opacity:1"
             id="path1223" /></g><g
           id="g1225"
           transform="translate(106.9297,392.8638)"><path
             d="m 0,0 h -59.109 c -9.781,0 -17.776,8.002 -17.776,17.792 v 76.052 c 0,9.79 7.995,17.792 17.776,17.792 h 170.213 c 9.78,0 17.775,-8.002 17.775,-17.792 V 17.792 C 128.879,8.031 120.884,0 111.104,0 h -76.46"
             style="fill:none;stroke:#000000;stroke-width:15;stroke-linecap:round;stroke-linejoin:round;stroke-miterlimit:10;stroke-dasharray:none;stroke-opacity:1"
             id="path1227" /></g><g
           id="g1229"
           transform="translate(121.8984,467.0703)"><path
             d="M 0,0 H 78.303 M -61.462,0 h 22.821"
             style="fill:none;stroke:#000000;stroke-width:15;stroke-linecap:round;stroke-linejoin:round;stroke-miterlimit:10;stroke-dasharray:none;stroke-opacity:1"
             id="path1231" /></g><g
           id="g1233"
           transform="translate(150.0498,240.8184)"><path
             d="M 0,0 94.632,54.711"
             style="fill:none;stroke:#000000;stroke-width:15;stroke-linecap:round;stroke-linejoin:round;stroke-miterlimit:10;stroke-dasharray:none;stroke-opacity:1"
             id="path1235" /></g><g
           id="g1237"
           transform="translate(291.9131,246.8623)"><path
             d="m 0,0 c -22.312,6.697 -40.739,24.49 -47.231,48.667 -9.922,37.118 12.077,75.285 49.187,85.217 37.081,9.961 75.212,-12.089 85.135,-49.206 C 94.036,58.798 85.418,32.407 66.99,15.409"
             style="fill:none;stroke:#000000;stroke-width:15;stroke-linecap:round;stroke-linejoin:round;stroke-miterlimit:10;stroke-dasharray:none;stroke-opacity:1"
             id="path1239" /></g><g
           id="g1241"
           transform="translate(138.7383,431.1162)"><path
             d="M 0,0 H -78.302 M 61.463,0 H 38.641"
             style="fill:none;stroke:#000000;stroke-width:15;stroke-linecap:round;stroke-linejoin:round;stroke-miterlimit:10;stroke-dasharray:none;stroke-opacity:1"
             id="path1243" /></g><g
           id="g1245"
           transform="translate(427.8223,480.3794)"><path
             d="m 0,0 c 16.727,16.743 43.885,16.743 60.611,0 16.755,-16.743 16.755,-43.928 0,-60.671 C 43.885,-77.442 16.727,-77.442 0,-60.671 -16.755,-43.928 -16.755,-16.743 0,0 Z"
             style="fill:none;stroke:#000000;stroke-width:15;stroke-linecap:round;stroke-linejoin:round;stroke-miterlimit:10;stroke-dasharray:none;stroke-opacity:1"
             id="path1247" /></g><g
           id="g1249"
           transform="translate(464.2803,341.6426)"><path
             d="m 0,0 c 15.507,0 28.066,-12.6 28.066,-28.122 0,-15.522 -12.559,-28.093 -28.066,-28.093 -15.508,0 -28.095,12.571 -28.095,28.093 C -28.095,-12.6 -15.508,0 0,0 Z"
             style="fill:none;stroke:#000000;stroke-width:15;stroke-linecap:round;stroke-linejoin:round;stroke-miterlimit:10;stroke-dasharray:none;stroke-opacity:1"
             id="path1251" /></g><g
           id="g1253"
           transform="translate(120.9063,131.9912)"><path
             d="m 0,0 c -35.04,-20.261 -79.861,-8.258 -100.075,26.845 -20.241,35.074 -8.221,79.91 26.819,100.172 35.04,20.261 79.861,8.229 100.075,-26.845 C 47.061,65.098 35.041,20.233 0,0 Z"
             style="fill:none;stroke:#000000;stroke-width:15;stroke-linecap:round;stroke-linejoin:round;stroke-miterlimit:10;stroke-dasharray:none;stroke-opacity:1"
             id="path1255" /></g><g
           id="g1257"
           transform="translate(99.5303,169.0806)"><path
             d="m 0,0 c -14.6,-8.428 -33.226,-3.434 -41.646,11.152 -8.419,14.586 -3.43,33.258 11.142,41.686 14.6,8.428 33.226,3.434 41.646,-11.18 C 19.562,27.072 14.572,8.428 0,0 Z"
             style="fill:none;stroke:#000000;stroke-width:15;stroke-linecap:round;stroke-linejoin:round;stroke-miterlimit:10;stroke-dasharray:none;stroke-opacity:1"
             id="path1259" /></g></g></g></g></svg>
