<svg xmlns="http://www.w3.org/2000/svg" version="1.1" xmlns:xlink="http://www.w3.org/1999/xlink" xmlns:svgjs="http://svgjs.com/svgjs" width="512" height="512" x="0" y="0" viewBox="0 0 72 72" style="enable-background:new 0 0 512 512" xml:space="preserve" class=""><g><path d="M54 21c-8.271 0-15 6.729-15 15s6.729 15 15 15 15-6.729 15-15-6.729-15-15-15zm9 18c0 .55-.45 1-1 1h-4v4c0 .55-.45 1-1 1h-6c-.55 0-1-.45-1-1v-4h-4c-.55 0-1-.45-1-1v-6c0-.55.45-1 1-1h4v-4c0-.55.45-1 1-1h6c.55 0 1 .45 1 1v4h4c.55 0 1 .45 1 1z" fill="#ffffff" data-original="#000000" opacity="1" class=""></path><path d="M48 5H10c-3.86 0-7 3.14-7 7v48c0 3.86 3.14 7 7 7h38c3.86 0 7-3.14 7-7v-7.03c-.33.02-.66.03-1 .03-9.37 0-17-7.63-17-17s7.63-17 17-17c.34 0 .67.01 1 .03V12c0-3.86-3.14-7-7-7zM18 58c0 .55-.45 1-1 1h-6c-.55 0-1-.45-1-1v-6c0-.55.45-1 1-1h6c.55 0 1 .45 1 1zm0-12c0 .55-.45 1-1 1h-6c-.55 0-1-.45-1-1v-6c0-.55.45-1 1-1h6c.55 0 1 .45 1 1zm0-12c0 .55-.45 1-1 1h-6c-.55 0-1-.45-1-1v-6c0-.55.45-1 1-1h6c.55 0 1 .45 1 1zm0-12c0 .55-.45 1-1 1h-6c-.55 0-1-.45-1-1v-6c0-.55.45-1 1-1h6c.55 0 1 .45 1 1zm2-12c0-.55.45-1 1-1h16c.55 0 1 .45 1 1s-.45 1-1 1H21c-.55 0-1-.45-1-1zm12 33H22c-.55 0-1-.45-1-1s.45-1 1-1h10c.55 0 1 .45 1 1s-.45 1-1 1zm1 2c0 .55-.45 1-1 1H22c-.55 0-1-.45-1-1s.45-1 1-1h10c.55 0 1 .45 1 1zm17 12c0 .55-.45 1-1 1H22c-.55 0-1-.45-1-1s.45-1 1-1h27c.55 0 1 .45 1 1zm-5-4c.55 0 1 .45 1 1s-.45 1-1 1H22c-.55 0-1-.45-1-1s.45-1 1-1zM33 34H22c-.55 0-1-.45-1-1s.45-1 1-1h11c.55 0 1 .45 1 1s-.45 1-1 1zm0-3H22c-.55 0-1-.45-1-1s.45-1 1-1h11c.55 0 1 .45 1 1s-.45 1-1 1zm9-9H22c-.55 0-1-.45-1-1s.45-1 1-1h20c.55 0 1 .45 1 1s-.45 1-1 1zm5-3H22c-.55 0-1-.45-1-1s.45-1 1-1h25c.55 0 1 .45 1 1s-.45 1-1 1z" fill="#ffffff" data-original="#000000" opacity="1" class=""></path></g></svg>