<svg id="Layer_1" viewBox="0 0 512 512" xmlns="http://www.w3.org/2000/svg" data-name="Layer 1"><path d="m255.749.4c141.384 0 256 114.659 256 256.035s-114.615 255.963-256 255.963-255.999-114.59-255.999-255.967 114.623-256.031 255.999-256.031zm0 249a58.993 58.993 0 1 0 59 58.993 59.069 59.069 0 0 0 -59-58.993zm152.5 112.643v-44.637a10.787 10.787 0 0 0 -5.543-9.645l-96.685-56.168a3.838 3.838 0 0 1 -1.858-3.3l.62-41.419a156.352 156.352 0 0 0 -98.072 0l.62 41.419a3.8 3.8 0 0 1 -1.887 3.3l-96.654 56.168a10.788 10.788 0 0 0 -5.544 9.645v44.636a11.166 11.166 0 0 0 11.146 11.149h282.714a11.165 11.165 0 0 0 11.145-11.149zm-1.8-60.762-94.739-55.074.589-41.938a3.747 3.747 0 0 0 -2.476-3.589 162.6 162.6 0 0 0 -108.155 0 3.748 3.748 0 0 0 -2.477 3.589l.589 41.938-94.764 55.073a18.21 18.21 0 0 0 -9.259 16.126v44.636a18.655 18.655 0 0 0 18.635 18.65h282.714a18.674 18.674 0 0 0 18.635-18.65v-44.636a18.189 18.189 0 0 0 -9.288-16.126zm-89.4-111.4a14.843 14.843 0 0 1 9.229 14.611c-.088 1.769-.206 3.845-.354 6.207a422.511 422.511 0 0 1 71.776 17.275 11.749 11.749 0 0 0 .3-4.994c-2.831-19.688-10.055-34.057-21.467-42.7-.029-.026-.058-.055-.088-.082-33.29-27.124-76.988-40.685-120.687-40.685s-87.4 13.561-120.687 40.685c-.029.027-.059.056-.088.082-11.412 8.643-18.636 23.012-21.466 42.7a11.733 11.733 0 0 0 .3 4.994 422.534 422.534 0 0 1 71.769-17.281c-.148-2.362-.265-4.438-.354-6.207a14.8 14.8 0 0 1 9.229-14.611 162.018 162.018 0 0 1 122.6 0zm.029 43.43a10.2 10.2 0 0 0 7.549 10.53l53.34 14.764a10.125 10.125 0 0 0 11.175-4.043l12.974-18.647a19.069 19.069 0 0 0 3.3-14.006c-3.125-21.672-11.323-37.68-24.3-47.561-69.145-56.324-181.6-56.324-250.75 0-13 9.881-21.171 25.889-24.3 47.561a19.069 19.069 0 0 0 3.3 14.006l12.944 18.647a10.2 10.2 0 0 0 8.4 4.429 10.477 10.477 0 0 0 2.8-.386l53.34-14.764a10.235 10.235 0 0 0 7.549-10.53c-.8-13.218-1.386-23.049-1.71-29.214a7.285 7.285 0 0 1 4.6-7.287 153.684 153.684 0 0 1 116.883 0 7.288 7.288 0 0 1 4.6 7.287c-.325 6.165-.915 16-1.711 29.214zm-61.329 96.089a21.006 21.006 0 1 0 -20.994-21.006 21.017 21.017 0 0 0 20.994 21.006zm0-7.5a13.507 13.507 0 1 0 -13.5-13.508 13.512 13.512 0 0 0 13.5 13.508z" fill="#fff" fill-rule="evenodd"/></svg>