<svg xmlns="http://www.w3.org/2000/svg" version="1.1" xmlns:xlink="http://www.w3.org/1999/xlink" width="512" height="512" x="0" y="0" viewBox="0 0 32 32" style="enable-background:new 0 0 512 512" xml:space="preserve" class=""><g><path d="M24.507 17.564a5.493 5.493 0 1 0 0 10.985 5.493 5.493 0 0 0 0-10.985zm2.432 5.259-2.682 2.16a.9.9 0 0 1-1.272-.146l-1.054-1.344a.901.901 0 0 1 1.416-1.112l.491.627 1.972-1.589a.9.9 0 1 1 1.129 1.404z" fill="#1976D2" opacity="1" data-original="#000000" class=""></path><path d="M17.514 23.058a7 7 0 0 1 6.993-6.993c1.281 0 2.479.352 3.513.956V8.02a4.11 4.11 0 0 0-4.11-4.11h-2.16v-.46c0-.5-.41-.9-.9-.9-.5 0-.9.4-.9.9v.46H9.18v-.46c0-.5-.4-.9-.9-.9s-.9.4-.9.9v.46H5.21A4.11 4.11 0 0 0 1.1 8.02v14.74a4.11 4.11 0 0 0 4.11 4.11h13.442a6.95 6.95 0 0 1-1.138-3.812zm3.517-10.814a1.039 1.039 0 1 1 0 2.078 1.039 1.039 0 0 1 0-2.078zM8.094 19.983a1.039 1.039 0 1 1 0-2.078 1.039 1.039 0 0 1 0 2.078zm0-5.661a1.039 1.039 0 1 1 0-2.078 1.039 1.039 0 0 1 0 2.078zm6.469 5.661a1.039 1.039 0 1 1 0-2.078 1.039 1.039 0 0 1 0 2.078zm0-5.661a1.039 1.039 0 1 1 0-2.078 1.039 1.039 0 0 1 0 2.078z" fill="#1976D2" opacity="1" data-original="#000000" class=""></path></g></svg>