<svg xmlns="http://www.w3.org/2000/svg" version="1.1" xmlns:xlink="http://www.w3.org/1999/xlink" width="512" height="512" x="0" y="0" viewBox="0 0 24 24" style="enable-background:new 0 0 512 512" xml:space="preserve" class=""><g><path d="M19.5 6.5h-16c-.6 0-1-.4-1-1s.4-1 1-1h16c.6 0 1 .4 1 1s-.4 1-1 1zM20.5 13h-17c-.6 0-1-.4-1-1s.4-1 1-1h17c.6 0 1 .4 1 1s-.4 1-1 1zM19.5 19.5h-16c-.6 0-1-.4-1-1s.4-1 1-1h16c.6 0 1 .4 1 1s-.4 1-1 1z" fill="#ffffff" opacity="1" data-original="#000000"></path><path d="M17.7 15.8c-.3 0-.5-.1-.7-.3-.4-.4-.4-1 0-1.4l2.1-2.1L17 9.9c-.4-.4-.4-1 0-1.4s1-.4 1.4 0l2.8 2.8c.4.4.4 1 0 1.4l-2.8 2.8c-.2.2-.5.3-.7.3z" fill="#ffffff" opacity="1" data-original="#000000"></path></g></svg>