<svg id="Layer_2_00000109011517481438659420000006802789270143164588_" enable-background="new 0 0 512 512" viewBox="0 0 512 512" fill="#fff" xmlns="http://www.w3.org/2000/svg"><g id="Icon"><path id="_26" d="m445.2 326c-.8-.8-1.1-1.1-40.4-31.3-11.8-11-27.1-17-43.2-17s-31.7 6.1-43.5 17.3l-19.9 16.8c-1.7 1.4-3.8 2.2-6 2.2-1.4 0-2.8-.3-4.1-1-37.5-18.8-68.5-49.8-87.2-87.4-1.6-3.3-1.1-7.2 1.2-10.1l16.7-19.8c23-24.4 23.1-62.2.3-86.7-30.1-39.2-30.4-39.6-31.1-40.3-11.9-12-27.8-18.6-44.8-18.6s-31.8 6.2-43.6 17.4l-18.4 16.1c-.5.4-.9.8-1.3 1.3-19.9 23.1-30.5 50.3-31.5 81-.9 27.2 5.8 56.6 19.8 87.2 50.2 109.6 185.2 213.1 277.7 213.1 1.3 0 2.5 0 3.7-.1h.4c30.1 0 59.4-12.3 80.5-33.7l.6-.6 14.5-16.7c24.3-24.7 24.2-64.6-.4-89.1zm-9.1 80.3-14.8 17c-18.9 19.2-44.9 30-71.9 29.8-132.3 4.3-370.1-231.6-259.7-359.7l18.7-16.2c19.7-19 51-18.7 70.3.8.5.5 30.6 39.6 30.6 39.6 18.6 19.5 18.5 50.2-.1 69.6l-16.9 20.1c-5.7 6.8-6.9 16.3-2.9 24.3 20.1 40.3 52.7 73 93 93.2 8 4 17.5 2.8 24.3-2.9l20.2-17c19.4-18.6 50.1-18.7 69.6-.1 0 0 39.1 30.1 39.6 30.6 19.6 19.4 19.6 51.3 0 70.9zm-171.6-302h1.1c-28.4 40.2-24.7 96.3 11.3 132.3 19.5 19.5 45.3 30.2 72.9 30.2s53.4-10.7 72.9-30.2l19.7-19.7c5.5-5.5 8.6-12.9 8.6-20.7s-3-15.2-8.6-20.7-12.9-8.6-20.7-8.6-15.2 3-20.7 8.6l-19.7 19.7c-8.4 8.4-19.6 13-31.5 13s-23.1-4.6-31.5-13c-11.2-11.2-15.1-26.9-11.9-41.3 3.9 11.6 14.9 20 27.7 20 16.1 0 29.3-13.1 29.3-29.3v-69.6c0-16.1-13.1-29.3-29.3-29.3h-69.6c-16.1 0-29.3 13.1-29.3 29.3s13.2 29.3 29.3 29.3zm-16.2-29.3c0-9 7.3-16.3 16.3-16.3h69.6c9 0 16.3 7.3 16.3 16.3v69.6c0 9-7.3 16.3-16.3 16.3s-16.3-7.3-16.3-16.3v-30.3l-8.8 8.8c-22.4 22.4-22.4 58.9 0 81.3 10.9 10.9 25.3 16.8 40.7 16.8s29.8-6 40.7-16.8l19.7-19.7c6.4-6.4 16.6-6.4 23 0s6.4 16.6 0 23l-19.7 19.7c-17 17-39.6 26.4-63.7 26.4s-46.6-9.4-63.7-26.4c-35.1-35.1-35.1-92.2 0-127.3l8.8-8.8h-30.4c-9 0-16.3-7.3-16.2-16.3z"/></g></svg>