<svg xmlns="http://www.w3.org/2000/svg" version="1.1" xmlns:xlink="http://www.w3.org/1999/xlink" width="512" height="512" x="0" y="0" viewBox="0 0 24 24" style="enable-background:new 0 0 512 512" xml:space="preserve" class=""><g><g fill="#000"><path d="M15.005 16.491a12.622 12.622 0 0 1-2.42-1.35c-.773-.544-2.16-1.888-3.044-2.945-.797-1.028-1.458-2.142-1.921-3.281-.186-.497.33-1.277.723-1.87.107-.161.204-.309.276-.433l.021-.038c.32-.56.674-1.18.503-1.967-.15-.73-2.158-3.195-2.857-3.875C5.825.286 5.351.05 4.89.002 3.031-.062.923 2.44.661 2.897A3.524 3.524 0 0 0 0 5.003c0 .805.225 1.708.686 2.686.973 2.316 3.043 5.175 5.5 7.837.476.549 2.149 2.19 3.02 2.97 2.431 2.18 4.951 3.975 7.059 4.83 1.97.89 3.605.903 4.827.012.574-.347 2.981-2.365 2.906-4.16-.037-.483-.287-.954-.736-1.4-.686-.693-3.168-2.649-3.891-2.797-.805-.17-1.432.182-1.996.499l-.037.02a9.875 9.875 0 0 0-.4.255c-.6.391-1.414.924-1.933.736z" fill="#02566e" opacity="1" data-original="#000000" class=""></path><path d="M20.707 2.293a1 1 0 0 1 0 1.414L18.414 6l2.293 2.293a1 1 0 0 1-1.414 1.414L17 7.414l-2.293 2.293a1 1 0 0 1-1.414-1.414L15.586 6l-2.293-2.293a1 1 0 0 1 1.414-1.414L17 4.586l2.293-2.293a1 1 0 0 1 1.414 0z" fill="#02566e" opacity="1" data-original="#000000" class=""></path></g></g></svg>