<svg xmlns="http://www.w3.org/2000/svg" version="1.1" xmlns:xlink="http://www.w3.org/1999/xlink"  width="512" height="512" x="0" y="0" viewBox="0 0 512 512" style="enable-background:new 0 0 512 512" xml:space="preserve" class=""><g><clipPath id="a"><path d="M163.83 203.71h45.59v74.76h-45.59z" fill="#000000" data-original="#000000" class=""></path></clipPath><path fill="#86ebf9" d="M389.83 244.82 440.7 400.9l-31.96 36.66-96.38-15.98-31.46-180.49 108.29 6.56z" data-original="#86ebf9" class=""></path><path fill="#40c2d6" d="m376.11 290.58-163.88-45.76 8.48-37.82 169.12 37.87a174.27 174.27 0 0 1-13.72 45.71z" data-original="#40c2d6" class=""></path><path fill="#40c2d6" d="m377 298.74 31.71 138.82-96.38-16-31.43-164.08 49.94 23.28zM426.43 417.77a.49.49 0 0 1-.48-.35l-44.13-142.17a.5.5 0 0 1 1-.29l44.13 142.16a.5.5 0 0 1-.52.65z" data-original="#40c2d6" class=""></path><path fill="#e73f46" d="m377.72 308 8.22 120 5.82 25-17.91 10-24.17 19.05H261V331.73z" data-original="#e73f46" class=""></path><path fill="#cc3745" d="M347.89 353.48 342.52 454q3.57 14 7.16 28h-97.3l11.48-162.36zM373.85 463.53a.49.49 0 0 1-.45-.29l-9.85-22c-.06-.13.38 5.23-9-115.53a.5.5 0 0 1 1-.07l8.95 115.27 9.81 21.89a.5.5 0 0 1-.46.73z" data-original="#cc3745"></path><path fill="#cc3745" d="M343.86 353.17 218.7 256.5l21.74-29.67L377.72 308l-22.67 17.67z" data-original="#cc3745"></path><circle cx="186.05" cy="87.8" r="55.72" fill="#007699" data-original="#6d5fde" class="" opacity="1"></circle><g clip-path="url(#a)"><path fill="#f5b493" d="M163.83 203.71h45.59v74.76h-45.59z" data-original="#f5b493" class=""></path><path fill="#eba284" d="M157 231.53a52 52 0 0 0 58 1.47q-.21-13.72-.43-27.47h-58.4q.44 13.02.83 26z" data-original="#eba284" class=""></path></g><ellipse cx="186.47" cy="122.34" fill="#00556e" rx="114.48" ry="70.51" data-original="#917eec" class="" opacity="1"></ellipse><path fill="#f5b493" d="M242.73 147a35.66 35.66 0 0 1-1.27 12.29c-.5 1.73-3.46 13.14-7.09 24.89-3.38 10.93-15.22 46.91-44.66 48.67-24.26 1.19-42.1-26.83-49-49.66-1.18-7.25-6.68-28.43-7-37.53a35.17 35.17 0 0 1 .27-5.55s.69-32.66 20.06-50.8a42.49 42.49 0 0 1 14.78-9.06c1.57-.31 17.74-8.7 40-.14.31.05.6.08.91.14 33.83 12.09 34.81 59.85 34.81 59.86-.61 2.12-1.21 4.46-1.81 6.89z" data-original="#f5b493" class=""></path><path fill="#2d1929" d="M187.16 184.64c-4.31-1.09-6.82-2.8-7.49-5.08-1.52-5.26 7.12-7.72 5.83-23.83a.5.5 0 0 1 1-.08c1.28 16-7.14 19.23-5.87 23.63.56 1.92 2.84 3.4 6.78 4.39a.5.5 0 0 1-.25.97zM169.74 159.06c0 3.87-2 7-4.53 7s-4.53-3.13-4.53-7 2-7 4.52-7 4.53 3.14 4.54 7zM153.74 141.49a1 1 0 0 1-.66-1.76c.1-.09 10-8.46 21.33-2a1 1 0 1 1-1 1.73c-10.07-5.74-18.94 1.73-19 1.81a1 1 0 0 1-.67.22zM214 159.07c0 3.87-2 7-4.54 7s-4.52-3.14-4.52-7 2-7 4.54-7 4.52 3.14 4.52 7zM220.89 141.49a1 1 0 0 1-.65-.24c-.36-.31-9-7.54-19-1.81a1 1 0 1 1-1-1.73c11.28-6.44 21.23 1.93 21.33 2a1 1 0 0 1-.68 1.78z" data-original="#2d1929" class=""></path><path fill="#ffffff" d="M177.73 253s-62 16.79-71.67 43.66 11.76 185.38 11.76 185.38h151.12s12.67-176.32 0-208.56S177.73 253 177.73 253z" data-original="#ffffff" class=""></path><path fill="#007699" d="M214 251s41.42-3.25 66.76 16.66c48.4 38 108.58 86.74 94.11 121.68a32.94 32.94 0 0 1-14.48 15.87C328.55 422 269 380 240 334.57c-9.3-14.52-23.71-42.26-26-83.57zM133.68 270.69s-43.91 16.6-45.12 50.19 0 161.2 0 161.2h45.12z" data-original="#287eef" class="" opacity="1"></path><path fill="#007699" d="m213.95 250.95 7.49 231.12h53.13l10.78-142.04z" data-original="#287eef" class="" opacity="1"></path><path fill="#f5b493" d="M163.83 257.48s9.27 22.29 23.91 22.29 21.68-29 21.68-29-31.21-10.34-45.59 6.71z" data-original="#f5b493" class=""></path><path fill="#007699" d="m163.83 257.48-10.09 224.6h-29.58l-2.85-205.3s22.69-13.63 42.52-19.3z" data-original="#287eef" class="" opacity="1"></path><path fill="#007699" d="M163.83 244.82s-4.15-.12-8 5.93-7.91 13-7.91 13l12.74 56c3.68-72.31 3.17-58.07 3.17-74.93zM209.42 238.7v12.05l6.76 69L228 251s-6.5-5.23-8.38-9.86-10.2-2.44-10.2-2.44z" data-original="#287eef" class="" opacity="1"></path><path fill="#00556e" d="m233.86 264.28 8.83 60.39-15.91-1.46 9.22 11.15-11.4 38q2.3-19.32 4.57-38.62L221.38 321l13.81-2.7z" data-original="#1573d8" class="" opacity="1"></path><path fill="#f5b493" d="M235.43 290.58s4.73.79 8.87 17.46c3.86 15.53 30.39 18.77 41.05 11.68 18-12 2.07-58.11-5.61-59.6-.12 0-3.82-.74-4.83.83-.67 1-.34 3.23-.34 3.33-1.93-4.7-5.08-7.84-8.15-7.74-.37 0-2.5.13-3.33 1.5-.94 1.56 0 4.5 0 4.5-5-5.2-7.25-5.82-8.38-5.25-2 1-2.3 7-2.3 7-3.2-4-6.35-6.14-8-5.32-2.14 1.05-1.36 6.82-1.24 7.65.85 6.32 4.45 8.93 3.82 14.65-.13 1.21-.2 2.08-.85 2.4-2 1-7.31-6.23-13.46-6.23-7.66 0-8.32 4.33-6.66 7.66s5.66 1.71 9.41 5.48z" data-original="#f5b493" class=""></path><path fill="#00556e" d="M328.28 406.64s-30.4-9-46-25.51l-7.67 100.95h-53.23s34.89-10.72 41.88-23c5.43-9.57-15.34-17.74-16.18-32.77-.4-7.3 3.83-12.5 5.3-14.84 7.21-11.49 11.89-35.92 2.61-91.71a219.91 219.91 0 0 0 73.29 86.88zM293.56 301.81a641.11 641.11 0 0 1 76.72 53.46c-9.65-16.92-20.26-28.57-32.81-39.85-19.37-17.42-38.19-32.9-48.58-41.32q2.34 13.9 4.67 27.71zM97.13 328.87l8 44.61-6 108.6h54.61s-38.49-10.72-42.89-13.08a1 1 0 0 1-.49-.5c-2.12-5.45 14.22-17.69 11-28.14-.56-1.77-1.26-2-2.87-4.32-6.33-9.09-5.24-19.49-5-32a283.35 283.35 0 0 0-1.34-33q-7.52-21.04-15.02-42.17z" data-original="#1573d8" class="" opacity="1"></path><path fill="#e73f46" d="M322.1 301a1.51 1.51 0 0 1-1.12-.5c-30.45-34.11-56.75 1-76.55-22.25a1.5 1.5 0 1 1 2.28-1.95c18.11 21.26 45-13.1 76.51 22.2a1.5 1.5 0 0 1-1.12 2.5z" data-original="#e73f46" class=""></path><path fill="#86ebf9" d="M268.29 280.3c-9.3 0-17.91-3.35-25.53-8.63a1.5 1.5 0 1 1 1.71-2.46c7.26 5 14.77 7.74 22.34 8.06 12 .5 18.26-5.5 30.86-7.31 11-1.59 22.92.7 35.33 6.82a1.5 1.5 0 1 1-1.33 2.69c-11.86-5.84-23.16-8.05-33.58-6.54-11.79 1.69-17.96 7.37-29.8 7.37z" data-original="#86ebf9" class=""></path><path fill="#00556e" d="m146.66 264.28-8.83 60.39 15.91-1.46-9.25 11.15q5.7 19 11.39 38-2.28-19.32-4.57-38.62l7.83-12.74-13.82-2.7z" data-original="#1573d8" class="" opacity="1"></path><path fill="#2d1929" d="M191 95.5s-19 1.08-30.33 0-22.35 15.73-19.1 33.7-15 28-15 28-2.13-11.49-3.19-25.38c-1.58-20.69-1.54-31.08 3.19-39.79 16.43-30.3 83.54-19.25 95.66-17.26 7 1.15 10.33 2.19 13.73 4.5 24.49 16.59 11 72 9 79.9a31 31 0 0 1-8.18-7.19 31.76 31.76 0 0 1-7.14-20.86C229.63 107.81 224 88.17 191 95.5z" data-original="#2d1929" class=""></path><path fill="#f5b493" d="M145.82 177.83c-7.45 3-16.46-1.89-20.12-10.94s-.58-18.84 6.87-21.85S149 146.93 152.69 156s.58 18.82-6.87 21.83z" data-original="#f5b493" class=""></path><path fill="#2d1929" d="M138.77 171.47a.49.49 0 0 1-.32-.12c-.13-.11-3.17-2.69-3-5 .11-2 2.22-2.9 3.14-3.19-.31-5.18-3.06-12.87-8.14-11.87a.5.5 0 0 1-.19-1c5.91-1.18 9.12 7.17 9.35 13.21a.53.53 0 0 1-.39.51s-2.68.62-2.78 2.38c-.08 1.49 1.91 3.51 2.68 4.17a.5.5 0 0 1-.35.91z" data-original="#2d1929" class=""></path><path fill="#f5b493" d="M248.92 166.89c-3.65 9.05-12.66 14-20.11 10.94S218.28 165 221.93 156s12.67-14 20.12-11 10.53 12.83 6.87 21.89z" data-original="#f5b493" class=""></path><path fill="#2d1929" d="M235.86 171.47a.5.5 0 0 1-.32-.88c.77-.66 2.76-2.68 2.67-4.17-.09-1.76-2.74-2.38-2.77-2.38a.51.51 0 0 1-.39-.51c.22-6 3.44-14.39 9.35-13.21a.5.5 0 0 1-.2 1c-5.07-1-7.83 6.68-8.13 11.87.91.29 3 1.18 3.14 3.19.13 2.3-2.9 4.88-3 5a.49.49 0 0 1-.35.09z" data-original="#2d1929" class=""></path><path fill="#ffffff" d="M175.2 194.59a46.31 46.31 0 0 0 26.3-3.83c-2.22 7.49-8.95 12.16-15.48 11.49-6.85-.72-10.46-7.02-10.82-7.66z" data-original="#ffffff" class=""></path><path fill="#f5b493" d="M243.62 265.78s3.82 21.47 10.32 22.6 3.07-11.3 3.07-11.3 1.92 14 7.16 12.84 1-13.9 1-13.9 3.25 13.86 6.62 13.11 2.78-14.51 2.78-14.51 1.1 11.82 4.83 10.26 2.38-15.48 2.38-15.48l-14.61-2.4-13.36 1z" data-original="#f5b493" class=""></path><g fill="#2d1929"><path d="M253.19 288.86c-3.35-.8-5.28-6.59-5.36-6.84a.5.5 0 0 1 .95-.31c0 .06 1.84 5.51 4.65 6.18a2.9 2.9 0 0 0 3.56-1.63.5.5 0 0 1 .94.36 3.88 3.88 0 0 1-4.74 2.24zM263 290.52c-2.79 0-4-3.76-4.05-3.93a.5.5 0 0 1 .33-.62.49.49 0 0 1 .63.32s1.1 3.47 3.35 3.21 2.61-3 2.62-3.12a.5.5 0 0 1 .56-.43.49.49 0 0 1 .43.55c-.25 2.07-1.73 4.02-3.87 4.02zM271.92 290c-2.07 0-3.28-2.75-3.33-2.88a.5.5 0 0 1 .26-.65.5.5 0 0 1 .66.26c.29.67 1.33 2.4 2.54 2.26s1.88-2.31 2-3.15a.5.5 0 0 1 .58-.4.51.51 0 0 1 .41.58c-.28 1.72-1.29 3.98-3.12 3.98zM258 282.37a.51.51 0 0 1-.48-.35l-5.63-17.58a.5.5 0 0 1 .33-.63.49.49 0 0 1 .62.32l5.63 17.59a.49.49 0 0 1-.47.65zM266.7 283.68a.5.5 0 0 1-.49-.41l-3.64-20.65a.5.5 0 0 1 .43-.62.51.51 0 0 1 .58.41l3.64 20.64a.5.5 0 0 1-.52.63zM274.57 284.18a.51.51 0 0 1-.5-.5v-19.4a.51.51 0 0 1 .5-.5.5.5 0 0 1 .5.5v19.4a.5.5 0 0 1-.5.5z" fill="#2d1929" data-original="#2d1929" class=""></path><path d="M276.24 282.82a.51.51 0 0 1-.49-.37l-1.64-6.05a.5.5 0 0 1 .36-.61.49.49 0 0 1 .61.35l1.64 6.05a.5.5 0 0 1-.48.63zM281.12 283.06a.5.5 0 0 1-.47-.68c1.36-3.57 1.62-15.12 1.62-15.24a.5.5 0 0 1 1 0c0 .48-.26 11.83-1.68 15.57a.51.51 0 0 1-.47.35z" fill="#2d1929" data-original="#2d1929" class=""></path></g><path fill="#eba284" d="M254.65 319.72s9.69 15.25 24.19 12.18 18.21-21.86 14.69-30.13c0 0-7.05 31.78-38.88 17.95z" data-original="#eba284" class=""></path></g></svg>