<svg xmlns="http://www.w3.org/2000/svg" version="1.1" xmlns:xlink="http://www.w3.org/1999/xlink" xmlns:svgjs="http://svgjs.com/svgjs" width="512" height="512" x="0" y="0" viewBox="0 0 32 32" style="enable-background:new 0 0 512 512" xml:space="preserve" class=""><g><path d="M30 9v14a3 3 0 0 1-3 3H5a3 3 0 0 1-3-3V9a2.87 2.87 0 0 1 .19-1l12.15 8.1a3 3 0 0 0 3.32 0L29.81 8A2.87 2.87 0 0 1 30 9zm-13.45 5.43 12-8A3 3 0 0 0 27 6H5a3 3 0 0 0-1.54.44l12 8a1 1 0 0 0 1.09-.01z" data-name="Layer 34" fill="#666666" data-original="#000000" opacity="1" class=""></path></g></svg>