<svg xmlns="http://www.w3.org/2000/svg" version="1.1" xmlns:xlink="http://www.w3.org/1999/xlink" width="512" height="512" x="0" y="0" viewBox="0 0 472.313 472.313" style="enable-background:new 0 0 512 512" xml:space="preserve" class=""><g><path d="M448.728 23.585c-31.442-31.444-82.611-31.444-114.062 0l-86.146 86.152c-24.64 24.637-29.974 61.401-15.983 91.284l-31.524 31.524c-29.882-13.992-66.64-8.663-91.284 15.984l-86.146 86.142c-31.445 31.441-31.445 82.61 0 114.057 31.445 31.447 82.616 31.442 114.061.005l86.141-86.146c25.71-25.713 30.389-64.592 14.076-95.109l29.609-29.613c30.518 16.312 69.407 11.633 95.11-14.072l86.151-86.14c31.444-31.44 31.444-82.617-.003-114.068zM197.474 336.262l-86.147 86.15c-16.926 16.927-44.479 16.927-61.412-.004-16.932-16.938-16.932-44.487-.014-61.417l86.146-86.147c9.595-9.593 22.589-13.735 35.128-12.466l-22.997 22.993c-9.892 9.901-9.892 26.004 0 35.896 9.903 9.894 26.007 9.894 35.896 0l25.056-25.062c3.057 13.999-.802 29.211-11.656 40.057zm224.93-224.932-86.146 86.146c-10.861 10.859-26.056 14.72-40.049 11.659l15.492-15.487c9.894-9.896 9.894-26-.005-35.89-9.901-9.894-25.997-9.894-35.887 0l-13.424 13.419c-1.274-12.534 2.873-25.532 12.462-35.122l86.146-86.146c16.923-16.925 44.479-16.925 61.418.008 16.932 16.933 16.932 44.479-.007 61.413z" fill="#1e3150" opacity="1" data-original="#000000" class=""></path></g></svg>