<svg xmlns="http://www.w3.org/2000/svg" version="1.1" xmlns:xlink="http://www.w3.org/1999/xlink" width="512" height="512" x="0" y="0" viewBox="0 0 700 700" style="enable-background:new 0 0 512 512" xml:space="preserve" class=""><g><path d="M195.32 592.1a73.7 73.7 0 0 1-73.43-73.54V181.44A73.43 73.43 0 0 1 232 117.85l292 168.56a73.43 73.43 0 0 1 0 127.18L232 582.15a73.3 73.3 0 0 1-36.68 9.95zm0-454.15a43.58 43.58 0 0 0-43.43 43.49v337.12A43.43 43.43 0 0 0 217 556.17l292-168.56a43.43 43.43 0 0 0 0-75.22L217 143.83a43.36 43.36 0 0 0-21.68-5.83z" fill="#ffffff" opacity="1" data-original="#000000" class=""></path></g></svg>