<svg xmlns="http://www.w3.org/2000/svg" version="1.1" xmlns:xlink="http://www.w3.org/1999/xlink" width="512" height="512" x="0" y="0" viewBox="0 0 512 512" style="enable-background:new 0 0 512 512" xml:space="preserve" class=""><g><circle cx="256" cy="256" r="256" style="" fill="#ff0000" data-original="#95a5a5" class="" opacity="1"></circle><path d="M195.743 221.661c-5.217 5.252-5.853 13.515-1.501 19.509a331.902 331.902 0 0 0 33.898 39.636 330.32 330.32 0 0 0 44.668 37.517 15.102 15.102 0 0 0 19.332-1.677l28.425-28.425c7.821-7.821 20.515-7.821 28.337 0l49.611 49.611c7.821 7.821 7.821 20.515 0 28.337l-13.418 13.418a79.442 79.442 0 0 1-75.034 21.363 241.909 241.909 0 0 1-70.621-31.514 324.355 324.355 0 0 1-55.261-44.138 326.675 326.675 0 0 1-41.313-50.229 257.289 257.289 0 0 1-31.25-63.294c-9.172-28.593-1.571-59.913 19.686-81.126l15.625-15.89c7.821-7.821 20.515-7.821 28.337 0l49.611 49.611c7.821 7.821 7.821 20.515 0 28.337l-29.132 28.954z" style="" fill="#ffffff" data-original="#7ed09e" class="" opacity="1"></path></g></svg>