<svg xmlns="http://www.w3.org/2000/svg" version="1.1" xmlns:xlink="http://www.w3.org/1999/xlink" width="512" height="512" x="0" y="0" viewBox="0 0 512 512" style="enable-background:new 0 0 512 512" xml:space="preserve" class=""><g><path d="M116 132H76c-8.284 0-15 6.716-15 15s6.716 15 15 15h40c8.284 0 15-6.716 15-15s-6.716-15-15-15zM176 162h140c8.284 0 15-6.716 15-15s-6.716-15-15-15H176c-8.284 0-15 6.716-15 15s6.716 15 15 15zM116 202H76c-8.284 0-15 6.716-15 15s6.716 15 15 15h40c8.284 0 15-6.716 15-15s-6.716-15-15-15zM176 232h140c8.284 0 15-6.716 15-15s-6.716-15-15-15H176c-8.284 0-15 6.716-15 15s6.716 15 15 15zM116 272H76c-8.284 0-15 6.716-15 15s6.716 15 15 15h40c8.284 0 15-6.716 15-15s-6.716-15-15-15zM116 342H76c-8.284 0-15 6.716-15 15s6.716 15 15 15h40c8.284 0 15-6.716 15-15s-6.716-15-15-15zM116 412H76c-8.284 0-15 6.716-15 15s6.716 15 15 15h40c8.284 0 15-6.716 15-15s-6.716-15-15-15zM390.6 366.944a353.904 353.904 0 0 1-5.29-1.914v-32.312c3.055 1.127 4.645 2.657 4.872 2.888 3.638 4.104 9.909 4.513 14.051.905 4.164-3.627 4.6-9.944.972-14.108-3.323-3.815-10.186-8.596-19.895-10.277V307c0-5.522-4.478-10-10-10s-10 4.478-10 10v6.223c-.616.163-1.238.337-1.865.526-11.853 3.57-20.705 13.689-23.102 26.407-2.199 11.671 1.59 22.963 9.889 29.472 3.917 3.072 8.691 5.889 15.078 8.817v42.236c-4.52-.636-7.904-2.172-13.306-5.705-4.621-3.025-10.821-1.728-13.843 2.894-3.023 4.622-1.729 10.819 2.894 13.843 9.488 6.207 16.181 8.388 24.255 9.086V447c0 5.522 4.478 10 10 10s10-4.478 10-10v-7.162c16.616-4.215 27.266-18.408 29.619-32.403 3.026-18.004-6.751-34.277-24.329-40.491zm-25.29-11.127a35.27 35.27 0 0 1-2.735-1.926c-2.365-1.854-3.376-5.792-2.577-10.031.579-3.073 2.261-6.615 5.312-8.956zm29.895 48.303c-.911 5.42-4.271 11.118-9.896 14.339v-32.121c10.822 4.558 10.553 13.873 9.896 17.782z" fill="#fff" opacity="1" data-original="#000000" class=""></path><path d="M391 242.838V85c0-24.813-20.187-45-45-45h-65.284C278.219 17.532 259.123 0 236 0h-80c-23.123 0-42.219 17.532-44.716 40H46C21.187 40 1 60.187 1 85v382c0 24.813 20.187 45 45 45h330c74.439 0 135-60.561 135-135 0-69.369-52.594-126.676-120-134.162zM141 45c0-8.271 6.729-15 15-15h80c8.271 0 15 6.729 15 15v15H141zM46 482c-8.271 0-15-6.729-15-15V85c0-8.271 6.729-15 15-15h65v5c0 8.284 6.716 15 15 15h140c8.284 0 15-6.716 15-15v-5h65c8.271 0 15 6.729 15 15v157.838c-26.238 2.914-50.228 13.376-69.749 29.162H176c-8.284 0-15 6.716-15 15s6.716 15 15 15h87.806a134.41 134.41 0 0 0-18.195 40H176c-8.284 0-15 6.716-15 15s6.716 15 15 15h65.102c-.061 1.66-.102 3.325-.102 5 0 12.102 1.61 23.833 4.61 35H176c-8.284 0-15 6.716-15 15s6.716 15 15 15h81.712a135.95 135.95 0 0 0 33.54 40zm330 0c-57.897 0-105-47.103-105-105s47.103-105 105-105 105 47.103 105 105-47.103 105-105 105z" fill="#fff" opacity="1" data-original="#000000" class=""></path></g></svg>