<svg id="Outline" height="512" viewBox="0 0 48 48" width="512" xmlns="http://www.w3.org/2000/svg"><g><path d="m46 1.25s-12.91467 0-12.99958 0c-.95831 0-.97977 1.5-.00042 1.5h12.25v12.24986c0 .92989 1.5.98287 1.5.00014v-13c0-.41406-.33594-.75-.75-.75z"/><path d="m46.75 46s0-12.91467 0-12.99958c0-.95831-1.5-.97977-1.5-.00042v12.25s-12.20234 0-12.24986 0c-.92989 0-.98287 1.5-.00014 1.5h13c.41406 0 .75-.33594.75-.75z"/><path d="m2 46.75h12.99958c.95831 0 .97978-1.5.00042-1.5h-12.25s0-12.20234 0-12.24986c0-.92989-1.5-.98287-1.5-.00014v13c0 .41406.33594.75.75.75z"/><path d="m1.25 2v12.99958c0 .95831 1.5.97978 1.5.00042v-12.25h12.24986c.92989 0 .98287-1.5.00014-1.5h-13c-.41406 0-.75.33594-.75.75z"/><path d="m24 22.75c3.72168 0 6.75-3.02832 6.75-6.75s-3.02832-6.75-6.75-6.75-6.75 3.02832-6.75 6.75 3.02832 6.75 6.75 6.75zm0-12c2.89453 0 5.25 2.35547 5.25 5.25s-2.35547 5.25-5.25 5.25-5.25-2.35547-5.25-5.25 2.35547-5.25 5.25-5.25z"/><path d="m11.28906 35.51953c-.32683 1.65622 1.05283 3.23047 2.71094 3.23047h19.99997c1.67845 0 3.04005-1.56452 2.70999-3.23145-1.17383-5.95019-6.51953-10.26855-12.70996-10.26855-6.19036 0-11.53601 4.31826-12.71094 10.26953zm23.94922.28907c.1485.75401-.49473 1.4414-1.23828 1.4414 0 0-19.94269 0-19.99988 0-.75091 0-1.38702-.68299-1.23938-1.44043 1.01953-5.16504 5.85156-9.05957 11.23926-9.05957 5.38757 0 10.21951 3.89435 11.23828 9.0586z"/></g></svg>