<svg xmlns="http://www.w3.org/2000/svg" version="1.1" xmlns:xlink="http://www.w3.org/1999/xlink" xmlns:svgjs="http://svgjs.com/svgjs" width="512" height="512" x="0" y="0" viewBox="0 0 511.996 511.996" style="enable-background:new 0 0 512 512" xml:space="preserve" class=""><g><path d="M120.841 228.902h30.313v32.605h-30.313zM360.841 118.902h30.314v142.605h-30.314zM240.841 178.902h30.314v82.605h-30.314z" fill="#ffffff" data-original="#000000" opacity="1" class=""></path><path d="M496.996 29.832c-120.136.153-361.89-.11-481.997 0-8.283 0-14.999 6.715-14.999 15v352.456c0 8.284 6.716 15 15 15h125.466c11.199-.783 21.188 8.97 20.928 20.2.291 11.146-9.598 20.819-20.694 19.704H95.504c-8.284 0-15 6.716-15 15s6.716 15 15 15h321.988c8.284 0 15-6.716 15-15s-6.716-15-15-15h-45.196c-26.417 1.494-27.534-38.638-1.586-39.892l126.286-.012c8.284 0 15-6.716 15-15V44.832c0-8.285-6.716-15-15-15zm-166.155 74.07c0-8.284 6.716-15 15-15h60.314c8.284 0 15 6.716 15 15v172.605c0 8.284-6.716 15-15 15h-60.314c-8.284 0-15-6.716-15-15zm-120 60c0-8.284 6.716-15 15-15h60.314c8.284 0 15 6.716 15 15v112.605c0 8.284-6.716 15-15 15h-60.314c-8.284 0-15-6.716-15-15zm-120 50c0-8.284 6.716-15 15-15h60.313c8.284 0 15 6.716 15 15v62.605c0 8.284-6.716 15-15 15h-60.313c-8.284 0-15-6.716-15-15zm346.155 137.534H75c-8.284 0-15-6.716-15-15s6.716-15 15-15h361.996c8.284 0 15 6.716 15 15s-6.716 15-15 15z" fill="#ffffff" data-original="#000000" opacity="1" class=""></path></g></svg>