<svg xmlns="http://www.w3.org/2000/svg" version="1.1" xmlns:xlink="http://www.w3.org/1999/xlink" width="512" height="512" x="0" y="0" viewBox="0 0 32 32" style="enable-background:new 0 0 512 512" xml:space="preserve" class=""><g><path d="M29.492 4.949 22.367 23.59c-.234.697-.908 1.179-1.677 1.179h-.06a1.757 1.757 0 0 1-1.633-1.247l-2.555-6.54 4.181-4.131a1 1 0 0 0-1.406-1.423l-4.272 4.221-6.272-2.45a1.758 1.758 0 0 1-1.246-1.636 1.776 1.776 0 0 1 1.192-1.741l18.589-7.106c.683-.23 1.382-.067 1.859.411.479.479.643 1.177.425 1.822zM14.707 17.293a.999.999 0 0 0-1.414 0l-9 9a.999.999 0 1 0 1.414 1.414l9-9a.999.999 0 0 0 0-1.414zm.586 5-4 4a.999.999 0 1 0 1.414 1.414l4-4a.999.999 0 1 0-1.414-1.414zM5 21a.997.997 0 0 0 .707-.293l4-4a.999.999 0 1 0-1.414-1.414l-4 4A.999.999 0 0 0 5 21z" fill="#ffffff" opacity="1" data-original="#000000"></path></g></svg>