<svg xmlns="http://www.w3.org/2000/svg" version="1.1" xmlns:xlink="http://www.w3.org/1999/xlink" width="512" height="512" x="0" y="0" viewBox="0 0 36 36" style="enable-background:new 0 0 512 512" xml:space="preserve"><g><g fill-rule="evenodd"><path d="m22.6 12-12.16 3.71a1.14 1.14 0 0 0-.28 2.06l3.94 2.51 3.39-3.39 1.62 1.62-3.39 3.39 2.51 3.94a1.14 1.14 0 0 0 2.06-.28L24 13.4a1.14 1.14 0 0 0-1.4-1.4z" fill="#299d90" opacity="1" data-original="#000000"></path><path d="M32.66 3.34A4.57 4.57 0 0 0 29.43 2H6.57A4.57 4.57 0 0 0 2 6.57v22.86A4.57 4.57 0 0 0 6.57 34h22.86A4.57 4.57 0 0 0 34 29.43V6.57a4.57 4.57 0 0 0-1.34-3.23zm-6.45 10.73-3.74 12.16a3.43 3.43 0 0 1-6.17.83l-2.86-4.5-4.5-2.86a3.43 3.43 0 0 1 .83-6.17l12.16-3.74a3.43 3.43 0 0 1 4.29 4.29z" fill="#299d90" opacity="1" data-original="#000000"></path></g></g></svg>