<svg xmlns="http://www.w3.org/2000/svg" version="1.1" xmlns:xlink="http://www.w3.org/1999/xlink" width="512" height="512" x="0" y="0" viewBox="0 0 480 480" style="enable-background:new 0 0 512 512" xml:space="preserve" class=""><g><path d="M272 176.232h-64a8 8 0 0 0-8 8v224a8 8 0 0 0 8 8h64a8 8 0 0 0 8-8v-224a8 8 0 0 0-8-8zm-8 224h-48v-208h48v208zM464 144.232h-64a8 8 0 0 0-8 8v256a8 8 0 0 0 8 8h64a8 8 0 0 0 8-8v-256a8 8 0 0 0-8-8zm-8 256h-48v-240h48v240zM368 320.232h-64a8 8 0 0 0-8 8v80a8 8 0 0 0 8 8h64a8 8 0 0 0 8-8v-80a8 8 0 0 0-8-8zm-8 80h-48v-64h48v64zM80 208.232H16a8 8 0 0 0-8 8v192a8 8 0 0 0 8 8h64a8 8 0 0 0 8-8v-192a8 8 0 0 0-8-8zm-8 192H24v-176h48v176zM176 256.232h-64a8 8 0 0 0-8 8v144a8 8 0 0 0 8 8h64a8 8 0 0 0 8-8v-144a8 8 0 0 0-8-8zm-8 144h-48v-128h48v128z" fill="#27acfd" opacity="1" data-original="#000000" class=""></path><path d="M432.465 7.769c-17.801-.128-32.335 14.198-32.463 31.999a32.227 32.227 0 0 0 10.183 23.743l-66.4 121.784a29.377 29.377 0 0 0-18.24.84L263.776 93.44c11.835-13.125 10.789-33.36-2.337-45.194s-33.36-10.789-45.194 2.337a32.002 32.002 0 0 0-5.077 35.29L162.6 126.296c-13.324-9.719-31.884-7.544-42.6 4.992L79.272 110.92c3.694-17.283-7.323-34.288-24.605-37.981-17.283-3.694-34.288 7.322-37.981 24.605-3.694 17.283 7.322 34.288 24.605 37.981a32.05 32.05 0 0 0 6.709.707 31.801 31.801 0 0 0 24-11.056l40.728 20.368c-3.843 17.25 7.026 34.35 24.276 38.193 17.25 3.843 34.35-7.026 38.193-24.276a31.995 31.995 0 0 0-2.397-20.829l48.568-40.424a30.913 30.913 0 0 0 29.072 4.16l61.752 92.696c-11.803 13.154-10.707 33.386 2.448 45.189 13.154 11.803 33.386 10.707 45.189-2.448 11.658-12.993 10.752-32.931-2.036-44.813l66.4-121.784c2.55.666 5.173 1.01 7.808 1.024 17.801.128 32.335-14.198 32.463-31.999S450.265 7.898 432.465 7.769zM48 120.232c-8.837 0-16-7.163-16-16s7.163-16 16-16 16 7.163 16 16-7.163 16-16 16zm96 48c-8.837 0-16-7.163-16-16s7.163-16 16-16 16 7.163 16 16-7.163 16-16 16zm96-80c-8.837 0-16-7.163-16-16s7.163-16 16-16 16 7.163 16 16-7.163 16-16 16zm96 144c-8.837 0-16-7.163-16-16s7.163-16 16-16 16 7.163 16 16-7.163 16-16 16zm96-176c-8.837 0-16-7.163-16-16s7.163-16 16-16 16 7.163 16 16-7.163 16-16 16zM472 424.232H8a8 8 0 0 0-8 8v32a8 8 0 0 0 8 8h464a8 8 0 0 0 8-8v-32a8 8 0 0 0-8-8zm-8 32H16v-16h448v16z" fill="#27acfd" opacity="1" data-original="#000000" class=""></path></g></svg>