<svg xmlns="http://www.w3.org/2000/svg" version="1.1" xmlns:xlink="http://www.w3.org/1999/xlink" width="512" height="512" x="0" y="0" viewBox="0 0 512 512" style="enable-background:new 0 0 512 512" xml:space="preserve" class=""><g><path d="M362 0H150C67.16 0 0 67.16 0 150v212c0 82.84 67.16 150 150 150h212c82.84 0 150-67.16 150-150V150C512 67.16 444.84 0 362 0zm-12.18 380.41H162.18v-26.49l71.61-99.29-71.61-96.9v-26.15h185.43v68.02h-43.92l-1.71-22.22h-53.83l-3.59-.51 52.81 76.73v2.05l-53.32 79.47.86-.51h59.3l1.71-22.05h43.92v67.85z" data-name="35" fill="#02566e" opacity="1" data-original="#000000" class=""></path></g></svg>