<svg id="Capa_1" enable-background="new 0 0 189.524 189.524" height="512" viewBox="0 0 189.524 189.524" width="512" fill="#fff" xmlns="http://www.w3.org/2000/svg"><g><g><path clip-rule="evenodd" d="m56.26 52.119c-2.104 8.174-9.524 14.214-18.355 14.214-10.467 0-18.952-8.485-18.952-18.952s8.485-18.952 18.952-18.952c8.831 0 16.251 6.04 18.355 14.214h128.526c2.616 0 4.738 2.121 4.738 4.738s-2.122 4.738-4.738 4.738zm-8.879-4.738c0 5.234-4.243 9.476-9.476 9.476s-9.476-4.243-9.476-9.476 4.243-9.476 9.476-9.476 9.476 4.242 9.476 9.476z" fill-rule="evenodd"/></g><g><path d="m4.738 52.119h14.811c-.39-1.514-.597-3.102-.597-4.738s.207-3.224.597-4.738h-14.811c-2.617 0-4.738 2.121-4.738 4.738s2.121 4.738 4.738 4.738z"/></g><g><path clip-rule="evenodd" d="m113.117 137.405c-2.104-8.174-9.525-14.214-18.355-14.214s-16.252 6.04-18.355 14.214h-71.669c-2.617 0-4.738 2.122-4.738 4.738s2.121 4.738 4.738 4.738h71.668c2.104 8.174 9.525 14.214 18.355 14.214s16.252-6.04 18.355-14.214h71.668c2.616 0 4.738-2.122 4.738-4.738s-2.122-4.738-4.738-4.738zm-18.355 14.214c5.234 0 9.476-4.242 9.476-9.476s-4.242-9.476-9.476-9.476-9.476 4.242-9.476 9.476 4.242 9.476 9.476 9.476z" fill-rule="evenodd"/></g><g><path clip-rule="evenodd" d="m169.974 90.024c-2.104-8.174-9.525-14.214-18.355-14.214s-16.252 6.04-18.355 14.214h-128.526c-2.617 0-4.738 2.122-4.738 4.738s2.121 4.738 4.738 4.738h128.526c2.104 8.174 9.525 14.214 18.355 14.214s16.252-6.04 18.355-14.214h14.811c2.616 0 4.738-2.122 4.738-4.738s-2.122-4.738-4.738-4.738zm-18.355 14.214c5.234 0 9.476-4.242 9.476-9.476s-4.243-9.476-9.476-9.476c-5.234 0-9.476 4.242-9.476 9.476s4.242 9.476 9.476 9.476z" fill-rule="evenodd"/></g></g></svg>