<svg xmlns="http://www.w3.org/2000/svg" version="1.1" xmlns:xlink="http://www.w3.org/1999/xlink" xmlns:svgjs="http://svgjs.com/svgjs" width="512" height="512" x="0" y="0" viewBox="0 0 24 24" style="enable-background:new 0 0 512 512" xml:space="preserve" class=""><g><g data-name="Layer 2"><path fill="#27acfd" d="M20 1.25H4A2.752 2.752 0 0 0 1.25 4v12A2.752 2.752 0 0 0 4 18.75h1.242a1.009 1.009 0 0 1 1.008 1.008v.621a2.215 2.215 0 0 0 1.389 2.079 2.3 2.3 0 0 0 .875.177 2.22 2.22 0 0 0 1.577-.665l2.925-2.925a1.011 1.011 0 0 1 .712-.3H20A2.752 2.752 0 0 0 22.75 16V4A2.752 2.752 0 0 0 20 1.25z" opacity="1" data-original="#4285f4" class=""></path><g fill="#fff"><path d="M17 8.75H7a.75.75 0 0 1 0-1.5h10a.75.75 0 0 1 0 1.5zM13 12.75H7a.75.75 0 0 1 0-1.5h6a.75.75 0 0 1 0 1.5z" fill="#ffffff" opacity="1" data-original="#ffffff"></path></g></g></g></svg>