<svg id="Capa_1" enable-background="new 0 0 512 512" height="512" viewBox="0 0 512 512" width="512" xmlns="http://www.w3.org/2000/svg"><g><path d="m463.491 180.918 34.617 307.306c1.103 9.794-6.56 18.369-16.416 18.369h-429.548c-8.968 0-16.506-6.736-17.51-15.648l-34.535-306.576c-1.03-9.141 6.123-17.144 15.321-17.144h432.749c7.848 0 14.443 5.894 15.322 13.693z" fill="#fe9901"/><path d="m477.984 217.007c-2.962-6.407-9.426-10.889-16.985-10.889h-216.345-22.874l-22.583-53.298h-16.061l-.032-.072c-2.985-6.772-9.679-11.15-17.08-11.17l-101.235-.368c-10.106-.028-18.41 7.969-18.763 18.069l-11.488 329.077c-.348 9.967 7.637 18.236 17.61 18.236h401.793c7.08 0 13.133-4.468 15.475-10.77h19.637v-278.815z" fill="#fec165"/><path d="m166.024 141.579c7.401.02 14.095 4.398 17.08 11.17l21.209 48.113c1.408 3.195 4.57 5.257 8.062 5.257h32.279c-3.491 0-6.654-2.062-8.062-5.257l-21.209-48.113c-2.985-6.772-9.679-11.15-17.08-11.17z" fill="#fdb441"/><path d="m493.278 206.119h-32.279c10.596 0 19.081 8.786 18.711 19.376l-9.259 265.154c-.311 8.894-7.61 15.943-16.509 15.943h32.279c8.899 0 16.199-7.049 16.51-15.943l9.259-265.154c.368-10.59-8.116-19.376-18.712-19.376z" fill="#fdb441"/><path d="m414.519 114.178-64.182-95.974h-14.147l-60.956 89.751c-5.093 7.499.278 17.64 9.343 17.64h21.544v150.55c0 6.238 5.057 11.294 11.294 11.294h37.549c5.206 0 9.578-3.527 10.885-8.319h16.475v-153.526h5.478c6.684 0 11.354-5.514 11.307-11.417h15.41z" fill="#0055a3"/><path d="m426.49 107.954-66.285-97.597c-4.481-6.598-14.205-6.598-18.686 0l-5.329 7.846 60.956 89.751c5.093 7.499-.278 17.64-9.343 17.64h-21.544v150.55c0 6.238-5.057 11.294-11.294 11.294h29.344c6.238 0 11.294-5.057 11.294-11.294v-150.55h21.544c9.065 0 14.436-10.141 9.343-17.64z" fill="#004281"/></g></svg>