<svg xmlns="http://www.w3.org/2000/svg" version="1.1" xmlns:xlink="http://www.w3.org/1999/xlink" xmlns:svgjs="http://svgjs.com/svgjs" width="512" height="512" x="0" y="0" viewBox="0 0 791.454 791.454" style="enable-background:new 0 0 512 512" xml:space="preserve" class=""><g><path fill="#27acfd" fill-rule="evenodd" d="M202.808 0h264.609l224.265 233.758v454.661c0 56.956-46.079 103.035-102.838 103.035H202.808c-56.956 0-103.035-46.079-103.035-103.035V103.035C99.772 46.079 145.851 0 202.808 0z" clip-rule="evenodd" opacity="1" data-original="#fa0000" class=""></path><g fill="#fff"><path fill-rule="evenodd" d="M467.219 0v231.978h224.463z" clip-rule="evenodd" opacity="1" fill="#fdb932" data-original="#ffffff302" class=""></path><path d="M395.826 359.141c-70.602 0-127.954 57.352-127.954 127.954S325.224 614.85 395.826 614.85s127.756-57.154 127.756-127.756-57.352-127.756-127.756-127.953zm53.792 131.909a10.489 10.489 0 0 1-4.153 4.153l-72.975 36.586c-4.549 2.175-10.086.396-12.261-4.153-.791-1.187-.989-2.571-.989-4.153v-72.975c0-5.142 4.153-9.097 9.097-9.097 1.384 0 2.769.198 4.153.989l72.975 36.389c4.549 2.372 6.328 7.712 4.153 12.261z" fill="#00556e" opacity="1" data-original="#ffffff" class=""></path></g></g></svg>