<svg xmlns="http://www.w3.org/2000/svg" version="1.1" xmlns:xlink="http://www.w3.org/1999/xlink" width="512" height="512" x="0" y="0" viewBox="0 0 32 32" style="enable-background:new 0 0 512 512" xml:space="preserve"><g><path d="M29 2h-2a1 1 0 0 0-1 1c0 .43.274.79.655.93L24 6.586l-1.293-1.293a1 1 0 0 0-1.414 0l-4 4a1 1 0 1 0 1.414 1.414L22 7.414l1.293 1.293a1 1 0 0 0 1.414 0l3.363-3.362c.14.38.5.655.93.655a1 1 0 0 0 1-1V3a1 1 0 0 0-1-1zM27 20h3l-3-3z" fill="#ffffff" opacity="1" data-original="#000000"></path><path d="M26 20v-3h-5a1 1 0 0 0-1 1v11a1 1 0 0 0 1 1h8a1 1 0 0 0 1-1v-8h-3a1 1 0 0 1-1-1zm1.5 7h-5a.5.5 0 1 1 0-1h5a.5.5 0 1 1 0 1zm0-2h-5a.5.5 0 1 1 0-1h5a.5.5 0 1 1 0 1zm.5-2.5a.5.5 0 0 1-.5.5h-5a.5.5 0 1 1 0-1h5a.5.5 0 0 1 .5.5zM17 28v-7a1 1 0 0 0-1-1h-2a1 1 0 0 0-1 1v7h-1V17a1 1 0 0 0-1-1H9a1 1 0 0 0-1 1v11H7v-4a1 1 0 0 0-1-1H4a1 1 0 0 0-1 1v4a1 1 0 1 0 0 2h14a1 1 0 1 0 0-2z" fill="#ffffff" opacity="1" data-original="#000000"></path><path d="m26 16-1-1h-6a1 1 0 0 0-1 1v10a1 1 0 0 0 1 1v-9a2 2 0 0 1 2-2zM14.975 9H9.707l3.726 3.726A6.465 6.465 0 0 0 14.975 9zM9.014 2v5.986H15A6.505 6.505 0 0 0 9.014 2z" fill="#ffffff" opacity="1" data-original="#000000"></path><path d="M8.513 15a6.482 6.482 0 0 0 4.234-1.57L8.158 8.842a.5.5 0 0 1-.146-.355V2a6.509 6.509 0 0 0 .5 13z" fill="#ffffff" opacity="1" data-original="#000000"></path></g></svg>