<svg xmlns="http://www.w3.org/2000/svg" version="1.1" xmlns:xlink="http://www.w3.org/1999/xlink"  width="512" height="512" x="0" y="0" viewBox="0 0 512 512" style="enable-background:new 0 0 512 512" xml:space="preserve" class=""><g><clipPath id="a"><path d="M245.91 230.2h-36.52v-77.96h36.52z" fill="#000000" data-original="#000000"></path></clipPath><path fill="#f5b493" d="M239.77 205.13c7.58-3 25.91-9.07 40.64-.45 9.61 5.63 13.27 14.91 19.8 32.18 11.16 29.5 19.25 51.28 23.93 63.93l52-72.33 25.58 9.64a318 318 0 0 1-22.83 60.22c-17.18 34.33-33.61 67.15-54.72 66.82-20.76-.32-39-32.56-52.8-56.92a214.3 214.3 0 0 1-11.14-22.69c-24.32-19.81-29.13-51.19-20.46-80.4z" data-original="#f5b493" class=""></path><path fill="#00556e" d="M415.64 285.16a1 1 0 0 1-.86-.49c-10.44-17.48-23.37-24.39-23.5-24.46a1 1 0 0 1 .93-1.77c.55.28 13.53 7.2 24.29 25.21a1 1 0 0 1-.86 1.51zM274.73 362c-15-9.34-33.67 10-67 14-23.94 2.91-44.24-3.42-56.81-8.62l-11 87.78a1101.74 1101.74 0 0 0 156.89-.33 385.47 385.47 0 0 0-8.81-60.41c-6-26.23-9.78-30.25-13.27-32.42z" data-original="#2d1929" class="" opacity="1"></path><path fill="#eba284" d="M324.14 365.14c21.11.33 37.54-32.49 54.72-66.82 4.34-8.68 8-17 11.13-24.87l-21.42 3.79c-11.55-8.59-9.42-25.18-9.42-25.18l-35 48.73c-2.89-7.8-7.08-19.09-12.48-33.51l-38.82 43.58c13.58 23.98 31.27 53.97 51.29 54.28z" data-original="#eba284" class=""></path><path fill="#00556e" d="M162.71 221.48s-12.14-23.3 0-61.35c9.44-29.59-6.59-71 10.37-87.24 1.31-1.26 14-11.19 23.95-6.82a14.52 14.52 0 0 1 6 5.07l17.19 144z" data-original="#2d1929" class="" opacity="1"></path><g clip-path="url(#a)"><path fill="#f5b493" d="M245.91 230.2h-36.52v-77.96h36.52z" data-original="#f5b493" class=""></path><path fill="#eba284" d="M245.9 170.79c-4.77 18.72-22 30.49-41.11 29.77l-.72-23.42z" data-original="#eba284" class=""></path></g><path fill="#917eec" d="M163.27 209.6c-15.81 11.31-16.56 47.34-16.56 47.34-.25 27-1.7 63.31-3.07 108.45a4.25 4.25 0 0 0 2.62 4.07A189.47 189.47 0 0 0 284 371.8a4.26 4.26 0 0 0 2.77-4.38c-3.43-39.92-.6-70.09 3-91.37 3.24-18.88 10.1-50.23-7.1-65a15.4 15.4 0 0 0-2.16-1.58c-17.84-10.48-36.09-7.59-65-5.11-40.61 3.53-43.6-.95-52.24 5.24z" data-original="#917eec" class=""></path><path fill="#f5b493" d="M215.52 204.55c-12.22-4.67-37.3-12.22-55 0-11.48 7.91-10.79 15.6-47.3 85.24q-18.7-44.79-37.4-89.64L50 215a274.28 274.28 0 0 0 5.5 40.7c6.5 30.61 18 85 45.1 92.39 24.17 6.6 61.37-24.2 85.8-75.9q13.53-33.69 29.12-67.64z" data-original="#f5b493" class=""></path><path fill="#eba284" d="M113.22 289.79s4.3 22.09 0 36.34c0 0 7.64-9.88 8.47-21.37l21.22 27.64 13.66-12.17-12.93-34.88-20.27-18.79z" data-original="#eba284" class=""></path><path fill="#917eec" d="M209.38 202.38c-8-3.11-29.43-10.2-46.8.1-7.21 4.28-11.73 11.85-20.49 26.82a374.3 374.3 0 0 0-25.63 54.28 76.28 76.28 0 0 0 28.23 29.91l1.58 27.75 40.65-36.6 90.19 15.95 7.89 10.52A203.4 203.4 0 0 0 319.39 287c-3.3-13.2-6.74-24-9.39-31.66-15-43.6-26.14-50-31-52a50 50 0 0 0-13.2-3.3c-10.53-1.18-17.44 1.43-25.16 2.89a81 81 0 0 1-31.26-.55z" data-original="#917eec" class=""></path><path fill="#cc3745" d="M307.63 291.59A783.57 783.57 0 0 0 327.27 436l17.82-8 17.61 8L420 271.58z" data-original="#cc3745"></path><path fill="#e73f46" d="M463 395.69 362.7 436a571.54 571.54 0 0 1-42.21-140.25l100.23-23.77A629 629 0 0 0 463 395.69z" data-original="#e73f46"></path><path fill="#d7981a" d="M339.38 291.52a669 669 0 0 0 32.79 120l14.2-8.73 15.79 4.77q15-72.76 30.1-145.53z" data-original="#d7981a"></path><path fill="#efbd42" d="m482.53 362.22-80.37 45.31a488 488 0 0 1-51.43-114l82.16-31.34a537.43 537.43 0 0 0 49.64 100.03z" data-original="#efbd42"></path><path fill="#f5b493" d="M373.64 234a55 55 0 0 1 1.36-19c1.27-4.92 2.1-5.07 2.76-9.3 1.42-9.06-1.24-15.74 1.23-17 .79-.39 1.67 0 2.63.39 5.48 2.31 6.29 10.36 6.36 11.15 0 0 8.18-12.51 11.13-1.84 0 0 8.17-2 7.49 5.91 0 0 6.82-2.07 5.45 5.89a4.05 4.05 0 0 1 3.39.38c1.71 1.29 1.37 4.36 1.16 6-.84 6.43-6.78 27.25-21.11 28.65a17.43 17.43 0 0 1-4.13-.14c-9.49-1.23-15.48-8.18-17.72-11.09z" data-original="#f5b493" class=""></path><path fill="#00556e" d="M403.87 224.34c-1.57 0-3.22-.8-3.16-2.41a6.44 6.44 0 0 1 1.51-3.23c-3.05 1.91-6 3.09-7.45 1.91-1.82-1.45.32-4.66 1.75-6.55-3.24 2.45-6.34 4.16-7.86 3.32-1.72-.95-.29-4 .63-5.77-1.93 1.87-3.63 3-4.62 2.45-3-1.66 1.86-12 2.87-14a.5.5 0 0 1 .67-.23.51.51 0 0 1 .23.67c-2.33 4.74-4.9 11.81-3.29 12.69.88.49 3.69-2.24 7-6.21 2.77-4.13 6-8.09 6.62-8.85a.5.5 0 0 1 .8.6c-1.27 1.85-3.91 5.61-6.68 9-2.36 3.51-4.26 6.93-4 8.4a.56.56 0 0 0 .27.43c1.61.89 6.84-3 11.67-7.34 2.53-2.6 4.93-4.73 5.47-5.21a.5.5 0 0 1 .69.73c-.86.87-3 3-5.46 5.22-1.67 1.72-8 8.41-6.12 9.92 1.45 1.16 5.68-1.3 9.87-4.49a74.93 74.93 0 0 1 6.5-5.51.51.51 0 0 1 .65.77c-.62.57-3.3 3.06-6.45 5.47-1.38 1.34-5.4 5.39-3.95 6.66 2.34 2 7.82-1.5 9.74-3a.5.5 0 0 1 .7.08.49.49 0 0 1-.07.7c-.27.11-4.91 3.78-8.53 3.78z" data-original="#2d1929" class="" opacity="1"></path><path fill="#00556e" d="M391 227.66a.5.5 0 0 1-.5-.5c0-6.53-5.86-13.14-5.92-13.2a.5.5 0 0 1 0-.71.48.48 0 0 1 .7 0c.26.28 6.18 7 6.18 13.87a.5.5 0 0 1-.46.54z" data-original="#2d1929" class="" opacity="1"></path><path fill="#f5b493" d="M75.68 206.6a55.29 55.29 0 0 0-1.37-19c-1.27-4.92-2.1-5.07-2.76-9.29-1.42-9.07 1.24-15.75-1.23-17-.79-.39-1.67 0-2.63.39-5.48 2.3-6.29 10.36-6.36 11.15 0 0-8.18-12.52-11.13-1.84 0 0-8.18-2.05-7.5 5.9 0 0-6.81-2.06-5.45 5.9a4.05 4.05 0 0 0-3.38.37c-1.72 1.3-1.37 4.36-1.16 6 .83 6.42 6.77 27.24 21.11 28.64a16.85 16.85 0 0 0 4.12-.14c9.5-1.2 15.49-8.14 17.74-11.08z" data-original="#f5b493" class=""></path><g fill="#2d1929"><path d="M36.94 193.1a.5.5 0 1 1 .63-.78c1.91 1.53 7.4 5.07 9.73 3 1.46-1.27-2.58-5.34-3.94-6.66a88.27 88.27 0 0 1-6.45-5.48.5.5 0 0 1 .64-.76 73 73 0 0 1 6.51 5.58c4.19 3.18 8.41 5.65 9.87 4.49 1.88-1.51-4.45-8.2-6.12-9.93-2.51-2.25-4.6-4.34-5.46-5.22a.5.5 0 0 1 .68-.72c.55.48 2.95 2.6 5.48 5.2 4.83 4.32 10.06 8.23 11.67 7.34a.52.52 0 0 0 .27-.42c.28-1.48-1.62-4.9-4-8.41-2.77-3.35-5.41-7.11-6.68-9a.5.5 0 0 1 .8-.6c.63.77 3.85 4.72 6.62 8.85 3.27 4 6.08 6.7 7 6.22 1.6-.89-1-7.95-3.29-12.69a.5.5 0 0 1 .23-.67.51.51 0 0 1 .67.23c1 2 5.88 12.35 2.87 14-1 .55-2.69-.57-4.62-2.45.91 1.76 2.35 4.82.63 5.78-1.53.84-4.62-.88-7.86-3.32 1.42 1.88 3.57 5.09 1.75 6.55-1.48 1.18-4.4 0-7.46-1.92 1.12 1.49 2.28 3.56.87 4.79-2.77 2.4-8.26-.77-11.04-3z" fill="#00556e" data-original="#2d1929" class="" opacity="1"></path><path d="M58.36 200.29a.5.5 0 0 1-.5-.5c0-6.92 5.92-13.6 6.17-13.88a.51.51 0 0 1 .71 0 .5.5 0 0 1 0 .71c-.06.07-5.92 6.68-5.92 13.21a.5.5 0 0 1-.46.46zM339.38 289.92a1 1 0 0 1-1-.8c-.12-.57-2.84-14 3-22.22a14.42 14.42 0 0 1 10.51-5.9 1 1 0 0 1 .24 2 12.5 12.5 0 0 0-9.07 5.08c-5.37 7.49-2.73 20.51-2.7 20.64a1 1 0 0 1-.98 1.2z" fill="#00556e" data-original="#2d1929" class="" opacity="1"></path><path d="M371.15 285.16a1.13 1.13 0 0 1-.53-.14c-.62-.39-15.3-9.46-17.41-19.92a11.52 11.52 0 0 1 2-9.32 1 1 0 0 1 1.39-.23 1 1 0 0 1 .23 1.4 9.45 9.45 0 0 0-1.7 7.75c1.94 9.6 16.35 18.52 16.5 18.61a1 1 0 0 1-.48 1.85z" fill="#00556e" data-original="#2d1929" class="" opacity="1"></path></g><path fill="#6d5fde" d="M239.52 349c-2-5.32-59.29 6.95-72.06 3-3.66-1.12-6.16-2.41-8-4.3a20.07 20.07 0 0 1-2.54-3c-5-7.55-5.07-34.57-5.45-46.32-.42-13-1.44-15.44.28-22a46.66 46.66 0 0 1 9.73-18.29l5.34-27.89-9.87 26a53.81 53.81 0 0 0-9.54 14.78c-4.51 10.47-4.55 20-4.52 25.5.05 9.61 1.88 11 2 23.6 0 1.42 0 6.84-.62 14-1.49 16.17-.32 22-.6 31.38a4.25 4.25 0 0 0 2.62 4.07 188.88 188.88 0 0 0 114.11 9.34c-12.79-.47-30-2.25-36.25-8.13-10.51-9.89 17.33-16.44 15.37-21.74zM284.95 331.11l-8.26-82.12 21.89 67.53z" data-original="#6d5fde" class=""></path><path fill="#f5b493" d="M203.2 200.24s-3.91 19.77 12.32 23.45 42-21.27 42-21.27-18.75-2.95-25.63-2.18-23.09 2.09-28.69 0zM267.51 123.81c-.26 27.69-19.5 46.27-27.9 53.1A70.84 70.84 0 0 1 224.45 188c-6.16 3.27-22.66 12-34.56 4.37-3.1-2-7.37-7-12.4-18.79-6.51-15.21-7.39-23.37-6.31-32s3.15-13.86 3.67-19.5c1.28-13.94-.25-24.58 9.71-34.08a48.37 48.37 0 0 1 10.53-9.16c14.34-10.49 38.13-10.78 54.19 1.27 18.51 13.89 18.28 37.77 18.23 43.7z" data-original="#f5b493" class=""></path><path fill="#00556e" d="M194.54 154.25c-3.18-1.79-4.82-3.69-4.86-5.66-.09-4.36 7.27-4.85 9.6-17.52a.5.5 0 0 1 1 .18c-2.37 12.92-9.66 13.66-9.58 17.32 0 1.59 1.5 3.21 4.35 4.8a.5.5 0 0 1-.51.88zM197 115.9a1 1 0 0 1-.65-.24c-.29-.25-7.23-6-15.27-1.45a1 1 0 0 1-1.37-.37 1 1 0 0 1 .38-1.37c9.29-5.3 17.49 1.6 17.57 1.67a1 1 0 0 1-.66 1.76zM228.35 118.16a1 1 0 0 1-.68-.27c-6.74-6.36-14.85-2.37-15.19-2.2a1 1 0 0 1-.91-1.78c.1 0 9.69-4.82 17.47 2.53a1 1 0 0 1-.69 1.72z" data-original="#2d1929" class="" opacity="1"></path><path fill="#f2f2f2" d="m190.18 166.12 22.82-6c-1.3 8.91-8.39 14.3-14.26 13.41-5.42-.81-8.26-6.77-8.56-7.41z" data-original="#f2f2f2" class=""></path><path fill="#00556e" d="M222.44 132.43a.51.51 0 0 1-.46-.3 7 7 0 0 0-4.46-4 7.09 7.09 0 0 0-7.69 4 .51.51 0 0 1-.67.22.49.49 0 0 1-.22-.67 8.1 8.1 0 0 1 8.81-4.53 8 8 0 0 1 5.15 4.55.5.5 0 0 1-.46.73zM177.71 129.52a8 8 0 0 1 5.16-4.55 8.1 8.1 0 0 1 8.81 4.52.5.5 0 0 1-.9.45 7.1 7.1 0 0 0-7.68-4 7 7 0 0 0-4.47 4 .5.5 0 0 1-.92-.42z" data-original="#2d1929" class="" opacity="1"></path><path fill="#f2f2f2" d="M193.83 414.23A49 49 0 0 0 204.47 436l-.74 21.78h5.65l-1.84-23.4a65.82 65.82 0 0 1-13.71-20.15z" data-original="#f2f2f2" class=""></path><path fill="#00556e" d="M175.81 108.36s-4.43-19 0-31.49S197 66.07 197 66.07s39.21-17.78 64.62.92c7.62 5.61 11.06 12.42 15 20.19 17.75 34.63.88 53.7 17.06 80.14 10.74 17.54 22.54 16.28 26.7 31.78 4.47 16.66-4.93 33.86-14.08 46.22 0 0-15.91-39.16-43.6-40.38s-24.23-11.26-21.61-38.05c1.92-19.74 10.42-19.31 14.38-26.2.62-1.07 3.26-6.61 2-11.46-2.93-11.18-24.16-8.31-31.11-20.26-2.5-4.29-3.86-11.7 2.29-25.22-8.05 5.7-10.89 15.23-9.56 24.9.06 0-24.79-6.47-43.28-.29z" data-original="#2d1929" class="" opacity="1"></path><path fill="#f5b493" d="M270.19 142c-3.06 7.57-10.6 11.67-16.83 9.15s-8.8-10.7-5.74-18.27 10.59-11.67 16.82-9.15 8.8 10.7 5.75 18.27z" data-original="#f5b493" class=""></path><path fill="#00556e" d="M252.66 143.06c.14 0 3.43-.52 3.74-3.77.2-2.16-3.86-2.85-3.9-2.86a.49.49 0 0 1-.38-.68c.15-.36 3.71-8.69 9.44-8.39 4 .2 4.95 4 4.87 6a.52.52 0 0 1-.52.48.5.5 0 0 1-.48-.52c0-.2.13-4.79-3.92-5-4.24-.23-7.33 5.4-8.21 7.22 1.35.32 4.33 1.33 4.09 3.81-.38 4-4.55 4.66-4.59 4.66a.5.5 0 0 1-.14-.95z" data-original="#2d1929" class="" opacity="1"></path></g></svg>